<svg width="135" height="198" viewBox="0 0 135 198" fill="none" xmlns="http://www.w3.org/2000/svg">
<path d="M44.919 197.433C44.0844 197.266 43.0828 197.099 42.2482 196.931C32.3998 194.259 25.8898 186.241 24.8882 176.219C19.3798 171.374 15.8744 165.194 14.539 157.844C13.3705 150.328 12.2021 139.303 14.3721 129.281L15.0398 126.775C16.3751 122.432 18.3782 118.423 21.3828 114.915L21.8836 110.572C21.049 108.735 19.3798 106.563 16.8759 103.557C14.8728 101.051 12.7028 98.2113 10.6998 95.0376C7.69515 90.1934 4.02284 83.5119 2.01977 75.8281C-1.65254 61.1286 -0.317154 46.5962 6.02592 34.7364C19.5467 9.34647 49.0921 -4.51779 77.8028 1.32858C109.017 7.50903 139.23 35.9057 133.722 70.9839C131.051 87.5208 122.705 100.55 109.518 109.069C106.847 110.739 104.177 112.076 101.673 113.245C99.3359 114.247 97.3328 115.416 95.6636 116.419C93.1597 118.089 91.4905 120.26 89.8213 123.768C91.6574 128.779 92.1582 133.958 92.1582 138.802L91.9913 141.809C90.9897 154.671 85.8151 166.029 83.4782 170.372C80.1397 176.887 74.9651 181.564 68.2882 184.237C66.4521 188.078 63.7813 191.252 60.2759 193.758C55.6021 196.931 50.2605 198.268 44.919 197.433Z" fill="white"/>
<path d="M75.7998 11.518C51.7629 6.67385 26.7244 18.1996 15.2067 39.7476C9.69825 49.937 9.36441 62.1309 12.2021 73.1555C13.7044 79.0018 16.5421 84.3471 19.7136 89.5253C25.8898 99.7147 36.0721 105.895 32.3998 119.258C32.2329 119.258 32.0659 119.425 31.899 119.592C21.5498 126.775 23.0521 145.65 25.0552 156.174C26.3906 163.023 30.2298 167.867 35.5713 171.207C34.5698 178.39 37.7413 185.072 45.0859 187.076C52.2636 188.914 59.4413 182.9 60.109 175.885C65.9513 174.715 71.1259 171.542 74.2975 165.528C80.3067 154.169 84.8136 137.131 79.1382 124.938C78.9713 124.604 78.8044 124.269 78.6375 124.102C80.9744 117.588 83.979 111.909 89.9882 107.9C94.3282 104.893 99.6698 103.223 104.177 100.383C115.194 93.3672 121.704 82.3426 123.707 69.4806C128.047 40.2487 101.673 16.6962 75.7998 11.518ZM52.5975 114.08C52.9313 105.227 53.2652 97.2091 49.4259 89.0242C46.7552 83.5119 43.9175 78.6677 42.9159 72.4873C41.2467 62.2979 48.5913 51.9415 59.6082 54.9482C60.6098 55.2823 61.6113 55.7834 62.6129 56.6186C55.769 60.6275 51.429 68.9795 58.1059 75.1599C62.6129 79.3359 72.2944 78.1666 73.2959 71.318C73.9636 66.808 72.2944 61.7968 69.2898 57.9549C78.1367 56.7856 86.8167 64.6365 84.1459 74.1577C80.8075 85.5164 69.4567 88.356 62.6129 96.2069C55.4352 104.392 55.769 120.093 55.9359 131.285C55.2682 131.285 54.6006 131.285 53.9329 131.118C53.0982 130.951 52.2636 130.951 51.5959 130.784C52.7644 125.439 52.4306 119.425 52.5975 114.08ZM64.2821 74.3247C54.9344 73.6566 59.2744 62.9661 64.6159 59.9594C64.9498 59.7923 65.1167 59.6253 65.4505 59.4582C70.4582 65.4716 73.2959 74.9929 64.2821 74.3247ZM74.9652 129.782C76.1336 133.791 76.3005 138.134 75.6329 142.644C63.6144 152.833 34.5698 146.82 30.3967 130.951C31.0644 128.947 31.899 126.942 33.0675 125.272C41.9144 138.301 64.7829 142.31 74.9652 129.782ZM72.1275 156.341C60.109 165.695 39.5775 159.849 29.2282 149.158C28.7275 145.149 28.5606 140.806 29.0613 136.63C34.9036 149.993 61.2775 154.002 74.7982 146.987C74.1305 150.161 73.129 153.334 72.1275 156.341ZM45.5867 181.731C41.2467 180.896 40.9129 177.221 40.579 173.546C42.2482 174.214 43.9175 174.715 45.7536 175.216C48.5913 175.885 51.5959 176.386 54.4336 176.386C52.7644 179.894 50.5944 182.566 45.5867 181.731ZM49.9267 170.539C40.7459 169.203 32.3998 164.693 30.2298 155.339C30.0629 154.838 30.0629 154.504 29.8959 154.002C34.4029 158.011 40.7459 160.517 45.2529 161.853C53.599 164.025 62.6129 164.693 70.1244 161.018C66.2852 168.535 59.7752 171.876 49.9267 170.539ZM112.523 81.8415C107.181 92.699 96.8321 95.8728 87.3175 101.552C78.9713 106.73 74.4644 113.746 73.129 123.267C68.4552 127.61 64.2821 130.617 58.4398 131.285C59.4413 120.595 59.6082 103.055 67.1198 97.3761C77.1352 89.6923 91.3236 81.0063 88.4859 66.1398C86.8167 57.4538 74.6313 53.2778 66.619 55.2823C62.279 51.2733 56.2698 49.4359 50.5944 51.7744C37.7413 57.1197 37.5744 72.1532 42.5821 83.1778C44.4182 87.1867 46.4213 90.8616 48.2575 94.8705C50.2606 99.3806 49.4259 106.229 49.259 110.906C49.259 117.254 48.9252 123.768 48.5913 130.116C43.9175 128.445 39.4106 125.439 36.4059 121.597C36.4059 121.597 36.4059 121.43 36.5729 121.43C41.2467 111.742 38.2421 103.724 32.0659 95.3717C23.219 83.1778 15.7075 72.1532 16.8759 56.4515C18.7121 30.3934 45.5867 15.694 69.2898 17.3644C100.838 19.3688 127.379 51.4404 112.523 81.8415Z" fill="#6BC1BC"/>
</svg>
