<svg width="156" height="130" viewBox="0 0 156 130" fill="none" xmlns="http://www.w3.org/2000/svg">
<g clip-path="url(#clip0_21_547)">
<path d="M9.25954 129.641C6.52087 129.641 3.7822 128.339 2.08683 126.254C0.391461 124.169 -0.260604 121.433 0.391461 118.827L5.08633 98.1105L5.60798 95.8955L6.26004 93.2897C7.43376 88.3385 11.9982 85.6024 15.2585 83.5177C15.9106 83.1268 16.4323 82.8662 16.8235 82.4754C21.7792 78.8271 26.6045 75.0487 31.4297 71.2702C40.5586 64.2343 49.5571 57.0682 58.5556 49.9021L73.0315 38.306C73.8139 37.6545 74.5964 37.0031 75.3789 36.3516C76.5526 35.3093 77.9872 34.1366 79.4217 32.964C82.8124 24.2343 88.8114 19.5438 95.2017 14.723L95.5929 14.4624C96.245 13.9412 97.0275 13.42 97.6795 12.7686C101.722 9.51123 107.069 4.95097 113.851 4.82068C115.676 4.82068 117.372 4.95097 119.198 5.21156C123.11 1.95423 128.066 0.130127 133.413 0.130127C140.325 0.130127 146.715 3.25716 151.018 8.72947C154.67 13.42 155.974 19.1529 154.8 24.8858C153.757 29.7067 150.888 34.2669 146.845 37.6545C147.236 44.2995 145.019 50.0324 140.585 54.0715C139.542 54.9835 138.499 56.0259 137.325 57.0682C134.978 59.1529 132.5 61.6285 129.761 63.8434L125.588 66.9705C121.284 69.9672 116.459 72.1822 111.242 72.4428L109.938 73.3548C89.7243 88.5991 69.1191 104.495 48.5138 119.869C47.9922 120.26 47.3401 120.782 46.688 121.303C44.0798 123.648 40.4282 126.775 35.7334 127.296C34.6901 127.426 33.6468 127.557 32.6035 127.557L30.3864 127.817C29.4735 127.948 28.4302 127.948 27.5174 128.078C26.0828 128.208 24.5179 128.339 22.9529 128.599C18.5189 129.12 13.9544 129.511 9.38995 129.641H9.25954Z" fill="white"/>
<path d="M145.41 12.8992C139.281 4.95133 127.283 5.08163 121.284 12.8992C119.067 11.9872 116.589 11.5963 114.111 11.5963C108.764 11.7266 103.809 16.808 99.7659 19.935C93.2453 24.8862 87.8983 28.9253 85.2901 37.0034C85.2901 37.1337 85.2901 37.264 85.2901 37.3943C82.421 39.0881 79.8127 41.8243 77.3349 43.7787C72.5096 47.6875 67.6843 51.5963 62.7286 55.3748C53.7301 62.5409 44.7316 69.707 35.6027 76.7428C30.7775 80.5213 25.8218 84.2998 20.8661 88.0783C18.7795 89.6418 13.4325 91.9871 12.7805 94.8536C10.8243 103.323 8.86809 111.922 6.91189 120.391C6.65107 121.694 7.9552 122.736 9.12891 122.606C14.9975 122.476 20.8661 121.694 26.7347 121.042C29.4733 120.782 32.212 120.521 35.0811 120.261C38.3414 119.87 41.7322 116.091 44.21 114.137C64.9457 98.6321 85.5509 82.9969 106.026 67.2314C106.026 67.2314 106.026 67.2314 106.156 67.1011C106.939 66.4497 107.591 65.9285 108.112 65.277C118.415 66.4497 128.718 54.8536 135.76 48.5995C139.933 44.821 140.455 39.3487 139.151 34.137C146.975 30.0979 151.279 20.4562 145.41 12.8992ZM110.329 17.3292C116.198 21.1077 121.154 24.2347 125.457 30.2282C129.5 35.9611 131.456 40.6516 131.065 47.4269C129.891 48.4692 128.718 49.6419 127.413 50.8145C129.109 38.6972 115.285 22.9318 103.548 22.0197C105.765 20.4562 108.112 18.8927 110.329 17.3292ZM40.428 78.0457C53.5997 67.7526 66.641 57.3291 79.6823 46.9057C85.9421 41.8243 90.8978 36.7428 99.5051 40.0002C99.5051 40.0002 99.5051 40.0002 99.6355 40.0002C86.3334 49.7721 73.5529 60.1956 60.642 70.4887C49.9482 78.9578 38.6022 87.036 28.6909 96.2868C26.213 94.593 23.4743 93.4203 20.8661 93.1597C27.3867 88.2086 33.9074 83.1272 40.428 78.0457ZM30.7775 97.8503C41.993 90.8145 52.1652 81.3031 62.4678 73.0946C75.6395 62.6712 88.9416 52.1174 102.113 41.3031C104.591 42.8666 106.417 44.9513 107.591 47.4269C95.8535 54.4627 85.2901 64.4953 74.5962 72.9643C61.6853 83.3878 48.7745 93.5506 36.1244 103.974C34.6899 101.759 32.8641 99.6744 30.7775 97.8503ZM26.4738 117.134C24.3872 117.394 22.3006 117.525 20.214 117.785C19.1707 114.788 16.6929 110.489 13.4325 110.749C14.0846 107.753 14.7367 104.886 15.3887 101.889C15.9104 99.5441 16.0408 97.8503 16.9537 96.5474C27.9084 97.0685 34.9507 105.538 34.6899 116.352C31.8208 116.613 29.0821 116.873 26.4738 117.134ZM46.8183 107.362C44.9925 108.665 41.7322 111.922 38.8631 114.137C39.1239 111.531 38.4718 108.795 37.2981 106.189C50.6002 96.4171 63.5111 85.9936 76.422 75.5702C86.9854 67.1011 98.4618 59.1532 108.373 49.9024C109.808 54.9839 108.504 60.7168 104.07 64.4953C84.7684 78.4366 65.8585 93.1598 46.8183 107.362ZM103.287 37.6549C99.5051 34.9187 94.6798 34.3976 90.2458 35.4399C91.5499 33.3552 93.1148 31.4008 94.8102 29.5767C101.722 32.3129 107.199 34.2673 112.025 40.6516C114.503 43.909 115.937 47.5572 116.72 51.466C117.241 54.2021 116.589 56.808 116.459 59.4138C114.633 60.3259 112.807 61.1076 110.981 61.3682C115.155 53.2901 111.503 43.6484 103.287 37.6549ZM119.85 57.3291C121.154 51.2054 117.372 43.3878 114.372 38.9578C110.721 33.7461 103.026 27.8829 96.1143 28.4041C97.9401 26.58 100.027 24.8862 102.113 23.1924C108.373 26.3194 113.72 28.9253 118.415 34.6582C123.501 40.7819 122.849 47.036 124.153 53.9415C122.719 55.1142 121.284 56.1565 119.85 57.3291ZM133.934 44.5604C134.195 40.2608 131.195 35.1793 129.239 31.922C125.457 25.6679 119.328 18.1109 111.764 16.6777C118.937 12.8992 127.153 21.3683 130.935 26.4497C134.586 31.5311 137.455 39.0881 133.934 44.5604ZM124.675 14.593C130.283 10.1631 136.673 9.77218 142.02 15.5051C147.106 20.8471 142.281 26.58 137.846 30.2282C137.325 28.9253 136.673 27.6223 136.021 26.58C133.152 21.8894 129.37 17.3292 124.675 14.593Z" fill="#E397B5"/>
</g>
<defs>
<clipPath id="clip0_21_547">
<rect width="155.191" height="129.642" fill="white"/>
</clipPath>
</defs>
</svg>
