<svg width="804" height="461" viewBox="0 0 804 461" fill="none" xmlns="http://www.w3.org/2000/svg">
<path d="M48.243 3.26331C52.2111 1.30532 56.1793 0 61.4701 0C71.3904 0 78.004 3.91597 81.9721 11.0952C83.9562 14.3585 85.2789 20.8852 85.2789 31.3277C85.2789 40.465 84.6175 51.5602 83.2948 64.6134C81.9721 76.3613 81.3107 90.0672 81.3107 105.731C81.3107 122.7 81.9721 135.101 83.2948 142.933C88.5857 169.039 102.474 182.092 123.637 182.745H130.912L138.849 161.207C143.478 148.154 146.785 137.711 148.108 127.922C149.43 118.784 150.753 97.8992 152.737 66.5714C154.06 41.1176 155.382 26.1064 156.705 20.8852C158.028 15.6639 161.335 11.0952 166.626 7.17927C169.932 4.56863 173.9 3.91597 178.53 3.91597C187.789 3.91597 195.064 7.83193 200.355 16.3165C202.339 18.9272 203 23.4958 203 28.7171C203 33.9384 202.339 44.381 201.677 60.6975C197.048 155.986 183.821 210.157 162.657 223.21C158.689 225.821 152.076 227.779 142.817 229.737C134.88 231.695 125.622 233 117.024 233C105.12 233 95.1992 231.042 87.263 227.779C66.761 218.641 52.8725 198.409 44.9362 167.081C41.6295 154.028 38.9841 140.975 38.3227 128.574C37 116.174 37 96.5938 37 69.8347C37 41.7703 37.6613 25.4538 38.9841 19.5798C39.6454 12.4006 42.9522 7.17927 48.243 3.26331Z" fill="#625E99"/>
<path d="M242.342 26.5915C245.838 25.6074 248.147 24.7533 248.74 24.6883C251.114 24.4284 255.399 25.1617 261.001 26.9533C269.172 30.2673 273.847 34.5654 276.278 40.3118L284.855 36.3662C297.327 29.5891 311.84 24.9936 328.458 23.1738C329.051 23.1088 330.238 22.9788 331.425 22.8488C332.612 22.7188 333.206 22.6538 333.799 22.5888C365.646 22.7089 384.281 39.3073 389.77 72.978L390.421 78.9193C392.372 96.7433 390.04 113.834 383.422 130.191C376.805 146.549 366.699 158.478 354.358 166.444C348.154 170.129 340.634 172.756 332.325 173.666C323.422 174.641 316.763 174.168 311.82 172.906L303.844 171.374C304.625 178.504 306.585 190.915 309.789 209.204C313.188 229.274 315.148 241.686 315.668 246.439C316.059 250.004 316.254 251.786 315.725 252.445C315.189 258.517 312.677 263.001 308.319 267.085C303.961 271.17 299.409 273.472 293.474 274.122C289.319 274.577 285.034 273.844 280.685 272.517C274.359 269.602 269.684 265.304 267.846 259.492C265.415 253.746 262.276 236.052 257.373 207.728C249.33 161.711 243.118 126.917 238.141 103.411C231.855 73.4356 228.058 55.2124 227.342 48.6769C227.277 48.0828 227.212 47.4887 227.082 46.3004L227.545 45.0471C227.814 42.0115 229.797 38.1867 232.968 34.2319C236.732 30.2121 240.033 27.4456 242.342 26.5915ZM338.07 78.0383C335.435 75.9217 331.151 75.1884 325.809 75.7734C318.093 76.6183 308.329 80.6939 296.451 87.406L288.004 92.5398L288.915 100.858C289.5 106.205 291.013 109.046 292.793 108.851C295.167 108.591 298.988 110.577 304.192 114.216C311.965 119.378 317.632 121.763 321.193 121.373C322.38 121.243 323.502 120.519 325.217 119.73C330.298 116.769 334.591 112.09 338.095 105.693C341.534 98.703 342.664 92.5667 342.013 86.6253C342.216 82.9955 340.704 80.1549 338.07 78.0383Z" fill="#625E99"/>
<path d="M218.723 237.988C221.111 236.195 224.097 235 228.873 235C234.247 235 238.426 236.195 241.411 239.184C246.785 243.368 250.367 250.54 252.158 260.701C252.158 261.896 252.755 264.884 252.755 270.264C252.755 304.929 250.964 333.618 247.382 357.526C244.397 378.445 239.023 395.778 232.455 409.524C225.888 423.271 217.529 432.237 208.573 436.42C203.797 438.811 198.423 439.409 192.453 439.409C179.317 439.409 167.376 435.823 157.226 428.65C151.853 424.467 147.076 417.892 142.897 408.927C139.315 399.961 136.926 390.398 136.926 381.433C136.926 369.479 142.3 362.307 152.45 359.319H153.047L157.226 357.526C157.226 357.526 156.629 356.928 155.435 356.33C148.868 352.744 142.3 344.377 135.732 331.825C132.15 324.653 128.568 314.492 126.179 300.745C123.194 287.596 122 275.643 122 266.08C122 255.919 126.179 248.747 133.941 245.161C137.523 243.368 141.106 242.172 144.091 242.172C146.479 242.172 150.062 243.368 153.644 245.161C157.823 247.551 160.809 250.54 162.6 254.126C164.391 257.712 165.585 264.884 166.779 274.447C168.57 293.573 171.556 306.125 175.735 312.102C178.123 315.688 180.512 317.481 183.497 317.481C185.885 317.481 188.273 316.285 190.662 313.297C194.841 308.515 199.02 300.148 202.603 289.389C206.185 278.631 207.976 269.666 207.976 261.896C206.782 251.735 210.961 243.965 218.723 237.988ZM202.603 367.686C203.797 362.307 204.394 359.319 204.394 359.319C204.394 357.526 203.797 356.928 202.603 356.928C201.409 356.928 199.02 357.526 196.035 358.721C190.662 361.112 185.288 362.307 179.317 362.307H170.362L174.541 366.491C176.929 368.882 178.72 372.468 179.317 376.054C180.512 383.226 181.706 388.008 182.303 389.801C182.9 391.594 184.094 392.789 185.885 393.387H187.079C194.244 392.789 199.02 384.422 202.603 367.686Z" fill="#8A84B7"/>
<path d="M297.988 290.184C303.362 287.793 308.138 286 312.915 286H319.482C332.02 286 344.559 291.379 355.903 301.54C365.455 309.31 370.829 317.08 371.426 324.252V326.643C371.426 332.62 369.635 337.999 366.053 341.585C362.47 345.769 357.694 347.562 351.723 347.562C348.141 347.562 344.559 346.964 340.976 345.171C337.394 343.976 335.006 342.183 334.409 340.389C333.811 338.596 332.02 336.803 328.438 335.01C324.856 333.217 321.87 332.62 318.885 332.62C313.512 332.62 308.735 336.803 303.959 344.573C299.182 352.343 296.794 361.308 295.6 371.469C295.6 372.067 295.6 373.262 295.6 374.458C295.6 375.653 295.6 376.251 295.6 377.446C295.6 387.607 297.988 396.572 302.765 403.147C307.541 409.721 313.512 413.905 321.273 415.1H323.064C324.259 415.1 325.453 414.503 326.647 413.307C327.841 412.112 329.632 409.123 332.02 404.342C336.2 396.572 340.379 391.193 344.559 388.802C348.141 387.009 351.723 385.814 355.306 385.814C360.679 385.814 365.456 388.204 369.635 392.388C373.814 396.572 375.605 401.951 375.605 408.526C375.605 415.1 372.023 424.066 365.455 434.824C358.291 445.582 352.32 452.754 345.753 456.341C342.767 457.536 337.394 458.731 329.632 459.927C324.259 460.524 320.079 460.524 317.691 460.524C302.765 460.524 290.226 456.341 279.479 447.973C269.329 439.605 262.165 427.652 257.985 412.112C256.194 404.94 255 395.377 255 384.618C255 374.458 256.194 364.297 257.985 355.332C265.15 321.263 278.882 299.747 297.988 290.184Z" fill="#8A84B7"/>
<path d="M391.135 163.988C396.509 162.195 400.091 161 401.882 161C404.27 161 407.853 162.195 412.629 163.988C416.809 166.379 420.391 169.965 422.779 174.149C425.167 178.931 426.362 195.068 426.362 223.757C426.362 269.779 428.153 305.64 431.138 332.536L432.929 347.478L439.497 341.501C443.676 337.915 448.453 335.524 453.826 335.524C470.544 335.524 478.306 344.49 478.306 361.823C478.306 383.339 469.947 398.281 452.632 406.051C445.467 409.04 438.9 410.833 432.929 410.833C409.644 410.833 393.523 389.316 384.568 346.283C381.582 331.938 379.791 318.789 379.194 306.238C378.597 293.686 378 271.572 378 239.895C378 209.413 378 190.884 378.597 184.907C378.597 178.931 379.791 174.149 380.985 171.758C382.776 168.77 386.359 166.379 391.135 163.988Z" fill="#8A84B7"/>
<path d="M468.614 199.37C471.321 197.18 474.786 196.09 478.334 195.592C486.611 194.431 493.022 197.153 497.483 203.166C499.672 205.876 501.436 209.853 502.184 215.18C502.599 218.14 504.074 237.246 507.366 273.6C509.33 300.484 509.798 316.714 509.954 322.124C509.519 327.617 507.736 332.092 504.012 335.632C501.979 338.332 497.923 339.504 492.602 340.251C484.324 341.412 477.913 338.691 472.104 331.66C469.998 329.541 468.825 325.481 468.161 320.746C467.579 316.602 466.925 307.641 465.606 293.945C465.025 289.802 464.37 280.84 463.476 265.877C461.991 250.997 461.254 241.444 461.098 236.034C460.37 222.255 460.307 213.21 460.991 209.493C461.084 205.859 463.625 202.484 468.614 199.37ZM468.016 130.651C468.016 130.651 468.607 130.568 469.789 130.402C470.972 130.236 471.563 130.153 472.155 130.07C478.658 129.157 484.312 130.778 489.032 134.341C493.752 137.903 496.357 143.573 497.27 150.084C497.602 152.451 497.426 155.494 496.908 160.395C495.882 165.971 494.098 170.446 490.375 173.986C487.242 177.443 482.678 179.291 477.948 179.954C470.853 180.95 465.116 178.737 459.639 174.074C456.184 170.937 453.746 166.451 452.915 160.532C452.002 154.021 452.945 147.854 455.662 141.437C459.054 135.529 462.777 131.989 468.016 130.651Z" fill="#8A84B7"/>
<path d="M533.747 200.586C537.329 198.195 541.509 197 545.091 197C554.047 197 560.018 200.586 563.6 207.758C565.391 211.344 566.585 219.114 567.779 231.068L568.376 248.999L573.153 240.631C579.72 229.275 586.288 222.103 594.05 218.517C598.229 216.724 601.812 215.528 605.394 215.528C605.991 215.528 606.588 215.528 607.782 215.528C608.976 215.528 609.573 215.528 610.767 215.528C622.111 216.126 631.664 220.907 640.62 229.275C649.576 237.643 656.144 248.999 660.92 263.941C665.697 278.285 668.085 300.997 668.682 333.272C668.682 340.445 669.279 348.812 669.279 357.18C669.279 364.95 668.085 370.927 666.294 374.513C662.114 382.88 655.547 387.064 646.591 387.064C639.426 387.064 633.456 383.478 628.082 376.904C626.291 374.513 625.097 370.329 625.097 363.754V356.582V352.398C625.097 321.319 623.306 298.607 619.723 284.262C618.529 279.481 617.335 274.102 614.947 269.32C612.559 264.539 611.364 262.148 610.17 262.148C606.588 262.148 602.409 276.492 597.632 305.181C594.05 326.698 590.467 341.64 586.885 350.008C583.303 358.375 578.526 364.352 571.959 367.938C568.376 370.329 564.197 370.927 560.615 370.927C555.241 370.927 550.465 369.134 547.479 366.145C539.718 358.973 533.747 343.433 529.568 321.319C525.388 298.607 523 270.515 523 237.045C523 223.896 523.597 215.528 524.791 211.344C525.985 207.161 528.971 203.575 533.747 200.586Z" fill="#8A84B7"/>
<path d="M763.888 166.747C771.053 157.781 778.217 153 785.382 153C788.367 153 791.353 154.195 793.144 155.988C795.532 157.781 797.92 160.77 799.711 164.356C801.503 167.344 802.1 170.333 802.697 173.919C802.697 177.505 803.294 186.47 803.294 202.01C803.294 231.895 800.308 259.986 795.532 287.479C790.755 314.973 784.785 334.099 777.62 345.455C772.844 352.627 766.873 358.006 759.111 362.19C751.35 366.374 742.991 368.765 734.035 368.765C723.885 368.765 714.929 365.776 707.167 359.799C702.391 356.213 698.809 350.834 695.226 343.662C691.644 336.49 689.853 329.915 689.853 323.938C689.853 323.938 689.853 323.341 689.853 322.145C689.853 321.548 689.853 320.95 689.853 320.352C691.047 315.571 693.435 311.387 697.615 307.801C701.794 304.812 706.57 303.019 711.944 303.019C716.72 303.019 721.497 304.812 726.273 308.996C731.05 313.18 732.841 317.364 732.841 321.548C732.841 323.341 732.841 324.536 733.438 324.536C734.035 324.536 734.632 324.536 735.826 323.938C740.006 322.743 743.588 316.766 747.17 305.41C751.947 287.479 754.335 273.135 754.335 262.377C754.335 261.181 753.141 261.181 751.35 262.377C749.559 263.572 746.573 265.365 743.588 267.158C740.603 269.549 738.811 270.744 737.617 271.342C728.064 276.721 718.512 279.71 708.362 279.71C695.226 279.71 683.882 274.33 674.926 262.974C665.971 251.618 661.194 236.676 660 217.55V208.585C660 203.206 660.597 198.424 662.388 194.24C669.553 175.712 686.27 166.149 713.735 166.149C721.497 166.149 731.05 167.344 742.394 169.138L757.32 172.126L763.888 166.747ZM731.05 210.378C728.662 209.78 726.273 209.78 722.094 209.78C716.123 209.78 711.347 210.976 707.765 213.366C704.182 215.757 701.794 218.745 701.794 221.734C701.794 224.722 702.988 227.711 705.973 230.699C708.959 233.688 711.944 234.883 714.929 234.285C720.9 233.09 726.87 227.711 731.647 218.148L735.229 211.573L731.05 210.378Z" fill="#8A84B7"/>
<path d="M43.5851 271.184C48.9587 268.793 53.7351 267 58.5116 267H65.0792C77.6174 267 90.1556 272.379 101.5 282.54C111.053 290.31 116.426 298.08 117.023 305.252V307.643C117.023 313.62 115.232 318.999 111.65 322.585C108.067 326.769 103.291 328.562 97.3203 328.562C93.7379 328.562 90.1556 327.964 86.5732 326.171C82.9909 324.976 80.6027 323.183 80.0056 321.389C79.4085 319.596 77.6174 317.803 74.035 316.01C70.4527 314.217 67.4674 313.62 64.4821 313.62C59.1086 313.62 54.3322 317.803 49.5557 325.573C44.1822 333.343 41.794 342.308 40.5999 352.469C40.5999 353.067 40.5999 354.262 40.5999 355.458C40.5999 356.653 40.5999 357.251 40.5999 358.446C40.5999 368.607 42.9881 377.572 47.7645 384.147C52.541 390.721 58.5116 394.905 66.2733 396.1H68.0645C69.2586 396.1 70.4527 395.503 71.6468 394.307C72.8409 393.112 74.6321 390.123 77.0203 385.342C81.1997 377.572 85.3791 372.193 89.5585 369.802C93.1409 368.009 96.7232 366.814 100.306 366.814C105.679 366.814 110.456 369.204 114.635 373.388C118.814 377.572 120.605 382.951 120.605 389.526C120.605 396.1 117.023 405.066 110.456 415.824C103.291 426.582 97.3203 433.754 90.7526 437.341C87.7673 438.536 82.3938 439.731 74.6321 440.927C69.2586 441.524 65.0792 441.524 62.691 441.524C47.7645 441.524 35.2263 437.341 24.4793 428.973C14.3294 420.605 7.16468 408.652 2.98528 393.112C1.19411 384.744 0 375.779 0 365.021C0 354.86 1.19411 344.699 2.98528 335.734C10.747 302.263 23.8823 280.747 43.5851 271.184Z" fill="#8A84B7"/>
</svg>
