<svg width="118" height="202" viewBox="0 0 118 202" fill="none" xmlns="http://www.w3.org/2000/svg">
<path d="M61.8136 201.638C55.2844 201.638 48.6034 200.574 43.1371 196.927C31.5971 189.026 29.9268 175.199 29.1676 164.258C25.9789 162.587 24.005 160.155 22.9421 158.332L22.3347 158.788V157.268C19.9052 152.254 19.6015 146.328 19.4497 142.073L19.2978 139.338C18.9942 135.691 18.5386 128.702 23.5494 123.687C26.7381 120.496 30.9897 118.521 35.3931 117.305C34.7857 114.114 34.3302 111.075 33.8747 108.036V107.58C32.9636 102.262 31.9007 95.4243 31.1415 88.2826C23.2457 84.3318 16.261 77.646 12.3131 73.3914C6.99864 67.6172 0.165741 58.8041 0.773109 47.4077L1.68417 42.3934C3.05075 37.6829 6.08758 33.2763 10.1873 30.3892L20.3607 26.7424C20.6644 26.7424 20.9681 26.7424 21.2718 26.7424C25.3715 26.7424 29.3194 27.958 32.6599 29.7814C34.6339 21.5761 38.2781 12.7629 45.8702 6.83683C48.6034 4.70952 51.9439 2.73415 55.5881 1.51855L60.447 0.454891C63.332 0.150989 66.217 0.30294 68.9502 1.21465L77.1497 6.98878C82.7678 13.3707 84.5899 22.1839 85.9565 28.4139C87.0194 33.5802 87.9305 38.7465 88.6897 44.6726C92.0302 43.3051 95.8262 42.5453 99.7741 42.6973C101.293 42.6973 102.659 43.0012 104.026 43.457L111.77 48.3195C111.921 48.4714 111.922 48.4714 112.073 48.6234C113.895 50.5987 115.414 53.0299 116.477 55.765L117.843 62.147C117.843 62.7548 117.843 63.2106 117.843 63.8185C117.236 79.1655 103.722 91.9294 91.7265 98.3113C91.7265 102.87 91.8784 107.58 91.7265 112.747C101.9 114.114 106.911 119.129 108.581 129.309C109.948 134.324 112.529 145.568 106.607 153.318C107.822 160.155 108.277 166.081 108.125 171.552V172.008C107.974 176.718 107.822 183.708 103.418 189.026C95.9781 198.143 82.4641 199.815 75.3276 200.726C71.5315 201.03 66.8244 201.638 61.8136 201.638Z" fill="white"/>
<path d="M99.6222 51.9663C92.6375 51.6624 86.2602 56.069 81.0975 60.6275C80.3383 50.4468 79.2754 40.2661 77.1496 30.3893C75.7831 24.1593 73.961 15.4981 68.4946 11.3954C63.4839 7.59662 56.0436 10.7876 51.6402 14.1305C44.8073 19.4488 42.226 29.1737 40.7075 37.2271C40.252 39.9622 39.7965 42.8493 39.4928 45.7363C34.1783 41.6336 27.801 35.8595 21.2718 36.0115C15.5018 36.1634 10.7947 42.0895 10.3391 47.7117C9.73177 55.4612 14.4389 61.8431 19.2978 67.1614C24.1568 72.4797 32.5081 79.9253 39.7965 81.7487C40.7075 89.9541 41.7705 98.1594 43.137 106.061C44.1999 112.291 45.111 118.673 46.7812 124.751C40.5557 125.359 33.8747 126.726 30.3823 130.221C28.1047 132.5 28.712 137.059 28.8639 139.946C29.0157 143.897 29.0157 149.519 30.8378 153.166C32.3562 156.053 35.0894 156.964 38.1262 157.116C38.8854 167.753 38.4299 182.492 48.4515 189.178C55.2844 193.737 66.8244 192.217 74.4165 191.305C81.5531 190.394 91.5746 188.874 96.5854 182.948C99.0149 179.909 99.1667 174.743 99.1667 171.096C99.3186 164.106 98.2557 156.661 96.7373 149.671C103.266 146.328 101.293 137.059 99.7741 131.133C99.7741 131.133 99.7741 131.133 99.7741 130.981C98.7112 124.447 96.8891 122.32 90.0562 121.56C87.6267 121.256 85.1973 121.256 82.616 121.256C82.7678 111.531 82.7678 101.806 82.4641 92.0814C93.8523 87.9787 108.277 75.6707 108.733 63.2107C108.885 58.0444 105.089 52.1183 99.6222 51.9663ZM81.7049 73.3914C84.8936 71.1121 87.6267 67.9212 90.5117 65.4899C94.4596 62.147 98.2557 60.1717 102.659 58.0444C102.963 58.5002 103.266 59.108 103.418 59.7158C99.9259 63.6665 97.0409 68.0731 92.9412 71.7199C89.7525 74.4551 85.0454 76.8863 82.0086 80.0772C82.0086 77.798 81.8567 75.6707 81.7049 73.3914ZM101.293 56.8287C97.8002 57.7405 94.3078 60.6275 91.8783 62.6029C88.5378 65.186 84.5899 68.2251 81.5531 71.568C81.4012 69.5926 81.4012 67.7692 81.2494 65.7939C85.6528 61.8431 90.5118 58.1963 96.2817 56.6768C98.5594 55.917 100.078 56.069 101.293 56.8287ZM63.4839 13.5227C63.9394 13.5227 64.2431 13.5227 64.5467 13.5227C66.0652 49.687 69.7094 85.6994 70.0131 122.016C65.9133 122.472 61.9654 123.079 58.0175 123.535C54.677 102.718 53.4623 80.685 53.4623 59.5639C53.4623 45.4324 52.8549 25.8307 61.3581 13.6747C61.9654 13.6747 62.7246 13.5227 63.4839 13.5227ZM16.8684 43.0012C21.7273 45.2805 25.9789 47.7117 30.2305 51.2066C32.9636 53.6378 35.5449 56.8287 38.5818 59.108C38.5818 62.6029 38.5818 66.2497 38.7336 69.7446C37.8225 69.2887 36.9115 68.8329 36.1523 68.377C32.8118 66.4017 29.9268 64.1224 27.0418 61.5392C21.4236 56.6768 17.9312 51.0546 15.9573 44.2168C16.261 43.761 16.5647 43.3051 16.8684 43.0012ZM25.6752 41.7856C30.3823 44.0649 34.6339 47.4078 38.8854 50.4468C38.7336 52.4222 38.5818 54.3975 38.5818 56.5248C35.6968 53.3339 31.9007 50.5988 28.712 48.1675C25.5234 45.5844 21.7273 43.1532 17.7794 42.2415C19.9052 40.7219 22.4865 40.418 25.6752 41.7856ZM27.801 69.1368C22.6383 65.0341 17.9312 60.0197 15.3499 53.9417C14.287 51.3585 14.287 48.6234 15.0463 46.3441C16.1091 51.6624 20.057 56.6768 23.5494 60.4756C27.0418 64.2743 33.2673 70.5043 39.0373 72.1758C39.1891 73.5434 39.1891 75.0629 39.341 76.4304C35.5449 73.9992 31.2933 71.8719 27.801 69.1368ZM42.8333 65.9458C42.3778 51.6624 41.6186 20.0566 59.0804 14.2825C56.1954 17.7773 55.1325 23.0956 54.2215 27.3503C52.5512 36.0115 52.0957 45.1285 51.6402 53.9417C51.0328 66.2497 51.9439 78.5577 52.8549 90.7138C53.766 101.654 54.2215 112.747 55.8918 123.687C54.0697 123.839 52.0957 123.991 49.9699 124.295C46.9331 104.845 43.4407 85.6994 42.8333 65.9458ZM97.4965 137.515C92.7894 136.451 88.386 137.515 83.6789 139.186C75.9349 141.769 69.2539 138.426 61.3581 139.338C54.9807 140.098 50.4254 145.112 43.5925 144.96C39.4928 144.808 36.0005 143.745 32.8118 146.024C32.5081 144.504 32.3562 142.833 32.3562 141.162C35.6968 139.794 38.8854 139.49 42.6815 140.402C44.1999 140.706 46.022 141.01 47.5404 140.706C54.0697 139.338 57.4102 133.868 64.8504 135.387C69.8612 136.451 73.0499 137.819 78.0607 136.147C80.642 135.235 83.2233 133.564 85.6528 132.5C89.297 130.981 93.2449 132.196 96.8891 132.956C97.041 134.324 97.3446 135.995 97.4965 137.515ZM93.8523 180.061C91.5746 185.379 80.0346 186.595 75.3275 187.355C67.8873 188.57 59.6878 189.026 52.3994 186.899C41.7704 183.708 42.5297 166.082 41.4668 156.964C42.0741 156.964 42.5297 156.812 43.137 156.812C52.0957 155.901 61.0544 154.837 70.0131 153.925C77.6052 153.014 85.8046 152.862 93.2449 150.886C94.3078 160.003 97.6483 171.248 93.8523 180.061ZM87.6267 147.999C81.2494 148.759 74.872 149.519 68.4946 150.279C58.9286 151.342 49.3625 152.71 39.7965 153.318C36.1523 153.47 34.1784 150.886 33.2673 147.392C38.1262 146.48 42.9852 147.695 47.996 147.24C53.6141 146.632 58.1694 142.225 63.7875 141.465C69.2538 140.858 74.4165 144.049 80.0346 142.681C83.0715 141.921 85.9565 140.858 88.8415 140.098C91.8783 139.186 94.7633 139.642 97.8002 139.642C97.8002 140.098 97.8002 140.706 97.8002 141.162C97.8002 146.936 91.8783 147.392 87.6267 147.999ZM92.6375 125.814C95.5225 126.27 95.9781 128.246 96.4336 130.373C91.8783 129.005 87.4749 129.005 82.9196 130.829C78.0607 132.804 75.3275 135.235 69.5575 134.02C66.5207 133.412 63.9394 132.348 60.7507 132.196C53.9178 131.893 50.7291 139.034 43.2889 137.819C38.7336 137.059 35.6968 136.603 32.3562 139.186C32.3562 137.211 32.5081 135.235 32.8118 133.868C33.571 129.005 52.2476 128.246 56.0436 127.638C64.2431 126.422 72.4425 125.511 80.642 125.207C84.5899 125.055 88.6896 125.207 92.6375 125.814ZM72.1388 121.712C71.8352 85.6994 68.4947 49.839 65.9133 13.9786C70.4686 16.4098 72.2907 26.5905 73.0499 30.0854C75.6312 41.1778 76.5423 52.7261 77.3015 64.1224C77.1496 64.5782 77.1496 64.8821 77.4533 65.338V65.4899C78.6681 84.028 77.9088 102.718 79.2754 121.256C76.8459 121.408 74.5683 121.56 72.1388 121.712ZM102.507 69.4407C98.2557 77.9499 89.9044 83.1163 82.1604 88.1306C82.1604 86.0033 82.0086 84.028 82.0086 81.9007C86.412 80.2292 90.8154 75.6707 94.0041 72.7836C97.3446 69.8965 101.293 66.0978 103.722 61.9951C104.178 64.5782 103.57 67.4653 102.507 69.4407Z" fill="#8A84B7"/>
</svg>
