<svg width="716" height="609" viewBox="0 0 716 609" fill="none" xmlns="http://www.w3.org/2000/svg">
<path d="M39.6368 14.6548C44.7281 7.15972 52.0822 3.41217 61.4162 3.41217C64.5275 3.41217 68.2045 4.27699 72.4473 6.00663C78.1042 8.02454 86.024 8.88936 96.2065 8.88936H102.429H105.823C143.159 8.88936 170.03 17.8258 186.435 35.987C192.941 43.1938 197.466 50.6889 200.012 58.4723C202.558 67.1205 203.972 76.057 203.972 85.57C203.972 94.7947 203.123 102.866 201.143 110.073C196.335 129.099 186.718 146.107 172.576 161.097C154.473 179.835 133.825 189.06 110.349 189.06H104.692L88.2868 188.195L88.8525 223.076L89.701 258.534L84.0441 264.876C78.6699 271.506 71.3159 274.677 62.2647 274.677C50.3851 274.677 42.7482 269.2 39.0711 258.534C38.5054 255.939 37.6569 215.005 37.0912 136.306C37.0912 121.892 37.0912 105.749 36.8084 87.5879C36.5255 69.715 36.5255 58.4723 36.5255 54.7248C36.2427 31.0864 37.374 17.8258 39.6368 14.6548ZM136.654 67.697C129.3 64.2378 119.683 62.2199 108.086 61.9316H100.449C93.0952 61.9316 89.1353 62.2199 88.2868 62.7964C87.4382 63.373 86.8725 74.0391 86.8725 94.7947V125.352L91.681 128.234C93.6609 129.964 97.3379 130.829 102.712 130.829H108.086C122.511 129.964 133.825 125.063 142.311 116.703C149.948 108.92 153.908 100.848 153.908 92.4885C153.908 81.5342 148.251 73.4625 136.654 67.697Z" fill="#8A84B7"/>
<path d="M315.372 160.487C324.796 156.23 332.127 154.633 337.363 155.431H337.886C339.457 155.697 341.551 157.56 344.169 160.753C347.049 164.212 348.62 167.139 349.405 170.066C350.452 174.057 349.929 184.168 347.049 200.931C345.216 212.373 343.384 221.154 341.29 227.274C339.457 233.659 334.483 246.165 326.891 265.057C316.943 289.803 310.921 305.236 308.827 311.621C306.994 317.209 303.591 321.2 298.879 323.861C294.166 326.522 288.931 327.32 283.433 326.256C276.103 324.926 270.343 321.2 265.893 314.548C263.013 309.759 262.227 304.437 263.013 298.85L264.584 289.803L256.468 292.197C250.447 294.06 242.593 294.06 232.906 292.464C222.958 290.867 215.628 288.206 210.654 284.481C200.182 277.297 192.066 266.388 186.83 252.285C181.333 238.183 179.762 223.016 181.333 206.785L182.38 199.601C187.092 170.864 201.491 153.303 225.576 146.119C231.597 144.256 242.593 144.788 258.301 147.449C273.746 150.11 285.789 153.569 293.643 157.56L306.471 164.212L315.372 160.487ZM273.485 203.592C266.678 200.399 260.395 198.271 254.112 197.206C241.022 195.078 231.859 199.069 227.147 209.18C226.1 211.575 225.576 213.171 225.314 214.502C224.267 220.089 225.576 225.677 228.456 230.733C231.597 235.788 235.263 239.247 239.975 240.844L242.069 241.11C249.138 242.174 258.039 238.981 269.034 230.999C273.485 227.806 276.103 225.411 277.15 223.814C278.197 222.218 278.982 219.557 279.506 215.832L280.815 207.85L273.485 203.592Z" fill="#8A84B7"/>
<path d="M407.49 8.53033C411.632 8.53033 413.999 8.53033 415.182 8.53033C417.845 8.8309 421.986 10.9348 427.607 14.5416C435.003 19.6511 439.145 25.963 439.737 32.8759L449.795 30.772C464.883 26.5641 481.745 25.963 500.087 28.668C500.679 28.668 501.862 28.9686 503.046 29.2691C504.229 29.5697 505.116 29.8703 505.412 29.8703C539.433 38.8872 554.817 62.331 551.859 100.202L550.971 106.814C548.309 126.651 540.913 144.685 529.375 160.916C517.542 177.146 503.933 187.365 488.55 192.174C480.858 194.579 472.279 195.18 462.812 193.677C453.049 192.174 445.949 190.07 440.92 187.064L432.637 183.458C431.453 191.272 430.27 205.399 428.791 226.438C427.016 248.98 425.832 262.806 424.945 268.216C424.353 271.823 424.057 274.228 423.466 274.829C421.395 281.141 417.253 285.649 411.928 288.955C406.307 292.261 400.39 293.163 394.178 292.261C389.444 291.66 385.303 289.857 381.161 287.452C374.949 282.643 371.694 276.933 370.807 269.719C370.215 262.506 371.103 242.969 373.765 210.809C377.611 158.511 379.978 118.837 381.457 91.7862C383.232 57.2215 384.415 36.4827 385.599 29.2691C385.599 28.668 385.894 27.7663 385.894 26.8647L386.486 25.3618C387.669 22.0557 390.628 18.7495 395.657 15.1427C400.39 10.9348 404.532 8.8309 407.49 8.53033ZM495.946 91.185C493.579 88.1794 489.437 86.0755 483.52 85.1738C475.237 83.9715 463.699 85.4743 448.908 89.6822L438.257 92.6878L437.074 101.705C436.187 107.716 437.074 111.022 439.441 111.323C441.807 111.623 445.358 114.629 450.387 120.64C457.191 128.455 462.516 132.663 466.362 133.264C467.249 133.264 469.024 133.264 471.095 132.963C477.308 131.46 483.225 127.553 488.845 120.941C494.17 114.328 497.425 108.017 498.312 101.705C498.608 97.1963 498.016 93.8901 495.946 91.185Z" fill="#8A84B7"/>
<path d="M548.959 190.376C551.566 189.051 555.999 188.521 562.257 188.521C572.426 188.521 581.292 190.111 589.375 193.027C595.112 195.412 601.369 199.388 608.67 204.69C615.971 209.991 621.969 215.557 626.662 220.859C637.614 233.847 643.089 246.305 643.089 258.233C643.089 264.33 641.525 269.896 638.135 274.932C627.705 290.571 603.195 301.704 564.343 308.331C553.131 310.186 547.394 311.777 547.394 313.367C547.394 313.897 547.655 314.692 547.916 315.223C549.22 318.934 553.652 322.114 561.475 324.765C569.297 327.416 576.859 328.741 583.899 328.741C590.157 328.741 594.329 327.681 596.676 325.56C598.24 324.765 599.023 322.379 599.023 318.668C599.023 315.753 600.848 312.307 604.238 308.331C607.627 304.355 611.278 301.704 615.189 300.114C617.275 299.319 619.622 298.788 622.229 298.788C627.184 298.788 631.877 300.379 636.571 303.295C641.003 306.21 643.872 310.186 645.436 314.692C646.218 317.343 646.74 320.524 646.74 323.705C646.74 330.331 645.175 337.223 641.786 344.38C638.396 351.537 634.485 357.368 629.27 361.874C622.751 367.706 616.232 371.417 609.974 373.272C603.716 375.128 594.069 376.188 581.813 376.188C569.558 376.188 559.91 375.393 552.609 373.537C545.308 371.682 537.486 368.236 528.881 362.67C522.102 358.429 517.148 354.718 514.019 351.537C510.89 348.356 507.761 343.585 504.371 336.958C494.984 318.403 490.03 299.054 490.03 279.173C490.03 250.811 498.895 227.75 516.626 209.726C524.97 201.774 535.661 195.147 548.959 190.376ZM576.859 243.654C572.687 241.534 568.515 240.474 564.082 240.474C552.609 240.474 545.308 246.305 542.18 257.703C541.658 260.089 541.397 261.414 541.919 261.679C542.44 261.944 544.265 262.209 547.916 262.209C561.475 262.209 573.73 260.354 584.421 256.908L590.679 255.052L587.55 251.076C584.682 247.896 581.031 245.51 576.859 243.654Z" fill="#8A84B7"/>
<path d="M583.228 4.03605C586.359 1.64432 590.795 0.315576 596.274 0.0498278C602.276 -0.21592 606.712 0.581324 610.104 2.44156C612.974 4.03605 615.583 6.69353 617.932 10.6798C620.28 14.4002 621.585 17.8549 621.846 20.7782C621.846 22.6384 622.368 23.4357 622.89 22.9042C623.411 22.9042 625.238 21.3097 628.108 18.3864C636.98 9.35101 648.722 4.3018 663.334 3.50455C672.467 2.97306 680.034 4.03605 686.296 6.69353C701.952 13.8687 711.346 30.3451 714.477 55.8569C714.999 58.7801 715.26 62.2349 715.521 65.6896C715.782 69.6758 714.738 73.1305 712.129 76.3195C707.171 83.229 700.908 86.9494 693.08 87.4809L689.949 87.7467C683.426 87.4809 677.946 85.0892 673.771 80.3057C669.596 75.5223 667.248 69.6758 666.726 62.2349C666.465 58.2486 666.204 56.3884 665.422 56.3884C665.161 56.1227 664.639 56.3884 663.595 57.4514C658.637 61.9691 655.245 69.9416 653.941 81.103C653.419 85.8864 653.158 99.9711 653.158 122.825C653.68 140.631 653.419 152.058 652.375 157.373C651.592 162.688 648.983 167.205 644.808 171.457C639.589 177.038 634.371 179.696 629.674 179.961C616.888 180.759 605.407 165.079 594.97 133.19C588.185 111.664 582.445 87.4809 577.748 60.6404C575.4 46.29 574.095 36.1916 573.834 30.0794C573.312 17.5892 576.183 8.81951 583.228 4.03605Z" fill="#8A84B7"/>
<path d="M92.9266 334.482C95.2759 332.626 98.6693 331.83 103.107 331.83H107.544C111.982 332.096 115.114 332.626 117.202 332.891C119.03 333.421 121.379 336.073 124.25 340.846C127.122 345.62 129.471 351.188 131.82 357.818C134.169 364.182 137.563 375.585 142.783 392.026C153.225 424.908 164.971 460.972 178.283 500.484C191.074 537.874 197.339 559.354 197.339 564.657V567.309C196.555 572.347 194.206 576.855 190.552 580.568C186.897 584.28 182.721 586.667 178.022 587.463H174.89C165.493 587.463 158.445 584.28 154.008 577.651C152.18 574.469 148.787 565.188 143.305 550.603C139.39 539.2 136.78 532.305 135.474 530.184C134.169 528.063 132.081 526.471 128.949 525.146C119.291 521.433 106.5 519.842 91.0994 519.842H85.3568L66.3016 520.372L57.4266 540.791C51.4229 554.58 48.2905 563.862 47.7685 568.37C46.9854 579.242 43.0699 586.932 36.2831 591.44C32.3677 594.092 27.9302 595.418 22.9706 595.418C14.0956 595.418 7.30884 591.705 2.6103 584.015C0.78309 581.363 0 577.651 0 572.613C0 558.823 14.8787 513.743 44.3751 437.902C60.0369 396.534 68.6508 373.994 70.217 370.016C72.5663 363.387 75.1766 358.613 77.7869 355.962C80.6582 353.045 82.2244 350.923 82.2244 349.597C82.2244 347.476 83.5296 344.824 85.8788 341.377C88.2281 338.195 90.5774 335.808 92.9266 334.482ZM111.982 466.806C112.504 464.95 112.765 463.624 112.765 462.829C112.765 460.442 111.199 454.608 108.327 445.327L102.585 428.09L95.798 448.509C91.0994 461.768 88.7501 468.928 88.7501 470.254C88.7501 470.784 92.4046 471.049 99.4524 471.049C104.151 471.049 107.283 470.784 108.588 470.254C110.155 469.723 111.199 468.662 111.982 466.806Z" fill="#625E99"/>
<path d="M202.577 336.408C206.23 334.8 211.328 334.595 217.053 335.643C223.323 336.791 227.767 338.743 230.929 341.6C233.321 344.03 235.522 347.565 237.035 351.827C238.772 356.415 239.242 360.201 238.717 363.236C238.383 365.167 238.512 366.045 239.105 365.869C239.651 365.969 241.798 364.939 245.274 362.729C256.616 355.697 269.92 353.579 285.187 356.375C294.728 358.122 302.348 361.225 308.093 365.409C322.425 376.857 328.141 395.837 325.419 422.95C325.167 426.035 324.819 429.671 324.15 433.534C323.434 437.673 321.451 441.01 318.199 443.546C311.554 449.445 304.165 451.508 295.987 450.01L292.715 449.411C285.995 447.611 281.068 443.577 277.613 437.536C274.431 431.545 273.348 424.8 274.637 417.35C275.353 413.212 275.414 411.231 274.869 411.131C274.644 410.805 274.051 410.981 272.818 411.609C266.601 415.025 261.128 422.278 256.942 433.466C255.265 438.283 251.692 452.43 246.176 476.185C242.432 494.571 239.289 506.235 237.244 511.554C234.974 516.546 231.436 520.737 226.085 524.027C219.181 528.171 213.524 529.982 208.344 529.033C194.986 526.587 186.72 507.71 183.595 472.126C181.56 448.127 181.59 421.945 183.412 393.529C184.402 378.054 185.398 367.42 186.496 361.074C189.108 347.604 194.452 339.474 202.577 336.408Z" fill="#625E99"/>
<path d="M379.44 317.684C383.937 314.604 389.034 313.064 394.73 313.064C404.924 313.064 413.019 317.376 418.715 325.692C421.714 330.004 423.512 340.785 423.812 358.342L424.412 384.523L431.607 385.447C437.004 386.063 444.799 386.371 454.993 386.371C472.082 386.371 483.475 390.991 489.172 399.924C491.87 404.236 493.369 409.164 493.369 415.017C493.369 426.721 488.872 435.038 480.177 440.89C476.28 443.046 469.984 443.97 460.689 443.97H449.596L425.611 443.354L427.11 462.759C428.609 480.008 431.008 497.873 434.606 516.662C438.203 535.451 441.201 544.691 443.6 544.691C447.198 544.691 450.496 539.763 453.194 529.906C454.693 524.362 455.293 517.278 455.293 508.961C455.293 500.337 456.792 493.561 459.79 488.94C465.487 479.7 473.282 475.388 483.176 475.388C493.069 475.388 500.865 480.008 506.561 488.94C509.26 492.945 510.759 500.645 510.759 512.658C510.759 551.775 497.567 580.113 471.483 597.054C459.49 604.754 448.697 608.758 438.803 608.758C426.81 608.758 416.916 603.83 408.522 593.666C389.933 570.256 377.341 524.054 371.345 455.059L369.846 439.966H362.65C358.153 439.966 353.955 438.426 349.758 435.654C345.56 432.882 342.263 429.493 340.164 425.797C338.365 422.409 337.465 418.097 337.465 413.477C337.465 404.236 339.564 397.768 343.462 393.456C349.458 386.371 355.754 382.983 362.35 382.983C364.149 382.983 365.048 381.751 365.348 379.595C365.648 377.439 365.948 370.662 365.948 359.266C365.948 345.713 366.847 336.165 368.646 330.928C370.445 325.692 374.043 321.38 379.44 317.684Z" fill="#625E99"/>
</svg>
