<svg width="119" height="103" viewBox="0 0 119 103" fill="none" xmlns="http://www.w3.org/2000/svg">
<g clip-path="url(#clip0_17_1127)">
<path d="M118.518 40.4219C118.404 30.1564 113.404 20.4611 105.678 16.0127C102.042 13.8456 97.951 12.9331 93.8604 13.2753L93.974 12.5909L93.2923 12.9331C92.8378 12.1346 92.2696 11.4503 91.5879 10.6518C85.3384 3.12377 74.0893 2.09722 66.5898 1.41285L65.5672 1.29879C55.3407 0.272234 45.2279 0.842542 37.5012 1.41285C29.4337 1.98316 18.7527 5.63313 12.6168 13.7315C9.43525 18.0658 9.54888 22.4002 10.9124 25.5939C11.7078 34.4907 12.6168 41.6766 13.6395 48.4062L13.7531 49.5469C14.5485 54.9077 15.3439 60.7249 16.9347 66.428C10.7988 68.5951 3.64025 72.5873 1.14045 79.0888C-0.677589 83.6513 0.345058 88.67 3.86751 92.7762C10.0034 99.848 21.4798 100.989 29.8882 101.787C31.0245 101.901 32.0471 102.015 32.9561 102.129C37.9557 102.7 43.069 103.042 48.7503 103.042C53.7499 103.042 59.2041 102.814 65.2263 102.357C72.2712 101.787 78.1798 101.103 83.5203 100.076L84.4293 99.9621C91.7015 98.5933 106.7 95.7418 108.518 84.7919C109.2 80.7997 108.064 76.8076 105.223 73.6139C103.86 72.017 102.155 70.7623 100.337 69.6217C102.042 68.9373 103.746 68.1389 105.337 67.1123C113.745 61.4093 118.631 51.6 118.518 40.4219ZM79.7706 82.5107C79.8842 82.3966 79.8842 82.3966 79.9979 82.2825C80.2251 82.2825 80.3388 82.3966 80.566 82.3966C80.2251 82.3966 79.9979 82.5107 79.7706 82.5107Z" fill="white"/>
<path d="M81.8159 61.6374C97.6101 68.8233 111.359 57.075 111.245 40.536C111.132 27.1908 100.451 15.6706 88.179 22.5143C88.179 22.4002 88.179 22.4002 88.179 22.2862C88.7471 20.4612 88.179 18.18 85.9064 15.3284C81.3613 9.7394 71.3621 9.05503 64.8854 8.48472C56.0224 7.68629 46.9322 8.02847 38.0693 8.71284C31.0244 9.28315 22.8432 12.2488 18.5254 18.0659C16.821 20.2331 17.0482 22.0581 18.0709 23.4268C18.7526 31.4111 19.6617 39.3954 20.7979 47.3797C21.9342 55.364 23.1841 64.1468 26.4793 71.5608C18.639 72.4733 1.82216 79.431 9.32157 87.9857C14.2075 93.6887 26.8202 94.0309 33.7515 94.8294C43.9779 95.97 54.4316 95.7419 64.6581 94.9434C70.4531 94.4872 76.3617 93.8028 82.1567 92.7763C86.7018 91.8638 100.337 89.6966 101.36 83.4232C102.837 74.8686 85.7928 70.8764 78.5207 71.1045C79.3161 69.3936 79.9978 67.6827 80.5659 65.8577C81.0205 64.489 81.475 63.1202 81.8159 61.6374ZM86.9291 35.8595C89.3153 34.1486 91.4742 33.122 94.6557 33.9205C98.2918 34.833 100.11 38.2548 99.9962 41.6767C99.9962 45.2126 97.2692 48.1782 94.3149 49.661C90.9061 51.486 87.8381 50.2313 84.8838 48.5203C85.6792 44.4141 86.361 40.0798 86.9291 35.8595ZM102.382 26.5065C106.132 29.9283 107.382 35.6314 107.609 40.536C107.837 45.8969 106.359 51.6 102.723 55.5922C97.3828 61.6374 89.5425 60.3828 82.7249 58.2156C83.1794 56.2765 83.6339 54.3375 84.0884 52.2844C91.5878 58.2156 102.61 50.2313 103.405 41.6767C104.087 33.5783 93.7467 27.1908 87.3836 31.183C87.6108 29.5861 87.7245 27.8752 87.8381 26.2783C92.7241 23.883 97.9509 22.4002 102.382 26.5065ZM22.7296 18.7503C25.343 15.8987 29.5472 14.4159 33.0697 13.3894C38.5238 11.6784 44.8869 11.9066 50.6819 11.7925C57.4996 11.6784 84.0884 10.3097 85.111 20.9174C85.3383 22.7424 83.1794 23.9971 79.9978 24.7955C79.8842 24.6815 79.7706 24.5674 79.6569 24.4533C72.4984 19.7768 62.6128 19.3206 54.4316 19.0925C45.6823 18.9784 34.4332 19.3206 26.9338 23.883C26.9338 23.883 26.9338 23.883 26.8202 23.883C23.6386 23.3127 19.6617 22.0581 22.7296 18.7503ZM77.2708 74.8686C81.1341 74.4123 102.269 79.7732 96.2465 84.2216C88.4062 89.9247 75.68 90.495 66.2489 91.4075C52.9545 92.6622 39.3192 92.5481 26.0248 90.2669C21.9342 89.5825 6.70814 87.1872 13.0713 80.9139C16.7073 77.2639 22.8432 75.2108 27.8428 74.6405C33.9787 85.4763 43.9779 87.0732 56.3633 86.5029C65.5671 86.0466 72.1575 81.7123 76.4754 74.8686C76.7026 74.8686 76.9299 74.8686 77.2708 74.8686ZM59.204 82.5107C53.5226 83.6513 46.8186 82.967 41.2509 81.8263C34.0923 80.3435 30.9108 73.6139 28.6382 67.2265C23.9795 54.1094 23.1841 39.6235 21.5933 25.8221C24.0931 26.8486 27.0474 27.3049 28.8655 27.3049C34.0923 29.2439 40.3418 29.358 45.796 29.8142C54.0908 30.3846 62.3856 30.4986 70.5667 29.7002C74.4301 29.358 80.5659 28.4455 84.5429 26.1643C83.0658 35.9736 81.8159 45.8969 79.6569 55.5922C76.9299 67.9108 72.9529 79.8873 59.204 82.5107Z" fill="#EFBE2A"/>
<path d="M53.8635 64.8311C61.022 61.7515 71.9303 51.4859 65.3399 42.9313C61.5902 38.0267 54.9998 42.2469 51.591 46.3532C48.6367 42.0188 42.728 39.5095 39.6601 45.6688C35.6831 53.425 45.4551 61.8655 51.9319 64.603C52.5 64.9452 53.1818 65.1733 53.8635 64.8311Z" fill="#EFBE2A"/>
</g>
<defs>
<clipPath id="clip0_17_1127">
<rect width="118.286" height="102.199" fill="white" transform="translate(0.231445 0.728516)"/>
</clipPath>
</defs>
</svg>
