<svg width="122" height="206" viewBox="0 0 122 206" fill="none" xmlns="http://www.w3.org/2000/svg">
<path d="M63.6105 205.991C56.9034 205.991 50.0403 204.903 44.4251 201.171C32.5706 193.087 30.8549 178.939 30.075 167.745C26.7994 166.035 24.7717 163.547 23.6798 161.681L23.0559 162.148V160.593C20.5602 155.463 20.2483 149.399 20.0923 145.046L19.9363 142.247C19.6243 138.516 19.1564 131.364 24.3037 126.234C27.5793 122.969 31.9467 120.948 36.4701 119.704C35.8462 116.439 35.3783 113.329 34.9103 110.22V109.754C33.9744 104.312 32.8826 97.3158 32.1027 90.0086C23.9918 85.9663 16.8167 79.1255 12.7613 74.7723C7.30198 69.0198 0.282913 60.0024 0.90683 48.1865L1.84271 43.0559C3.24652 38.2363 6.36611 33.7276 10.5775 30.7736L21.0282 27.0423C21.3401 27.0423 21.6521 27.0423 21.964 27.0423C26.1755 27.0423 30.2309 28.286 33.6625 30.1517C35.6902 21.7562 39.4337 12.7388 47.2327 6.67538C50.0403 4.49876 53.4719 2.47762 57.2154 1.23384L62.2067 0.145535C65.1703 -0.16541 68.1339 -0.00993725 70.9416 0.922898L79.3644 6.83085C85.1357 13.3607 87.0074 22.3781 88.4112 28.7525C89.5031 34.0385 90.439 39.3246 91.2189 45.388C94.6504 43.9888 98.5499 43.2114 102.605 43.3669C104.165 43.3669 105.569 43.6778 106.973 44.1442L114.928 49.1194C115.084 49.2748 115.084 49.2748 115.24 49.4303C117.111 51.4514 118.671 53.939 119.763 56.7375L121.167 63.2674C121.167 63.8892 121.167 64.3557 121.167 64.9775C120.543 80.6803 106.661 93.74 94.3384 100.27C94.3384 104.934 94.4944 109.754 94.3384 115.04C104.789 116.439 109.936 121.57 111.808 131.986C113.212 137.117 115.864 148.622 109.78 156.551C111.028 163.547 111.496 169.611 111.34 175.208V175.674C111.184 180.494 111.028 187.645 106.505 193.087C98.8618 202.415 84.9797 204.125 77.6487 205.058C73.5932 205.369 68.6019 205.991 63.6105 205.991Z" fill="white"/>
<path d="M102.293 52.8508C95.1183 52.5398 88.5672 57.0485 83.2639 61.7127C82.484 51.296 81.3922 40.8794 79.2085 30.7737C77.8046 24.3993 75.9329 15.5374 70.3176 11.3396C65.1703 7.4528 57.5273 10.7177 53.0039 14.1381C45.9849 19.5797 43.3332 29.5299 41.7734 37.7699C41.3055 40.5684 40.8375 43.5224 40.5256 46.4764C35.0663 42.2786 28.5152 36.3707 21.8081 36.5261C15.8808 36.6816 11.0455 42.745 10.5776 48.4975C9.95364 56.4266 14.789 62.9565 19.7803 68.398C24.7717 73.8395 33.3505 81.4577 40.8375 83.3234C41.7734 91.7189 42.8653 100.114 44.2691 108.199C45.3609 114.573 46.2968 121.103 48.0126 127.322C41.6174 127.944 34.7543 129.343 31.1668 132.919C28.8271 135.251 29.4511 139.915 29.607 142.869C29.763 146.912 29.763 152.664 31.6348 156.395C33.1946 159.349 36.0022 160.282 39.1218 160.438C39.9017 171.321 39.4337 186.402 49.7284 193.242C56.7474 197.907 68.6019 196.352 76.4008 195.419C83.7319 194.486 94.0265 192.931 99.1738 186.868C101.669 183.759 101.825 178.473 101.825 174.741C101.981 167.589 100.89 159.971 99.3298 152.82C106.037 149.399 104.009 139.915 102.449 133.852C102.449 133.852 102.449 133.852 102.449 133.696C101.358 127.011 99.4858 124.835 92.4667 124.057C89.971 123.746 87.4754 123.746 84.8237 123.746C84.9797 113.796 84.9797 103.846 84.6677 93.8955C96.3662 89.6977 111.184 77.1045 111.652 64.3557C111.808 59.0697 107.909 53.0062 102.293 52.8508ZM84.0438 74.9278C87.3194 72.5958 90.127 69.3308 93.0906 66.8433C97.1461 63.4229 101.046 61.4017 105.569 59.2251C105.881 59.6915 106.193 60.3134 106.349 60.9353C102.761 64.9776 99.7977 69.4863 95.5863 73.2176C92.3107 76.0162 87.4754 78.5037 84.3558 81.7686C84.1998 79.2811 84.0438 77.1045 84.0438 74.9278ZM104.165 57.8259C100.578 58.7587 96.9901 61.7127 94.4944 63.7338C91.0629 66.3769 87.0074 69.4863 83.8878 72.9067C83.7319 70.8856 83.7319 69.0199 83.5759 66.9988C88.0993 62.9565 93.0906 59.2251 99.0178 57.6704C101.202 56.893 102.917 57.0485 104.165 57.8259ZM65.1703 13.5162C65.6383 13.5162 65.9502 13.5162 66.2622 13.5162C67.822 50.5187 71.5655 87.3656 71.8774 124.524C67.666 124.99 63.6105 125.612 59.5551 126.078C56.1235 104.779 54.8757 82.2351 54.8757 60.6244C54.8757 46.1654 54.2518 26.1095 62.9866 13.6717C63.7665 13.6717 64.3904 13.5162 65.1703 13.5162ZM17.4406 43.6779C22.432 46.01 26.7994 48.4975 31.1668 52.0734C33.9745 54.561 36.6261 57.8259 39.7457 60.158C39.7457 63.7338 39.7457 67.4652 39.9017 71.041C38.9658 70.5746 38.0299 70.1082 37.25 69.6418C33.8185 67.6206 30.8549 65.2886 27.8913 62.6455C22.12 57.6704 18.5325 51.9179 16.5048 44.9217C16.6607 44.4552 17.1287 43.9888 17.4406 43.6779ZM26.4874 42.4341C31.3228 44.7662 35.6902 48.1866 40.0576 51.296C39.9017 53.3172 39.7457 55.3383 39.7457 57.5149C36.7821 54.25 32.8826 51.4515 29.607 48.9639C26.3315 46.3209 22.432 43.8334 18.3765 42.9005C20.4042 41.3458 23.2119 41.0348 26.4874 42.4341ZM28.5152 70.4191C23.2119 66.2214 18.3765 61.0908 15.7249 54.8719C14.633 52.2289 14.633 49.4304 15.4129 47.0983C16.5048 52.5398 20.5602 57.6704 24.1478 61.5572C27.7353 65.444 34.1304 71.8184 40.0576 73.5286C40.2136 74.9278 40.2136 76.4826 40.3696 77.8818C36.4701 75.3943 32.2587 73.3731 28.5152 70.4191ZM43.9571 67.1542C43.4892 52.5398 42.7093 20.2015 60.6469 14.2936C57.6833 17.8695 56.5914 23.311 55.6556 27.6642C53.9398 36.5261 53.4719 45.8545 53.0039 54.8719C52.38 67.4652 53.3159 80.0584 54.2518 92.4962C55.1876 103.69 55.6556 115.04 57.3713 126.234C55.4996 126.389 53.4719 126.545 51.2882 126.856C48.3245 107.111 44.737 87.3656 43.9571 67.1542ZM100.266 140.382C95.4303 139.293 90.9069 140.382 86.0715 142.092C78.1166 144.735 71.2535 141.315 63.1426 142.247C56.5915 143.025 51.9121 148.155 44.893 148C40.6816 147.844 37.094 146.756 33.8185 149.088C33.5065 147.533 33.3505 145.823 33.3505 144.113C36.7821 142.714 40.0576 142.403 43.9571 143.336C45.5169 143.647 47.3887 143.958 48.9485 143.647C55.6556 142.247 59.0871 136.65 66.7301 138.205C71.8774 139.293 75.153 140.693 80.3003 138.982C82.952 138.05 85.6036 136.339 88.0993 135.251C91.8428 133.696 95.8982 134.94 99.6417 135.718C99.7977 137.272 100.11 138.827 100.266 140.382ZM96.5222 183.914C94.1825 189.356 82.328 190.599 77.4927 191.377C69.8497 192.62 61.4268 193.087 53.9398 190.91C43.0213 187.645 43.8011 169.611 42.7093 160.282C43.3332 160.282 43.8011 160.127 44.4251 160.127C53.6278 159.194 62.8306 158.106 72.0334 157.173C79.8324 156.24 88.2553 156.084 95.8982 154.063C96.8341 163.392 100.422 174.897 96.5222 183.914ZM89.971 151.109C83.4199 151.887 76.8688 152.664 70.3176 153.441C60.4909 154.53 50.6642 155.929 40.8375 156.551C37.094 156.706 35.0663 154.063 34.1304 150.487C39.1218 149.555 44.1131 150.798 49.2604 150.332C55.0317 149.71 59.711 145.201 65.4823 144.424C71.0975 143.802 76.4008 147.067 82.1721 145.668C85.2916 144.89 88.2553 143.802 91.2189 143.025C94.3385 142.092 97.3021 142.558 100.422 142.558C100.422 143.025 100.422 143.647 100.422 144.113C100.578 150.021 94.4944 150.487 89.971 151.109ZM95.2743 128.41C98.2379 128.877 98.7059 130.898 99.1738 133.075C94.4944 131.675 89.971 131.675 85.2916 133.541C80.3003 135.562 77.4927 138.05 71.5655 136.806C68.4459 136.184 65.7942 135.096 62.5187 134.94C55.4996 134.629 52.224 141.936 44.581 140.693C39.9017 139.915 36.7821 139.449 33.3505 142.092C33.3505 140.071 33.5065 138.05 33.8185 136.65C34.5984 131.675 53.7838 130.898 57.6833 130.276C66.1062 129.032 74.5291 128.099 82.952 127.788C87.0074 127.633 91.2189 127.788 95.2743 128.41ZM74.0611 124.368C73.7492 87.3656 70.3176 50.8296 67.666 13.9826C72.3454 16.4702 74.2171 26.8869 74.997 30.4627C77.6487 41.8122 78.5845 53.6281 79.3644 65.2886C79.2085 65.755 79.2085 66.0659 79.5204 66.5323V66.6878C80.7682 85.6554 79.9883 104.779 81.3922 123.746C79.0525 123.902 76.5568 124.057 74.0611 124.368ZM105.413 70.8856C101.046 79.592 92.4667 84.8781 84.5117 90.0087C84.5117 87.8321 84.3558 85.8109 84.3558 83.6343C88.8792 81.9241 93.4026 77.2599 96.6781 74.306C100.11 71.352 104.165 67.4652 106.661 63.2674C106.973 65.755 106.505 68.7089 105.413 70.8856Z" fill="#8A84B7"/>
</svg>
