<svg width="641" height="605" viewBox="0 0 641 605" fill="none" xmlns="http://www.w3.org/2000/svg">
<path d="M19.8325 89.796C23.9486 89.0477 28.8132 88.6736 34.8004 88.6736C64.3619 88.6736 87.9364 90.9185 106.646 95.7824C145.189 105.136 166.892 128.333 171.757 165.374C172.505 169.116 172.879 173.606 172.879 178.844C172.879 183.708 172.131 188.572 171.008 194.184C167.266 209.524 158.285 223.742 143.692 236.837L132.84 246.191L140.698 257.789C142.195 259.66 150.427 271.633 165.769 292.959C176.995 309.422 182.982 319.15 183.731 322.517C184.105 323.64 184.105 325.136 184.105 327.755C184.105 333.742 182.234 339.728 178.118 344.966C174.002 350.204 168.763 353.572 162.776 355.068C161.653 355.442 159.782 355.442 157.163 355.442C148.182 355.442 141.072 352.449 135.459 346.089C128.724 338.231 118.995 325.51 106.272 307.551C93.5493 289.592 86.4396 278.367 84.1944 273.878C81.9492 269.014 80.0782 266.021 78.9556 264.898C77.833 263.776 75.2137 263.027 71.0975 262.653C68.1039 262.279 65.8587 261.905 64.7361 261.905C63.6135 261.905 62.4909 261.905 61.7426 262.279V266.021C61.7426 268.64 62.1167 279.864 62.8651 298.946C63.6135 312.789 63.9877 321.769 63.9877 326.259C63.9877 333.367 63.6135 338.231 62.8651 341.225C60.9942 347.211 57.6264 351.701 52.7618 355.442C47.5231 359.184 41.9101 360.68 35.9229 360.68C34.052 360.68 31.8068 360.306 29.1874 359.558C24.697 358.061 20.5809 355.442 16.4647 350.953C12.3485 346.837 10.1033 342.347 9.35493 337.857C5.98716 319.15 3.36778 254.422 0.374197 143.674C0 138.435 0 132.449 0 124.966C0 115.987 0.374197 110 1.49679 107.007C2.99358 103.265 5.23876 99.5239 9.35493 96.1566C13.0969 92.4151 16.4647 90.5443 19.8325 89.796ZM56.878 157.517C56.878 184.082 58.749 197.551 62.491 197.551C64.7361 197.551 68.4781 199.048 73.3427 202.041C77.0846 204.66 79.704 206.157 81.575 206.157C83.446 206.157 86.0654 205.408 89.4332 204.286C95.7945 202.415 102.156 198.674 107.769 193.435C113.756 188.197 116.75 183.708 117.498 179.218C117.872 178.095 117.872 176.973 117.872 175.102C117.872 166.497 113.008 159.762 103.653 154.524C94.2977 149.286 83.0718 146.293 69.6007 145.544L56.878 144.048V157.517Z" fill="#8A84B7"/>
<path d="M262.312 97.6531C265.68 96.1565 271.293 95.4082 279.151 95.4082C291.874 95.4082 303.474 97.279 313.577 101.02C320.687 104.014 328.919 108.878 337.9 115.612C347.255 122.347 354.739 129.082 360.726 135.816C374.572 151.905 381.681 167.619 381.681 182.585C381.681 190.068 379.436 197.177 375.32 203.537C362.223 222.993 331.165 236.837 281.771 245.068C267.551 247.313 260.441 249.558 260.441 251.429C260.441 252.177 260.441 252.925 261.19 253.674C262.687 258.163 268.299 262.279 278.403 265.646C288.506 269.014 297.861 270.884 306.842 270.884C314.7 270.884 320.313 269.388 323.306 266.769C325.177 265.646 326.3 262.653 326.3 258.163C326.3 254.422 328.545 249.932 332.661 245.068C337.152 240.204 341.642 236.837 346.507 234.966C349.126 233.844 352.12 233.095 355.487 233.095C361.849 233.095 367.836 234.966 373.449 238.708C379.062 242.449 382.804 247.313 384.675 252.925C385.797 256.293 386.546 260.034 386.546 264.15C386.546 272.381 384.301 280.986 380.184 289.966C376.068 298.946 370.83 306.429 364.468 312.041C356.236 319.15 348.004 324.014 340.145 326.259C331.913 328.878 320.313 330 304.222 330C288.88 330 276.532 328.878 267.177 326.633C257.822 324.388 248.093 319.898 237.241 313.163C228.635 307.925 222.273 303.435 218.531 299.32C214.415 295.204 210.673 289.218 206.557 280.986C194.583 257.789 188.595 233.844 188.595 208.776C188.595 173.605 199.821 144.796 222.273 121.973C231.628 111.871 245.099 103.639 262.312 97.6531ZM297.487 163.878C292.248 161.259 286.635 159.762 281.022 159.762C266.428 159.762 257.074 166.871 253.332 181.088C252.583 184.082 252.583 185.952 252.957 186.327C253.706 186.701 255.951 187.075 260.441 187.075C277.654 187.075 292.997 184.83 306.468 180.34L314.326 178.095L310.21 172.857C307.216 169.116 302.726 166.122 297.487 163.878Z" fill="#8A84B7"/>
<path d="M453.153 142.925C459.14 141.054 466.998 140.306 476.353 140.306C489.824 140.306 500.676 141.803 509.283 144.796C517.889 147.789 525.747 151.905 532.483 156.395C539.593 161.259 544.083 165.374 545.954 169.116C547.825 172.109 548.573 176.599 548.573 182.585C548.573 191.191 546.702 197.551 542.586 201.667C536.973 207.653 529.863 210.272 520.883 210.272C513.773 210.272 507.786 208.401 502.921 204.66C495.811 198.674 487.953 196.054 479.721 196.054C475.979 196.054 472.237 196.803 468.869 197.925C465.127 199.422 463.256 200.918 462.508 202.415C462.134 202.789 463.256 203.912 465.501 206.156C467.747 208.401 470.74 210.646 473.734 212.891C481.218 218.503 490.573 226.361 501.799 237.211C513.025 248.061 520.883 256.667 525.747 263.776C540.715 283.98 548.199 302.313 548.199 319.15C548.199 333.742 542.212 346.837 530.612 358.435C515.27 373.027 496.186 380.51 473.734 380.51C466.998 380.51 461.759 380.136 458.392 379.388C440.804 377.143 426.959 371.157 417.23 362.177C407.501 353.197 402.636 341.599 402.636 328.129C402.636 324.014 403.01 319.898 404.133 315.408C408.623 293.708 418.727 282.483 434.817 282.483C442.675 282.483 449.411 285.102 454.65 290.34C459.888 295.578 462.508 302.687 462.508 310.918V320.272L470.366 321.769C471.489 322.143 472.985 322.143 475.605 322.143C484.586 322.143 489.076 318.401 489.076 311.293C489.076 308.673 488.327 306.054 487.205 303.435C484.96 298.946 480.469 293.333 473.734 286.599C466.998 279.864 460.637 274.252 453.901 269.762C429.204 253.299 413.862 235.714 407.127 216.633C405.256 210.646 404.507 205.408 404.507 200.918C404.507 188.197 408.998 176.599 417.978 165.748C425.837 155.272 437.811 147.415 453.153 142.925Z" fill="#8A84B7"/>
<path d="M590.483 98.7755C594.974 96.5306 600.213 95.4082 605.451 95.4082C617.426 95.4082 626.032 100.272 631.271 109.626C633.89 114.116 635.387 120.102 635.387 127.585C635.387 131.701 633.89 159.762 630.897 212.143C628.277 251.054 626.032 274.626 624.535 282.109C623.039 289.592 619.297 295.952 612.935 300.442C609.567 303.435 603.58 304.932 595.722 304.932C583.748 304.932 574.767 299.694 568.032 288.844C565.786 285.102 564.664 279.49 564.664 272.755C564.664 266.769 565.412 253.673 566.535 234.218C566.909 228.605 567.657 215.136 568.78 193.81C569.903 172.483 571.025 158.265 571.774 150.408C573.27 130.578 575.141 117.857 577.012 112.245C578.509 106.633 582.999 102.143 590.483 98.7755ZM602.832 0.748299C603.206 0.748299 603.955 0.748299 605.451 0.37415C606.948 0 607.696 0 608.445 0C618.174 0 625.658 2.9932 631.645 9.35374C637.632 15.7143 640.626 23.9456 640.626 33.6735C640.626 36.6667 639.877 41.5306 638.381 48.6395C636.135 56.1224 632.019 62.1088 626.781 66.5986C621.168 70.7143 615.18 72.9592 608.071 72.9592C597.967 72.9592 589.735 68.8435 582.625 60.9864C578.135 56.1224 575.89 49.0136 575.89 40.4082C575.89 30.6803 578.509 22.0748 583.748 13.8435C589.361 5.61224 595.722 1.4966 602.832 0.748299Z" fill="#8A84B7"/>
<path d="M70.3491 364.796C75.2136 361.803 80.0782 360.306 85.317 360.306C96.5429 360.306 104.775 364.796 109.266 374.15C111.511 378.639 113.382 388.367 114.504 403.708L115.627 426.905L121.614 416.054C129.846 401.837 138.827 392.109 148.182 387.245C153.795 385 158.285 383.503 162.402 383.503C163.15 383.503 164.273 383.503 165.395 383.878C166.892 383.878 168.015 384.252 169.137 384.252C183.357 385.374 196.454 391.361 207.679 402.211C219.28 413.061 227.886 428.027 233.499 446.735C239.486 464.694 242.854 494.626 243.602 535.782C243.977 545.51 243.977 555.612 243.977 566.463C243.977 576.19 242.854 584.048 240.235 588.912C234.996 599.388 226.389 604.626 214.789 604.626C205.809 604.626 197.95 600.136 191.215 591.156C188.97 588.537 187.473 582.925 187.473 574.32V564.966V559.354C187.473 519.32 185.228 490.136 180.737 471.803C179.24 465.442 177.37 459.082 174.75 452.721C172.131 446.361 169.886 443.367 168.763 443.367C163.898 443.367 158.66 462.075 152.298 499.116C147.434 527.177 142.943 546.259 138.827 557.109C134.711 567.585 127.975 575.442 119.743 580.306C114.879 582.925 110.014 584.422 104.775 584.422C97.6655 584.422 92.0525 582.551 87.9364 578.435C78.2072 568.708 70.3491 549.626 64.7361 520.442C59.1232 491.259 56.5038 454.966 56.5038 411.939C56.5038 395.102 57.2522 384.252 58.749 378.639C60.62 373.401 64.3619 368.537 70.3491 364.796Z" fill="#625E99"/>
<path d="M331.165 361.428C334.532 359.932 339.771 359.184 347.255 359.184C359.229 359.184 370.081 361.054 379.81 364.422C386.546 367.415 394.404 371.905 403.01 378.265C411.617 384.626 419.101 390.986 424.714 397.347C437.811 412.687 444.546 427.653 444.546 441.871C444.546 448.98 442.675 455.714 438.559 461.701C426.211 480.408 396.649 493.503 349.874 501.36C336.403 503.605 329.668 505.476 329.668 507.347C329.668 508.095 329.668 508.843 330.042 509.592C331.539 513.707 336.778 517.449 346.507 520.816C355.862 524.184 364.842 525.68 373.449 525.68C380.933 525.68 386.172 524.558 388.791 521.939C390.662 520.816 391.41 518.197 391.41 514.082C391.41 510.34 393.281 506.599 397.398 501.735C401.514 497.245 406.004 493.877 410.494 492.007C413.114 490.884 415.733 490.51 419.101 490.51C425.088 490.51 430.701 492.381 436.314 495.748C441.553 499.49 445.295 503.605 447.166 509.218C448.288 512.585 448.663 515.952 448.663 520.068C448.663 527.925 446.792 536.156 442.675 544.762C438.933 553.367 433.695 560.102 427.708 565.714C419.849 572.449 411.991 576.939 404.507 579.184C396.649 581.428 385.423 582.551 370.455 582.551C355.862 582.551 344.262 581.428 335.281 579.184C326.674 576.939 316.945 572.823 306.842 566.462C298.609 561.599 292.622 557.109 288.88 553.367C285.138 549.626 281.396 544.014 277.28 536.156C265.68 514.082 260.067 491.258 260.067 467.687C260.067 434.014 270.919 406.701 292.248 385.374C302.351 374.898 315.074 367.041 331.165 361.428ZM364.842 424.66C359.978 422.041 354.739 420.918 349.5 420.918C335.655 420.918 326.674 427.653 323.306 441.122C322.558 444.116 322.558 445.612 322.932 445.986C323.306 446.36 325.926 446.36 330.042 446.36C346.507 446.36 361.1 444.116 373.823 440L381.307 437.755L377.565 432.891C374.197 429.524 369.707 426.905 364.842 424.66Z" fill="#625E99"/>
<path d="M254.08 10.1021C261.19 12.347 266.428 16.8368 269.422 23.5715C272.416 29.5579 272.79 34.0477 270.919 37.7892C269.048 41.5307 260.816 51.2586 246.97 67.347C233.873 81.9388 226.015 90.5443 223.022 93.5375C220.028 96.1565 216.66 97.6531 213.292 97.279C208.054 96.9048 202.815 94.2858 197.95 89.796C193.086 85.3062 190.092 80.8164 188.595 75.5783C187.473 71.8368 187.847 68.4694 190.092 65.1021C192.337 62.1089 199.821 52.7552 212.918 38.1633C226.389 22.8232 235.37 13.8436 239.112 10.8504C243.228 8.6055 248.093 8.23135 254.08 10.1021Z" fill="#8A84B7"/>
</svg>
