<svg width="143" height="124" viewBox="0 0 143 124" fill="none" xmlns="http://www.w3.org/2000/svg">
<g clip-path="url(#clip0_21_536)">
<path d="M143 48.1606C142.863 35.7052 136.819 23.9418 127.478 18.5445C123.082 15.915 118.137 14.8079 113.191 15.2231L113.329 14.3927L112.505 14.8079C111.955 13.8392 111.268 13.0088 110.444 12.04C102.889 2.90612 89.2894 1.66059 80.2231 0.830229L78.9868 0.691836C66.6237 -0.553699 54.3979 0.138265 45.0569 0.830229C35.3038 1.52219 22.3912 5.95076 14.9733 15.7767C11.127 21.0356 11.2644 26.2945 12.9128 30.1695C13.8744 40.9642 14.9733 49.6829 16.2096 57.8481L16.347 59.232C17.3086 65.7365 18.2702 72.7945 20.1933 79.7142C12.7754 82.3436 4.12126 87.1874 1.09917 95.0758C-1.09872 100.611 0.137592 106.701 4.396 111.683C11.8139 120.263 25.688 121.647 35.8532 122.616C37.2269 122.754 38.4632 122.893 39.5622 123.031C45.6064 123.723 51.7879 124.138 58.6563 124.138C64.7005 124.138 71.2942 123.861 78.5747 123.308C87.0915 122.616 94.2346 121.786 100.691 120.54L101.79 120.402C110.581 118.741 128.714 115.281 130.912 101.995C131.736 97.1516 130.362 92.3079 126.928 88.4329C125.28 86.4954 123.219 84.9731 121.021 83.5892C123.082 82.7588 125.142 81.7901 127.066 80.5445C137.231 73.6249 143.138 61.7231 143 48.1606ZM96.1578 99.2275C96.2951 99.0891 96.2951 99.0891 96.4325 98.9508C96.7072 98.9508 96.8446 99.0891 97.1193 99.0891C96.7072 99.0891 96.4325 99.2275 96.1578 99.2275Z" fill="white"/>
<path d="M98.6301 73.9018C117.724 82.6206 134.346 68.3661 134.208 48.2992C134.071 32.1072 121.158 18.1295 106.323 26.4331C106.323 26.2947 106.323 26.2947 106.323 26.1563C107.01 23.942 106.323 21.1742 103.575 17.7143C98.0807 10.9331 85.9923 10.1027 78.1623 9.41076C67.4476 8.44201 56.4582 8.85719 45.7435 9.68755C37.2267 10.3795 27.3362 13.9777 22.1162 21.0358C20.0557 23.6652 20.3304 25.8795 21.5667 27.5402C22.3909 37.2277 23.4899 46.9152 24.8636 56.6027C26.2372 66.2902 27.7483 76.9465 31.7319 85.942C22.2536 87.0491 1.92311 95.4911 10.9894 105.871C16.8962 112.79 32.1441 113.205 40.5235 114.174C52.8866 115.558 65.5245 115.281 77.8876 114.313C84.8933 113.759 92.0365 112.929 99.0422 111.683C104.537 110.576 121.021 107.946 122.257 100.335C124.043 89.9554 103.438 85.1116 94.6465 85.3884C95.608 83.3125 96.4322 81.2366 97.1191 79.0224C97.6685 77.3616 98.218 75.7009 98.6301 73.9018ZM104.812 42.625C107.696 40.5492 110.306 39.3036 114.153 40.2724C118.548 41.3795 120.746 45.5313 120.609 49.6831C120.609 53.9733 117.312 57.5715 113.741 59.3706C109.62 61.5849 105.911 60.0625 102.339 57.9867C103.301 53.0045 104.125 47.7456 104.812 42.625ZM123.494 31.2768C128.027 35.4286 129.538 42.3483 129.813 48.2992C130.087 54.8036 128.302 61.7233 123.906 66.567C117.45 73.9018 107.971 72.3795 99.7291 69.75C100.279 67.3974 100.828 65.0447 101.377 62.5536C110.444 69.75 123.768 60.0625 124.73 49.6831C125.554 39.8572 113.054 32.1072 105.361 36.9509C105.636 35.0134 105.773 32.9375 105.911 31C111.817 28.0938 118.136 26.2947 123.494 31.2768ZM27.1988 21.8661C30.3583 18.4063 35.4409 16.6072 39.6993 15.3617C46.2929 13.2858 53.9855 13.5625 60.9913 13.4242C69.2334 13.2858 101.377 11.625 102.614 24.4956C102.889 26.7099 100.279 28.2322 96.4322 29.2009C96.2949 29.0625 96.1575 28.9242 96.0201 28.7858C87.366 23.1117 75.4149 22.5581 65.5245 22.2813C54.9471 22.1429 41.3477 22.5581 32.2814 28.0938C32.2814 28.0938 32.2814 28.0938 32.144 28.0938C28.2977 27.4018 23.4899 25.8795 27.1988 21.8661ZM93.1354 89.9554C97.8059 89.4018 123.356 95.9063 116.076 101.304C106.597 108.223 91.2122 108.915 79.8107 110.022C63.7387 111.545 47.2545 111.406 31.1825 108.638C26.2372 107.808 7.82993 104.902 15.5225 97.2902C19.9183 92.8616 27.3362 90.3706 33.3804 89.6786C40.7982 102.826 52.8866 104.763 67.8597 104.071C78.9865 103.518 86.9538 98.259 92.1738 89.9554C92.4486 89.9554 92.7233 89.9554 93.1354 89.9554ZM71.2939 99.2277C64.4255 100.612 56.3208 99.7813 49.5898 98.3974C40.9356 96.5983 37.0893 88.4331 34.3419 80.6831C28.7099 64.7679 27.7483 47.192 25.8251 30.4465C28.8472 31.692 32.4188 32.2456 34.6167 32.2456C40.9356 34.5983 48.4908 34.7367 55.0845 35.2902C65.1123 35.9822 75.1402 36.1206 85.0307 35.1518C89.7012 34.7367 97.1191 33.6295 101.927 30.8617C100.141 42.7634 98.6301 54.8036 96.0201 66.567C92.7233 81.5134 87.9154 96.0447 71.2939 99.2277Z" fill="#EFBE2A"/>
<path d="M64.8377 77.7769C73.4918 74.0402 86.6792 61.5849 78.7118 51.2054C74.1787 45.2545 66.2113 50.3751 62.0903 55.3572C58.5187 50.0983 51.3756 47.0536 47.6667 54.5269C42.8588 63.9376 54.6724 74.1786 62.5024 77.5001C63.1892 77.9152 64.0135 78.192 64.8377 77.7769Z" fill="#EFBE2A"/>
</g>
<defs>
<clipPath id="clip0_21_536">
<rect width="143" height="124" fill="white"/>
</clipPath>
</defs>
</svg>
