<svg width="121" height="206" viewBox="0 0 121 206" fill="none" xmlns="http://www.w3.org/2000/svg">
<path d="M62.7425 205.991C56.0354 205.991 49.1723 204.903 43.5571 201.171C31.7027 193.087 29.9869 178.939 29.207 167.745C25.9314 166.035 23.9037 163.547 22.8118 161.681L22.1879 162.148V160.593C19.6922 155.463 19.3803 149.399 19.2243 145.046L19.0683 142.247C18.7564 138.516 18.2884 131.364 23.4357 126.234C26.7113 122.969 31.0787 120.948 35.6021 119.704C34.9782 116.439 34.5103 113.329 34.0423 110.22V109.754C33.1065 104.312 32.0146 97.3158 31.2347 90.0086C23.1238 85.9663 15.9487 79.1255 11.8933 74.7723C6.434 69.0198 -0.585068 60.0024 0.0388491 48.1865L0.974725 43.0559C2.37854 38.2363 5.49813 33.7276 9.70957 30.7736L20.1602 27.0423C20.4721 27.0423 20.7841 27.0423 21.0961 27.0423C25.3075 27.0423 29.363 28.286 32.7945 30.1517C34.8222 21.7562 38.5657 12.7388 46.3647 6.67538C49.1723 4.49876 52.6039 2.47762 56.3474 1.23384L61.3387 0.145535C64.3023 -0.16541 67.2659 -0.00993725 70.0736 0.922898L78.4964 6.83085C84.2677 13.3607 86.1394 22.3781 87.5432 28.7525C88.6351 34.0385 89.571 39.3246 90.3509 45.388C93.7824 43.9888 97.6819 43.2114 101.737 43.3669C103.297 43.3669 104.701 43.6778 106.105 44.1442L114.06 49.1194C114.216 49.2748 114.216 49.2748 114.372 49.4303C116.243 51.4514 117.803 53.939 118.895 56.7375L120.299 63.2674C120.299 63.8892 120.299 64.3557 120.299 64.9775C119.675 80.6803 105.793 93.74 93.4705 100.27C93.4705 104.934 93.6264 109.754 93.4705 115.04C103.921 116.439 109.068 121.57 110.94 131.986C112.344 137.117 114.996 148.622 108.912 156.551C110.16 163.547 110.628 169.611 110.472 175.208V175.674C110.316 180.494 110.16 187.645 105.637 193.087C97.9939 202.415 84.1117 204.125 76.7807 205.058C72.7252 205.369 67.7339 205.991 62.7425 205.991Z" fill="white"/>
<path d="M101.425 52.8505C94.2504 52.5396 87.6992 57.0483 82.3959 61.7124C81.616 51.2958 80.5242 40.8791 78.3405 30.7734C76.9367 24.3991 75.0649 15.5371 69.4497 11.3394C64.3023 7.45256 56.6594 10.7175 52.1359 14.1379C45.1169 19.5794 42.4652 29.5296 40.9054 37.7697C40.4375 40.5682 39.9696 43.5222 39.6576 46.4761C34.1983 42.2784 27.6472 36.3704 20.9401 36.5259C15.0129 36.6814 10.1775 42.7448 9.70957 48.4973C9.08565 56.4264 13.921 62.9562 18.9124 68.3978C23.9037 73.8393 32.4826 81.4574 39.9696 83.3231C40.9054 91.7186 41.9973 100.114 43.4011 108.199C44.493 114.573 45.4288 121.103 47.1446 127.322C40.7495 127.944 33.8864 129.343 30.2988 132.919C27.9592 135.251 28.5831 139.915 28.739 142.869C28.895 146.911 28.895 152.664 30.7668 156.395C32.3266 159.349 35.1342 160.282 38.2538 160.437C39.0337 171.321 38.5657 186.401 48.8604 193.242C55.8794 197.906 67.7339 196.352 75.5329 195.419C82.8639 194.486 93.1585 192.931 98.3058 186.868C100.801 183.758 100.957 178.472 100.957 174.741C101.113 167.589 100.022 159.971 98.4618 152.819C105.169 149.399 103.141 139.915 101.581 133.852C101.581 133.852 101.581 133.852 101.581 133.696C100.49 127.011 98.6178 124.834 91.5987 124.057C89.1031 123.746 86.6074 123.746 83.9557 123.746C84.1117 113.796 84.1117 103.845 83.7998 93.8952C95.4982 89.6975 110.316 77.1042 110.784 64.3555C110.94 59.0694 107.041 53.006 101.425 52.8505ZM83.1758 74.9276C86.4514 72.5955 89.259 69.3306 92.2226 66.843C96.2781 63.4226 100.178 61.4015 104.701 59.2249C105.013 59.6913 105.325 60.3132 105.481 60.9351C101.893 64.9774 98.9297 69.4861 94.7183 73.2174C91.4427 76.0159 86.6074 78.5035 83.4878 81.7684C83.3318 79.2808 83.1758 77.1042 83.1758 74.9276ZM103.297 57.8256C99.7096 58.7585 96.1221 61.7124 93.6264 63.7336C90.1949 66.3766 86.1394 69.4861 83.0199 72.9065C82.8639 70.8853 82.8639 69.0196 82.7079 66.9985C87.2313 62.9562 92.2226 59.2249 98.1498 57.6702C100.334 56.8928 102.049 57.0483 103.297 57.8256ZM64.3023 13.516C64.7703 13.516 65.0822 13.516 65.3942 13.516C66.954 50.5184 70.6975 87.3654 71.0094 124.523C66.798 124.99 62.7425 125.612 58.6871 126.078C55.2555 104.778 54.0077 82.2348 54.0077 60.6241C54.0077 46.1652 53.3838 26.1093 62.1186 13.6715C62.8985 13.6715 63.5224 13.516 64.3023 13.516ZM16.5727 43.6776C21.564 46.0097 25.9314 48.4973 30.2988 52.0732C33.1065 54.5607 35.7581 57.8256 38.8777 60.1577C38.8777 63.7336 38.8777 67.4649 39.0337 71.0408C38.0978 70.5744 37.1619 70.108 36.382 69.6415C32.9505 67.6204 29.9869 65.2883 27.0233 62.6453C21.252 57.6702 17.6645 51.9177 15.6368 44.9214C15.7928 44.455 16.2607 43.9886 16.5727 43.6776ZM25.6195 42.4339C30.4548 44.7659 34.8222 48.1863 39.1897 51.2958C39.0337 53.3169 38.8777 55.3381 38.8777 57.5147C35.9141 54.2498 32.0146 51.4513 28.739 48.9637C25.4635 46.3207 21.564 43.8331 17.5085 42.9003C19.5363 41.3456 22.3439 41.0346 25.6195 42.4339ZM27.6472 70.4189C22.3439 66.2211 17.5085 61.0906 14.8569 54.8717C13.765 52.2286 13.765 49.4301 14.5449 47.098C15.6368 52.5396 19.6922 57.6702 23.2798 61.557C26.8673 65.4438 33.2624 71.8182 39.1897 73.5284C39.3456 74.9276 39.3456 76.4823 39.5016 77.8816C35.6021 75.394 31.3907 73.3729 27.6472 70.4189ZM43.0891 67.154C42.6212 52.5396 41.8413 20.2013 59.7789 14.2933C56.8153 17.8692 55.7235 23.3107 54.7876 27.664C53.0718 36.5259 52.6039 45.8543 52.1359 54.8717C51.512 67.4649 52.4479 80.0582 53.3838 92.496C54.3197 103.69 54.7876 115.039 56.5034 126.234C54.6316 126.389 52.6039 126.544 50.4202 126.855C47.4566 107.11 43.869 87.3654 43.0891 67.154ZM99.3977 140.382C94.5623 139.293 90.0389 140.382 85.2036 142.092C77.2486 144.735 70.3855 141.314 62.2746 142.247C55.7235 143.025 51.0441 148.155 44.025 148C39.8136 147.844 36.2261 146.756 32.9505 149.088C32.6385 147.533 32.4826 145.823 32.4826 144.113C35.9141 142.714 39.1897 142.403 43.0891 143.335C44.6489 143.646 46.5207 143.957 48.0805 143.646C54.7876 142.247 58.2191 136.65 65.8621 138.205C71.0094 139.293 74.285 140.692 79.4323 138.982C82.084 138.049 84.7356 136.339 87.2313 135.251C90.9748 133.696 95.0303 134.94 98.7738 135.717C98.9297 137.272 99.2417 138.827 99.3977 140.382ZM95.6542 183.914C93.3145 189.355 81.4601 190.599 76.6247 191.376C68.9817 192.62 60.5588 193.087 53.0718 190.91C42.1533 187.645 42.9332 169.61 41.8413 160.282C42.4652 160.282 42.9332 160.127 43.5571 160.127C52.7599 159.194 61.9626 158.105 71.1654 157.173C78.9644 156.24 87.3873 156.084 95.0303 154.063C95.9661 163.391 99.5537 174.896 95.6542 183.914ZM89.1031 151.109C82.5519 151.886 76.0008 152.664 69.4497 153.441C59.623 154.529 49.7963 155.929 39.9696 156.551C36.2261 156.706 34.1983 154.063 33.2624 150.487C38.2538 149.554 43.2451 150.798 48.3924 150.332C54.1637 149.71 58.8431 145.201 64.6143 144.424C70.2296 143.802 75.5328 147.067 81.3041 145.668C84.4237 144.89 87.3873 143.802 90.3509 143.025C93.4705 142.092 96.4341 142.558 99.5537 142.558C99.5537 143.025 99.5537 143.646 99.5537 144.113C99.7096 150.021 93.6264 150.487 89.1031 151.109ZM94.4063 128.41C97.37 128.877 97.8379 130.898 98.3058 133.074C93.6264 131.675 89.1031 131.675 84.4237 133.541C79.4323 135.562 76.6247 138.049 70.6975 136.806C67.5779 136.184 64.9263 135.095 61.6507 134.94C54.6316 134.629 51.356 141.936 43.7131 140.692C39.0337 139.915 35.9141 139.449 32.4826 142.092C32.4826 140.071 32.6385 138.049 32.9505 136.65C33.7304 131.675 52.9158 130.898 56.8153 130.276C65.2382 129.032 73.6611 128.099 82.084 127.788C86.1394 127.633 90.3509 127.788 94.4063 128.41ZM73.1932 124.368C72.8812 87.3654 69.4497 50.8294 66.798 13.9824C71.4774 16.47 73.3491 26.8866 74.129 30.4625C76.7807 41.812 77.7166 53.6279 78.4965 65.2883C78.3405 65.7547 78.3405 66.0657 78.6524 66.5321V66.6876C79.9003 85.6552 79.1204 104.778 80.5242 123.746C78.1845 123.901 75.6888 124.057 73.1932 124.368ZM104.545 70.8853C100.178 79.5918 91.5987 84.8778 83.6438 90.0084C83.6438 87.8318 83.4878 85.8107 83.4878 83.6341C88.0112 81.9239 92.5346 77.2597 95.8102 74.3057C99.2417 71.3517 103.297 67.4649 105.793 63.2672C106.105 65.7547 105.637 68.7087 104.545 70.8853Z" fill="#8A84B7"/>
</svg>
