<svg width="792" height="497" viewBox="0 0 792 497" fill="none" xmlns="http://www.w3.org/2000/svg">
<g clip-path="url(#clip0_21_553)">
<path d="M9.20035 25.3447C12.1328 22.4105 23.4117 19.2507 43.2624 15.8651L71.6851 10.8996C103.266 5.70845 122.44 3 129.207 3C135.974 3 141.839 5.70844 146.802 11.351C150.637 15.4137 152.893 19.9278 153.795 24.6676C155.6 35.0499 152.667 43.401 144.998 49.2693C141.163 52.2035 126.049 56.0404 99.6566 60.7802L59.7295 67.777L63.5644 84.2534C64.0155 87.1876 65.369 92.8301 67.3992 100.955C69.4293 109.081 71.0084 114.723 71.9107 117.658L76.1966 133.908L92.8893 131.877C94.2428 131.651 96.0474 131.426 98.7543 131.2C101.461 130.974 103.266 130.748 104.168 130.523C110.935 129.394 116.349 127.814 119.959 126.234C122.44 125.106 126.049 124.203 130.561 123.3C145.449 120.592 155.825 126.686 161.465 141.582L161.916 144.516C163.495 153.545 161.239 161.67 154.923 168.441C148.607 174.986 136.426 179.726 118.154 182.886C113.191 183.789 109.356 184.24 106.424 184.466L84.7686 187.174L93.5661 230.961C95.5962 240.666 97.6264 251.274 99.6566 262.559C101.236 271.588 101.687 277.682 100.785 280.39C97.852 290.321 91.5359 296.641 82.0616 299.349L78.678 300.026C68.9782 301.832 60.8574 299.124 54.5413 292.127C52.5111 289.87 50.4809 284.227 48.2251 275.425C46.1949 266.622 40.5555 239.312 31.758 193.946C23.8628 155.802 17.5467 122.623 12.8096 94.6358C6.71901 60.1031 3.78651 39.7897 4.01208 33.6957C4.23766 30.9873 5.8167 28.2788 9.20035 25.3447Z" fill="#8A84B7"/>
<path d="M210.689 3.38556C216.554 1.12852 220.614 0 222.644 0C225.351 0 229.412 1.12852 235.051 3.38556C240.014 6.09401 243.848 9.93097 246.555 14.8965C249.262 20.0876 250.616 38.5954 250.616 70.4196C250.616 122.106 252.42 162.733 256.03 192.977L258.06 209.905L265.504 203.359C270.467 199.071 275.88 196.814 281.971 196.814C300.468 196.814 309.717 206.745 309.717 226.607C309.717 250.983 300.017 267.685 280.392 276.713C272.046 280.324 264.602 282.13 258.06 282.13C231.667 282.13 213.396 257.98 203.47 209.679C200.087 193.88 198.056 178.757 197.38 164.538C196.477 150.319 196.252 125.266 196.252 89.6045C196.252 55.2975 196.477 34.5327 196.703 27.5359C196.928 20.5391 198.056 15.5736 199.635 12.6394C201.891 9.02816 205.726 5.8683 210.689 3.38556Z" fill="#8A84B7"/>
<path d="M323.477 16.7022C327.086 14.6709 334.305 13.7681 344.681 13.7681H358.667C378.518 13.9938 391.601 15.7994 398.369 18.7336C411.903 24.6019 423.408 33.1786 432.656 44.4638C449.574 65.0029 457.921 88.2504 457.921 114.432C457.921 140.614 449.8 161.604 433.559 177.403C417.768 192.977 394.985 200.877 365.66 201.102H364.081C337.688 201.102 317.386 194.783 303.401 182.369C289.415 169.729 282.422 151.673 282.422 127.749C282.422 121.88 282.873 115.335 284.001 108.338C286.257 91.1845 291.896 72.4511 300.694 52.3634C309.266 32.0501 316.935 20.3135 323.477 16.7022ZM386.413 76.0623C382.127 71.774 379.195 69.2912 377.39 68.3884C375.811 67.4856 371.976 67.2599 365.885 67.2599H353.479L348.516 78.0937C341.523 93.893 338.14 107.435 338.14 118.72C338.14 130.006 341.523 138.131 348.516 143.548C353.028 147.159 358.667 148.965 364.983 148.965C374.457 148.965 383.48 145.353 391.601 137.905C399.722 130.457 403.782 121.88 403.782 111.949C403.782 100.664 398.143 88.7018 386.413 76.0623Z" fill="#8A84B7"/>
<path d="M138.109 261.375C143.659 257.691 149.208 255.645 154.141 255.031L161.336 254.212C175.724 252.984 190.112 257.077 204.706 266.901C216.423 274.678 223.206 282.456 225.056 290.438L225.261 293.098C226.083 299.852 224.645 305.788 220.945 310.7C217.245 315.611 212.106 318.477 205.529 319.295C201.623 319.705 197.512 319.295 192.99 318.272C188.468 317.044 185.796 315.611 184.974 313.974C184.152 311.927 181.685 310.29 177.368 308.653C173.052 307.22 169.558 306.606 166.474 307.016C160.514 307.63 155.375 312.746 151.058 322.161C146.742 331.575 144.892 342.013 145.303 353.27C145.303 354.088 145.508 355.316 145.508 356.34C145.508 357.568 145.508 358.591 145.714 359.41C146.947 371.076 150.853 380.286 157.019 387.244C163.186 394.203 170.791 397.887 179.63 398.092L181.479 397.887C182.918 397.682 184.152 396.863 185.179 395.226C186.207 393.589 187.851 389.905 189.907 384.379C193.607 374.964 197.718 368.62 202.24 365.345C205.94 362.889 209.845 361.252 213.956 360.842C220.328 360.228 225.878 361.866 231.017 366.164C235.95 370.462 239.033 376.192 239.855 383.356C240.677 390.724 238.005 401.161 231.633 414.465C225.261 427.768 218.889 436.569 212.312 440.867C209.229 442.708 203.268 444.755 194.429 447.006C188.468 448.234 184.152 449.053 181.068 449.462C164.008 451.304 149.208 448.439 136.67 440.457C124.131 432.475 114.471 419.991 107.688 403.003C104.604 394.817 102.343 384.788 101.11 372.508C99.8767 360.842 99.6711 349.791 100.493 339.148C104.604 300.876 117.143 275.088 138.109 261.375Z" fill="#625E99"/>
<path d="M394.308 288.675C403.782 282.356 411.678 279.196 417.543 279.196H417.994C419.573 279.196 422.28 280.776 425.889 283.936C429.498 287.095 431.98 290.03 433.333 293.189C435.363 297.252 436.265 308.312 436.265 326.819C436.265 339.459 435.814 349.164 434.686 356.387C433.784 363.609 430.626 378.054 425.663 399.722C419.122 428.16 415.287 445.991 414.159 453.214C413.257 459.533 410.324 464.499 405.587 468.11C400.85 471.721 395.21 473.527 388.894 473.527C380.548 473.527 373.555 470.367 367.69 464.047C363.63 459.533 361.825 453.891 361.825 447.571V437.64L353.479 441.703C347.163 444.637 338.591 446.217 327.763 446.217C316.484 446.217 307.912 444.637 302.047 441.703C289.189 435.834 278.587 425.678 270.015 411.458C261.669 397.239 256.932 381.214 255.804 363.383V355.484C255.804 323.659 268.436 301.992 293.475 290.03C299.792 287.095 311.747 285.516 329.568 285.516C347.163 285.516 360.697 287.095 370.171 290.03L385.511 294.995L394.308 288.675ZM356.186 342.844C348.29 340.587 340.846 339.459 333.854 339.459C318.966 339.459 309.942 345.327 306.559 357.289C305.882 359.998 305.657 362.029 305.657 363.158C305.657 369.477 307.912 375.12 312.198 380.085C316.484 385.051 321.221 387.985 326.635 389.114H329.116C337.012 389.114 346.26 383.922 356.862 373.314C361.148 369.026 363.63 365.866 364.532 364.06C365.434 362.255 365.66 359.095 365.66 354.807V345.778L356.186 342.844Z" fill="#625E99"/>
<path d="M581.988 185.98C592.816 176.275 602.516 172.212 611.087 173.566C614.922 174.244 618.08 175.823 620.336 178.532C622.817 181.24 625.073 185.077 627.103 190.043C628.457 193.88 628.908 197.942 628.682 202.231C628.231 206.519 626.652 218.03 623.72 236.538C617.629 273.102 609.057 307.635 597.778 340.362C586.5 373.089 575.446 395.659 564.393 408.299C557.4 415.972 548.828 421.615 538.452 425.226C528.075 428.838 517.247 429.966 506.194 428.16C493.788 426.129 483.411 420.938 475.065 412.135C470.102 406.944 466.267 399.496 463.56 389.791C460.853 380.086 459.951 371.509 461.079 364.286C461.079 364.061 461.304 363.383 461.53 362.255C461.756 361.352 461.981 360.449 462.207 359.772C464.463 353.678 468.523 349.164 474.162 346.004C479.802 342.844 485.892 341.942 492.434 342.844C498.525 343.747 503.938 347.133 508.676 353.001C513.187 358.644 515.217 364.512 514.315 369.929C513.864 372.186 514.089 373.54 514.541 373.992C514.992 374.443 516.12 374.443 517.699 373.992C523.112 373.089 528.977 366.318 535.068 353.678C544.542 332.462 550.182 315.309 552.212 302.218C552.437 300.863 551.084 300.638 548.603 301.541C545.896 302.443 542.512 304.023 538.226 306.28C533.94 308.537 531.459 309.892 530.331 310.343C517.473 315.309 505.066 316.888 492.885 315.083C476.644 312.6 464.011 303.572 455.214 287.998C446.416 272.65 443.258 253.014 445.74 229.315L447.544 218.03C448.672 211.485 450.477 205.842 453.184 200.877C465.365 178.983 488.148 170.858 521.759 176.049C531.459 177.629 543.189 180.789 556.498 185.529L574.544 192.3L581.988 185.98ZM533.489 233.378C531.008 232.249 527.398 231.347 522.887 230.67C515.668 229.541 509.578 229.992 504.39 232.024C499.201 234.055 496.269 237.215 495.592 241.503C494.915 245.34 496.269 249.403 499.201 253.691C502.585 257.98 505.969 260.011 509.803 259.785C517.473 259.334 525.368 253.917 533.489 243.535L539.128 235.861L533.489 233.378Z" fill="#625E99"/>
<path d="M682.821 275.133C685.753 273.779 690.716 273.102 697.709 273.102C708.988 273.102 718.913 274.681 727.936 278.067C734.252 280.775 741.471 285.064 749.592 290.932C757.712 296.8 764.48 302.894 769.668 308.763C781.849 322.982 787.94 336.75 787.94 349.841C787.94 356.386 786.135 362.48 782.526 368.123C771.021 385.276 743.501 397.464 700.19 404.913C687.558 406.944 681.467 408.75 681.467 410.33C681.467 411.007 681.693 411.684 681.919 412.361C683.272 416.424 688.235 419.809 697.032 422.743C705.83 425.677 714.176 427.257 722.071 427.257C729.064 427.257 733.801 426.129 736.508 423.872C738.087 422.969 738.989 420.486 738.989 416.424C738.989 413.038 740.794 409.427 744.629 404.913C748.464 400.624 752.524 397.69 756.81 395.884C759.066 394.982 761.773 394.305 764.705 394.305C770.345 394.305 775.533 395.884 780.496 399.27C785.458 402.656 788.842 406.718 790.421 411.684C791.323 414.618 792 418.003 792 421.615C792 428.837 790.195 436.511 786.586 444.411C782.977 452.31 778.24 458.856 772.6 463.821C765.382 470.141 758.163 474.429 750.945 476.461C743.727 478.718 733.35 479.621 719.364 479.621C705.83 479.621 695.002 478.718 686.881 476.686C678.76 474.655 669.963 470.818 660.263 464.724C652.594 460.21 647.18 456.147 643.57 452.536C639.961 448.925 636.578 443.734 632.968 436.511C622.366 415.972 617.178 394.756 617.178 373.088C617.178 341.941 627.103 316.662 646.954 296.8C656.203 287.547 667.933 280.324 682.821 275.133ZM714.176 333.59C709.439 331.333 704.702 330.205 699.739 330.205C686.881 330.205 678.76 336.524 675.377 348.938C674.7 351.647 674.7 353.001 675.151 353.452C675.602 353.678 677.858 353.904 681.919 353.904C697.032 353.904 710.567 351.872 722.522 348.035L729.515 346.004L726.132 341.49C722.748 338.33 718.688 335.622 714.176 333.59Z" fill="#625E99"/>
</g>
<defs>
<clipPath id="clip0_21_553">
<rect width="792" height="497" fill="white"/>
</clipPath>
</defs>
</svg>
