<svg width="143" height="124" viewBox="0 0 143 124" fill="none" xmlns="http://www.w3.org/2000/svg">
<g clip-path="url(#clip0_23_1087)">
<path d="M143 48.1608C142.863 35.7055 136.819 23.9421 127.478 18.5448C123.082 15.9153 118.137 14.8082 113.191 15.2233L113.329 14.393L112.505 14.8082C111.955 13.8394 111.268 13.009 110.444 12.0403C102.889 2.90637 89.2894 1.66083 80.2231 0.830473L78.9868 0.692081C66.6237 -0.553455 54.3979 0.138509 45.0569 0.830473C35.3038 1.52244 22.3912 5.95101 14.9733 15.7769C11.127 21.0358 11.2644 26.2948 12.9128 30.1698C13.8744 40.9644 14.9733 49.6832 16.2096 57.8483L16.347 59.2323C17.3086 65.7367 18.2702 72.7948 20.1933 79.7144C12.7754 82.3439 4.12126 87.1876 1.09917 95.076C-1.09872 100.612 0.137592 106.701 4.396 111.683C11.8139 120.263 25.688 121.647 35.8532 122.616C37.2269 122.755 38.4632 122.893 39.5622 123.031C45.6064 123.723 51.7879 124.138 58.6563 124.138C64.7005 124.138 71.2942 123.862 78.5747 123.308C87.0915 122.616 94.2346 121.786 100.691 120.54L101.79 120.402C110.581 118.741 128.714 115.281 130.912 101.996C131.736 97.1519 130.362 92.3082 126.928 88.4332C125.28 86.4957 123.219 84.9733 121.021 83.5894C123.082 82.759 125.142 81.7903 127.066 80.5448C137.231 73.6251 143.138 61.7233 143 48.1608ZM96.1578 99.2278C96.2951 99.0894 96.2951 99.0894 96.4325 98.951C96.7072 98.951 96.8446 99.0894 97.1193 99.0894C96.7072 99.0894 96.4325 99.2278 96.1578 99.2278Z" fill="white"/>
<path d="M98.6301 73.9021C117.724 82.6208 134.346 68.3664 134.208 48.2994C134.071 32.1074 121.158 18.1298 106.323 26.4333C106.323 26.2949 106.323 26.2949 106.323 26.1565C107.01 23.9423 106.323 21.1744 103.575 17.7146C98.0807 10.9333 85.9923 10.103 78.1623 9.41101C67.4476 8.44226 56.4582 8.85744 45.7435 9.68779C37.2267 10.3798 27.3362 13.978 22.1162 21.036C20.0557 23.6655 20.3304 25.8798 21.5667 27.5405C22.3909 37.228 23.4899 46.9155 24.8636 56.603C26.2372 66.2905 27.7483 76.9467 31.732 85.9422C22.2536 87.0494 1.92312 95.4914 10.9894 105.871C16.8962 112.79 32.1441 113.206 40.5235 114.174C52.8866 115.558 65.5245 115.282 77.8876 114.313C84.8933 113.759 92.0365 112.929 99.0422 111.683C104.537 110.576 121.021 107.947 122.257 100.335C124.043 89.9556 103.438 85.1119 94.6465 85.3887C95.608 83.3128 96.4322 81.2369 97.1191 79.0226C97.6686 77.3619 98.218 75.7012 98.6301 73.9021ZM104.812 42.6253C107.696 40.5494 110.306 39.3039 114.153 40.2726C118.548 41.3798 120.746 45.5315 120.609 49.6833C120.609 53.9735 117.312 57.5717 113.741 59.3708C109.62 61.5851 105.911 60.0628 102.339 57.9869C103.301 53.0048 104.125 47.7458 104.812 42.6253ZM123.494 31.2771C128.027 35.4289 129.538 42.3485 129.813 48.2994C130.087 54.8039 128.302 61.7235 123.906 66.5672C117.45 73.9021 107.971 72.3798 99.7291 69.7503C100.279 67.3976 100.828 65.0449 101.378 62.5539C110.444 69.7503 123.768 60.0628 124.73 49.6833C125.554 39.8574 113.054 32.1074 105.361 36.9512C105.636 35.0137 105.773 32.9378 105.911 31.0003C111.817 28.094 118.136 26.2949 123.494 31.2771ZM27.1988 21.8664C30.3583 18.4065 35.4409 16.6074 39.6993 15.3619C46.293 13.286 53.9856 13.5628 60.9913 13.4244C69.2334 13.286 101.377 11.6253 102.614 24.4958C102.889 26.7101 100.279 28.2324 96.4322 29.2012C96.2949 29.0628 96.1575 28.9244 96.0201 28.786C87.366 23.1119 75.415 22.5583 65.5245 22.2815C54.9471 22.1431 41.3477 22.5583 32.2814 28.094C32.2814 28.094 32.2814 28.094 32.1441 28.094C28.2978 27.4021 23.4899 25.8798 27.1988 21.8664ZM93.1354 89.9556C97.8059 89.4021 123.356 95.9065 116.076 101.304C106.597 108.223 91.2123 108.915 79.8107 110.023C63.7387 111.545 47.2545 111.407 31.1825 108.639C26.2372 107.808 7.82995 104.902 15.5225 97.2905C19.9183 92.8619 27.3362 90.3708 33.3804 89.6789C40.7982 102.826 52.8866 104.764 67.8597 104.072C78.9865 103.518 86.9539 98.2592 92.1738 89.9556C92.4486 89.9556 92.7233 89.9556 93.1354 89.9556ZM71.2939 99.228C64.4255 100.612 56.3208 99.7815 49.5898 98.3976C40.9356 96.5985 37.0893 88.4333 34.342 80.6833C28.7099 64.7681 27.7483 47.1923 25.8251 30.4467C28.8472 31.6923 32.4188 32.2458 34.6167 32.2458C40.9356 34.5985 48.4908 34.7369 55.0845 35.2905C65.1124 35.9824 75.1402 36.1208 85.0307 35.1521C89.7012 34.7369 97.1191 33.6298 101.927 30.8619C100.141 42.7637 98.6301 54.8039 96.0201 66.5672C92.7233 81.5137 87.9154 96.0449 71.2939 99.228Z" fill="#EFBE2A"/>
<path d="M64.8377 77.7769C73.4919 74.0402 86.6792 61.5849 78.7118 51.2054C74.1787 45.2545 66.2114 50.3751 62.0903 55.3572C58.5188 50.0983 51.3756 47.0536 47.6667 54.5269C42.8588 63.9376 54.6725 74.1786 62.5024 77.5001C63.1893 77.9152 64.0135 78.192 64.8377 77.7769Z" fill="#EFBE2A"/>
</g>
<defs>
<clipPath id="clip0_23_1087">
<rect width="143" height="124" fill="white"/>
</clipPath>
</defs>
</svg>
