<svg width="135" height="199" viewBox="0 0 135 199" fill="none" xmlns="http://www.w3.org/2000/svg">
<g clip-path="url(#clip0_17_1115)">
<path d="M45.0586 197.954C44.224 197.787 43.2225 197.62 42.3879 197.453C32.5394 194.78 26.0294 186.762 25.0279 176.74C19.5194 171.896 16.014 165.716 14.6786 158.366C13.5102 150.849 12.3417 139.824 14.5117 129.802L15.1794 127.297C16.5148 122.953 18.5179 118.945 21.5225 115.437L22.0233 111.094C21.1886 109.256 19.5194 107.085 17.0156 104.078C15.0125 101.572 12.8425 98.7328 10.8394 95.5591C7.8348 90.7149 4.16249 84.0334 2.15942 76.3496C-1.51289 61.6501 -0.177505 47.1177 6.16557 35.2579C19.6863 9.86795 49.2317 -3.9963 77.9425 1.85007C109.157 8.03052 139.37 36.4272 133.862 71.5054C131.191 88.0423 122.845 101.071 109.658 109.59C106.987 111.261 104.316 112.597 101.812 113.766C99.4755 114.769 97.4725 115.938 95.8032 116.94C93.2994 118.61 91.6301 120.782 89.9609 124.29C91.7971 129.301 92.2978 134.479 92.2978 139.323L92.1309 142.33C91.1294 155.192 85.9548 166.551 83.6179 170.894C80.2794 177.408 75.1048 182.085 68.4279 184.758C66.5917 188.6 63.9209 191.774 60.4155 194.279C55.7417 197.453 50.4002 198.789 45.0586 197.954Z" fill="white"/>
<path d="M75.9394 12.0395C51.9025 7.19534 26.864 18.721 15.3463 40.2691C9.83787 50.4585 9.50402 62.6523 12.3417 73.6769C13.844 79.5233 16.6817 84.8686 19.8533 90.0468C26.0294 100.236 36.2117 106.417 32.5394 119.78C32.3725 119.78 32.2056 119.947 32.0386 120.114C21.6894 127.297 23.1917 146.172 25.1948 156.695C26.5302 163.544 30.3694 168.388 35.7109 171.729C34.7094 178.912 37.8809 185.593 45.2256 187.598C52.4032 189.435 59.5809 183.422 60.2486 176.406C66.0909 175.237 71.2655 172.063 74.4371 166.05C80.4463 154.691 84.9532 137.653 79.2779 125.459C79.1109 125.125 78.944 124.791 78.7771 124.624C81.114 118.109 84.1186 112.43 90.1279 108.421C94.4678 105.414 99.8094 103.744 104.316 100.904C115.333 93.8887 121.843 82.8641 123.846 70.0021C128.186 40.7702 101.812 17.2177 75.9394 12.0395ZM52.7371 114.602C53.0709 105.748 53.4048 97.7306 49.5656 89.5457C46.8948 84.0334 44.0571 79.1892 43.0556 73.0088C41.3863 62.8194 48.7309 52.463 59.7479 55.4697C60.7494 55.8037 61.7509 56.3049 62.7525 57.1401C55.9086 61.149 51.5686 69.501 58.2456 75.6814C62.7525 79.8574 72.434 78.6881 73.4356 71.8395C74.1032 67.3294 72.434 62.3183 69.4294 58.4764C78.2763 57.3071 86.9563 65.1579 84.2855 74.6792C80.9471 86.0378 69.5963 88.8775 62.7525 96.7283C55.5748 104.913 55.9086 120.615 56.0756 131.807C55.4079 131.807 54.7402 131.807 54.0725 131.64C53.2379 131.473 52.4032 131.473 51.7356 131.305C52.904 125.96 52.5702 119.947 52.7371 114.602ZM64.4217 74.8462C55.074 74.1781 59.414 63.4875 64.7556 60.4808C65.0894 60.3138 65.2563 60.1468 65.5902 59.9797C70.5979 65.9931 73.4355 75.5144 64.4217 74.8462ZM75.1048 130.303C76.2732 134.312 76.4402 138.655 75.7725 143.165C63.754 153.355 34.7094 147.341 30.5363 131.473C31.204 129.468 32.0386 127.464 33.2071 125.793C42.054 138.822 64.9225 142.831 75.1048 130.303ZM72.2671 156.862C60.2486 166.217 39.7171 160.37 29.3679 149.68C28.8671 145.671 28.7002 141.328 29.2009 137.152C35.0432 150.515 61.4171 154.524 74.9379 147.508C74.2702 150.682 73.2686 153.856 72.2671 156.862ZM45.7263 182.252C41.3863 181.417 41.0525 177.742 40.7186 174.068C42.3879 174.736 44.0571 175.237 45.8932 175.738C48.7309 176.406 51.7356 176.907 54.5732 176.907C52.904 180.415 50.734 183.088 45.7263 182.252ZM50.0663 171.061C40.8856 169.724 32.5394 165.214 30.3694 155.86C30.2025 155.359 30.2025 155.025 30.0356 154.524C34.5425 158.533 40.8856 161.038 45.3925 162.375C53.7386 164.546 62.7525 165.214 70.264 161.54C66.4248 169.056 59.9148 172.397 50.0663 171.061ZM112.662 82.363C107.321 93.2205 96.9717 96.3943 87.4571 102.074C79.1109 107.252 74.604 114.267 73.2686 123.789C68.5948 128.132 64.4217 131.138 58.5794 131.807C59.5809 121.116 59.7479 103.577 67.2594 97.8976C77.2748 90.2138 91.4632 81.5278 88.6255 66.6613C86.9563 57.9753 74.7709 53.7993 66.7586 55.8037C62.4186 51.7948 56.4094 49.9574 50.734 52.2959C37.8809 57.6412 37.714 72.6747 42.7217 83.6993C44.5579 87.7082 46.5609 91.3831 48.3971 95.392C50.4002 99.9021 49.5656 106.751 49.3986 111.428C49.3986 117.775 49.0648 124.29 48.7309 130.637C44.0571 128.967 39.5502 125.96 36.5456 122.118C36.5456 122.118 36.5456 121.951 36.7125 121.951C41.3863 112.263 38.3817 104.245 32.2056 95.8932C23.3586 83.6993 15.8471 72.6747 17.0156 56.973C18.8517 30.9149 45.7263 16.2155 69.4294 17.8858C100.978 19.8903 127.519 51.9618 112.662 82.363Z" fill="#6BC1BC"/>
</g>
<defs>
<clipPath id="clip0_17_1115">
<rect width="134.373" height="197.774" fill="white" transform="translate(0.139648 0.521484)"/>
</clipPath>
</defs>
</svg>
