<svg width="156" height="130" viewBox="0 0 156 130" fill="none" xmlns="http://www.w3.org/2000/svg">
<g clip-path="url(#clip0_17_1103)">
<path d="M9.6111 129.862C6.87243 129.862 4.13376 128.559 2.43839 126.475C0.743023 124.39 0.0909586 121.654 0.743023 119.048L5.43789 98.3312L5.95954 96.1162L6.61161 93.5104C7.78532 88.5592 12.3498 85.8231 15.6101 83.7384C16.2622 83.3475 16.7838 83.0869 17.1751 82.6961C22.1307 79.0479 26.956 75.2694 31.7813 71.4909C40.9102 64.455 49.9087 57.2889 58.9072 50.1228L73.383 38.5267C74.1655 37.8752 74.948 37.2238 75.7305 36.5723C76.9042 35.53 78.3387 34.3573 79.7733 33.1847C83.164 24.455 89.163 19.7645 95.5532 14.9437L95.9445 14.6831C96.5965 14.1619 97.379 13.6407 98.0311 12.9893C102.074 9.73193 107.421 5.17167 114.202 5.04138C116.028 5.04138 117.723 5.17167 119.549 5.43226C123.462 2.17493 128.417 0.35083 133.764 0.35083C140.676 0.35083 147.066 3.47786 151.37 8.95017C155.022 13.6407 156.326 19.3736 155.152 25.1065C154.109 29.9274 151.24 34.4876 147.197 37.8752C147.588 44.5202 145.371 50.2531 140.937 54.2922C139.894 55.2042 138.85 56.2466 137.677 57.2889C135.329 59.3736 132.851 61.8492 130.113 64.0641L125.939 67.1912C121.636 70.1879 116.811 72.4029 111.594 72.6635L110.29 73.5755C90.0759 88.8198 69.4706 104.716 48.8654 120.09C48.3437 120.481 47.6917 121.002 47.0396 121.523C44.4314 123.869 40.7798 126.996 36.0849 127.517C35.0416 127.647 33.9983 127.777 32.955 127.777L30.738 128.038C29.8251 128.168 28.7818 128.168 27.8689 128.299C26.4344 128.429 24.8694 128.559 23.3045 128.82C18.8704 129.341 14.306 129.732 9.74152 129.862H9.6111Z" fill="white"/>
<path d="M145.762 13.1199C139.633 5.17204 127.635 5.30233 121.636 13.1199C119.419 12.2079 116.941 11.817 114.463 11.817C109.116 11.9473 104.16 17.0287 100.117 20.1557C93.5968 25.1069 88.2499 29.146 85.6416 37.2241C85.6416 37.3544 85.6416 37.4847 85.6416 37.615C82.7726 39.3088 80.1643 42.045 77.6864 43.9994C72.8612 47.9082 68.0359 51.817 63.0802 55.5955C54.0817 62.7616 45.0832 69.9277 35.9543 76.9635C31.129 80.742 26.1733 84.5205 21.2176 88.299C19.131 89.8625 13.7841 92.2078 13.132 95.0743C11.1758 103.543 9.21965 112.143 7.26345 120.612C7.00263 121.915 8.30676 122.957 9.48047 122.827C15.3491 122.696 21.2176 121.915 27.0862 121.263C29.8249 121.003 32.5636 120.742 35.4327 120.481C38.693 120.091 42.0837 116.312 44.5616 114.358C65.2972 98.8528 85.9025 83.2176 106.377 67.4521C106.377 67.4521 106.377 67.4521 106.508 67.3218C107.29 66.6704 107.942 66.1492 108.464 65.4977C118.767 66.6704 129.069 55.0743 136.111 48.8202C140.285 45.0417 140.806 39.5694 139.502 34.3577C147.327 30.3186 151.631 20.6769 145.762 13.1199ZM110.681 17.5499C116.549 21.3284 121.505 24.4554 125.809 30.4489C129.852 36.1818 131.808 40.8723 131.417 47.6476C130.243 48.6899 129.069 49.8626 127.765 51.0352C129.46 38.9179 115.637 23.1525 103.899 22.2404C106.116 20.6769 108.464 19.1134 110.681 17.5499ZM40.7796 78.2664C53.9513 67.9733 66.9926 57.5499 80.0339 47.1264C86.2937 42.045 91.2494 36.9635 99.8567 40.2209C99.8567 40.2209 99.8567 40.2209 99.9871 40.2209C86.6849 49.9929 73.9045 60.4163 60.9936 70.7094C50.2997 79.1785 38.9538 87.2567 29.0424 96.5075C26.5646 94.8137 23.8259 93.641 21.2176 93.3804C27.7383 88.4293 34.2589 83.3479 40.7796 78.2664ZM31.129 98.071C42.3445 91.0352 52.5167 81.5238 62.8194 73.3153C75.9911 62.8919 89.2932 52.3381 102.465 41.5238C104.943 43.0873 106.769 45.172 107.942 47.6476C96.2051 54.6834 85.6416 64.716 74.9478 73.185C62.0369 83.6085 49.126 93.7713 36.476 104.195C35.0414 101.98 33.2156 99.8951 31.129 98.071ZM26.8254 117.354C24.7388 117.615 22.6522 117.745 20.5656 118.006C19.5223 115.009 17.0444 110.709 13.7841 110.97C14.4362 107.973 15.0882 105.107 15.7403 102.11C16.2619 99.7648 16.3924 98.071 17.3053 96.7681C28.2599 97.2892 35.3022 105.758 35.0414 116.573C32.1723 116.833 29.4337 117.094 26.8254 117.354ZM47.1698 107.582C45.344 108.885 42.0837 112.143 39.2146 114.358C39.4755 111.752 38.8234 109.016 37.6497 106.41C50.9518 96.6378 63.8627 86.2143 76.7736 75.7909C87.337 67.3218 98.8133 59.374 108.725 50.1231C110.159 55.2046 108.855 60.9375 104.421 64.716C85.12 78.6573 66.2101 93.3805 47.1698 107.582ZM103.639 37.8756C99.8566 35.1394 95.0314 34.6183 90.5973 35.6606C91.9015 33.5759 93.4664 31.6215 95.1618 29.7974C102.074 32.5336 107.551 34.488 112.376 40.8723C114.854 44.1297 116.289 47.7779 117.071 51.6867C117.593 54.4228 116.941 57.0287 116.81 59.6345C114.985 60.5466 113.159 61.3283 111.333 61.5889C115.506 53.5108 111.855 43.8691 103.639 37.8756ZM120.201 57.5499C121.505 51.4261 117.723 43.6085 114.724 39.1785C111.072 33.9668 103.378 28.1036 96.4659 28.6248C98.2917 26.8007 100.378 25.1069 102.465 23.4131C108.725 26.5401 114.072 29.146 118.767 34.8789C123.853 41.0026 123.201 47.2567 124.505 54.1622C123.07 55.3349 121.636 56.3772 120.201 57.5499ZM134.286 44.7811C134.546 40.4815 131.547 35.4 129.591 32.1427C125.809 25.8886 119.679 18.3316 112.115 16.8984C119.288 13.1199 127.504 21.589 131.286 26.6704C134.938 31.7518 137.807 39.3088 134.286 44.7811ZM125.026 14.8137C130.634 10.3838 137.024 9.99288 142.371 15.7258C147.457 21.0678 142.632 26.8007 138.198 30.4489C137.676 29.146 137.024 27.843 136.372 26.8007C133.503 22.1101 129.721 17.5499 125.026 14.8137Z" fill="#E397B5"/>
</g>
<defs>
<clipPath id="clip0_17_1103">
<rect width="155.191" height="129.642" fill="white" transform="translate(0.351562 0.220703)"/>
</clipPath>
</defs>
</svg>
