<svg width="737" height="333" viewBox="0 0 737 333" fill="none" xmlns="http://www.w3.org/2000/svg">
<path d="M7.31561 43.0387C11.0104 38.5113 15.9368 36.0418 22.5054 35.2187C27.0212 34.8071 31.5371 35.6302 35.6425 37.2766C40.5689 39.3345 44.6742 42.6272 47.548 46.743C50.0112 50.8588 54.9376 53.3283 61.9166 54.1515C106.254 58.2673 139.918 70.6148 163.729 91.194C180.561 105.599 190.824 123.297 194.519 144.288C194.519 145.111 194.93 145.935 194.93 147.581C195.34 149.227 195.34 150.462 195.34 150.873C197.393 170.629 193.288 192.443 183.845 215.492C173.992 238.541 162.087 255.827 147.308 266.528C133.35 276.406 116.928 282.169 98.0436 283.815C91.4751 284.638 85.7276 284.638 79.5696 284.226L66.8431 282.992L64.3799 287.931C61.0956 295.339 54.1165 299.455 44.2637 300.69C40.9794 301.101 36.8741 300.278 31.9477 298.22C27.0212 296.162 23.737 294.104 22.0948 292.046C17.9895 285.873 13.0631 255.827 8.13668 201.498C4.44187 163.633 1.97867 131.529 1.1576 105.188C0.747065 80.4928 0.336531 64.8526 1.1576 58.2673C1.97867 52.0936 4.03134 46.743 7.31561 43.0387ZM77.1064 108.892C75.0537 108.892 72.5905 108.48 70.1273 108.069C67.2536 107.657 65.2009 107.246 63.9693 106.834C62.7377 106.834 61.5061 106.423 60.685 106.834C58.6324 107.246 56.9902 108.069 56.9902 109.304C56.5797 110.95 56.5797 114.243 56.5797 119.182C56.5797 120.005 56.5797 120.416 56.5797 120.828C56.5797 121.24 56.5797 121.651 56.5797 122.063C56.5797 122.474 56.5797 123.297 56.5797 123.709C57.8113 148.816 58.6324 168.16 59.864 181.742C61.9166 210.965 63.1483 226.605 63.1483 228.251L62.7377 233.602L83.675 231.544C93.9383 230.721 100.507 229.486 102.97 229.074C105.433 228.251 108.718 226.605 112.412 224.135C122.676 216.727 130.476 207.672 135.813 196.559C141.56 184.212 144.023 172.276 143.202 161.575C141.971 147.992 135.402 136.88 124.318 127.825C112.412 118.358 96.812 112.185 77.1064 108.892Z" fill="#8A84B7"/>
<path d="M463.419 40.1577C469.988 36.8651 476.146 35.2188 481.893 35.2188H489.693C505.704 35.6303 520.894 42.2157 535.673 54.5632C547.579 64.4411 554.147 73.9076 554.968 82.9624V85.8435C554.968 93.6635 552.505 99.8373 547.989 104.776C543.473 109.715 537.315 112.185 529.926 112.185C525.41 112.185 520.894 111.362 516.378 109.304C511.451 107.657 508.988 105.599 508.167 103.542C507.346 101.072 504.883 99.0141 500.367 96.9562C495.851 94.8983 492.156 93.6635 488.462 93.6635C481.893 93.6635 475.735 98.6025 469.577 108.481C463.83 118.359 460.545 129.471 459.314 142.23C459.314 143.054 459.314 144.288 458.903 145.935C458.903 147.169 458.493 148.404 458.493 149.639C458.493 162.809 461.366 173.511 467.524 181.742C473.682 190.386 481.483 195.325 490.925 196.559H492.977C494.62 196.559 496.262 195.736 497.493 194.09C498.725 192.443 501.188 188.739 504.062 182.565C509.399 172.687 514.736 166.102 520.073 163.221C524.589 160.752 528.694 159.517 533.62 159.517C540.599 159.517 546.757 161.986 551.684 167.337C556.61 172.687 559.073 179.273 559.073 187.504C559.073 195.736 554.558 206.849 545.936 220.843C537.315 234.837 529.104 243.48 521.304 247.596C517.61 249.242 511.041 250.888 500.778 252.123C494.209 252.946 489.283 252.946 485.998 252.946C467.114 252.946 451.103 247.596 438.376 237.306C425.65 227.016 416.618 211.788 411.281 192.443C408.818 182.977 407.586 171.453 407.586 157.87C407.586 144.7 408.818 132.352 411.281 120.828C421.955 79.2581 439.197 52.5052 463.419 40.1577Z" fill="#8A84B7"/>
<path d="M600.948 147.169C604.643 145.111 611.622 144.288 622.296 144.288H636.254C655.959 144.7 669.507 146.346 676.076 149.227C689.623 155.401 701.118 164.044 710.56 175.157C727.392 195.736 736.014 219.196 736.014 245.537C736.014 271.879 727.803 292.87 711.792 308.921C695.781 324.561 673.202 332.382 643.643 332.793H642.001C615.317 332.793 595.2 326.619 581.242 313.86C567.284 301.101 559.894 282.992 559.894 259.12C559.894 252.946 560.305 246.772 561.537 239.775C564 222.489 569.337 203.556 578.368 183.388C586.579 162.809 594.379 150.873 600.948 147.169ZM664.17 206.849C659.654 202.733 656.78 199.852 655.138 199.029C653.496 198.205 649.801 197.794 643.643 197.794H631.327L626.401 208.907C619.422 224.958 616.138 238.541 616.138 249.653C616.138 260.766 619.422 269.409 626.401 274.76C630.917 278.464 636.664 280.11 642.822 280.11C652.265 280.11 661.296 276.406 669.507 268.998C677.718 261.589 681.823 252.946 681.823 242.656C681.823 231.544 676.076 219.608 664.17 206.849Z" fill="#8A84B7"/>
<path d="M275.805 80.0811C279.089 78.8464 284.016 78.0232 291.405 78.0232C302.9 78.0232 313.574 79.6695 322.606 83.3738C329.174 86.2549 336.564 90.7823 344.775 96.956C352.985 103.13 359.964 109.304 365.712 115.477C378.438 130.294 384.596 144.288 384.596 158.282C384.596 165.279 382.544 171.453 378.849 177.215C366.943 194.913 338.617 207.672 293.458 215.492C280.321 217.55 273.752 219.608 273.752 221.254C273.752 222.077 273.752 222.489 274.163 223.312C275.394 227.428 280.731 231.132 289.763 234.013C298.795 237.306 307.416 238.541 315.627 238.541C323.016 238.541 327.943 237.306 330.406 234.836C332.048 233.602 332.869 231.132 332.869 227.016C332.869 223.724 334.922 219.608 338.617 215.08C342.722 210.553 346.827 207.672 351.343 205.614C353.806 204.791 356.68 203.968 359.554 203.968C365.301 203.968 371.049 205.614 375.975 209.318C381.312 212.611 384.596 217.138 386.239 222.077C387.47 225.37 387.881 228.663 387.881 232.367C387.881 239.775 385.828 248.007 382.133 256.239C378.438 264.47 373.512 271.056 367.765 276.406C360.375 282.992 352.985 287.107 345.596 289.577C338.206 291.635 327.532 292.87 313.163 292.87C299.205 292.87 287.71 291.635 279.5 289.577C271.289 287.519 261.847 283.403 251.994 277.229C244.194 272.29 238.446 268.175 234.751 264.47C231.057 260.766 227.362 255.415 223.667 247.595C212.583 226.193 207.246 204.379 207.246 181.742C207.246 149.639 217.509 122.886 238.036 102.307C248.299 93.2518 260.615 85.8433 275.805 80.0811ZM308.237 140.995C303.311 138.526 298.384 137.291 293.458 137.291C279.91 137.291 271.7 143.876 268.415 157.047C267.594 159.928 267.594 161.163 268.005 161.575C268.415 161.986 270.878 161.986 274.984 161.986C290.584 161.986 304.953 159.928 317.269 155.812L324.658 153.754L320.964 149.227C317.269 145.523 313.164 143.053 308.237 140.995Z" fill="#8A84B7"/>
<path d="M262.257 1.88019C269.236 3.93811 274.573 8.46552 277.858 15.4624C280.731 21.2246 281.552 26.1636 279.5 29.8678C277.447 33.5721 269.647 43.4501 255.278 59.5018C242.552 74.3188 234.341 82.962 231.467 85.8431C228.594 88.7242 225.309 89.959 221.614 89.5474C216.277 89.1358 211.351 86.6663 206.425 82.1389C201.498 77.6115 198.214 73.084 197.393 67.7335C196.161 64.0292 196.572 60.7366 199.035 57.4439C201.088 54.1512 208.888 45.0964 222.025 30.2794C235.573 14.6393 244.194 5.58444 248.299 3.11494C251.583 0.233859 256.51 -0.177724 262.257 1.88019Z" fill="#8A84B7"/>
</svg>
