<svg width="192" height="293" viewBox="0 0 192 293" fill="none" xmlns="http://www.w3.org/2000/svg">
<path d="M79.8049 80.0811C83.0892 78.8464 88.0156 78.0232 95.4052 78.0232C106.9 78.0232 117.574 79.6695 126.606 83.3738C133.174 86.2549 140.564 90.7823 148.775 96.956C156.985 103.13 163.964 109.304 169.712 115.477C182.438 130.294 188.596 144.288 188.596 158.282C188.596 165.279 186.544 171.453 182.849 177.215C170.943 194.913 142.617 207.672 97.4579 215.492C84.3208 217.55 77.7522 219.608 77.7522 221.254C77.7522 222.077 77.7522 222.489 78.1628 223.312C79.3944 227.428 84.7313 231.132 93.7631 234.013C102.795 237.306 111.416 238.541 119.627 238.541C127.016 238.541 131.943 237.306 134.406 234.836C136.048 233.602 136.869 231.132 136.869 227.016C136.869 223.724 138.922 219.608 142.617 215.08C146.722 210.553 150.827 207.672 155.343 205.614C157.806 204.791 160.68 203.968 163.554 203.968C169.301 203.968 175.049 205.614 179.975 209.318C185.312 212.611 188.596 217.138 190.239 222.077C191.47 225.37 191.881 228.663 191.881 232.367C191.881 239.775 189.828 248.007 186.133 256.239C182.438 264.47 177.512 271.056 171.765 276.406C164.375 282.992 156.985 287.107 149.596 289.577C142.206 291.635 131.532 292.87 117.164 292.87C103.205 292.87 91.7104 291.635 83.4997 289.577C75.289 287.519 65.8468 283.403 55.9939 277.229C48.1938 272.29 42.4463 268.175 38.7515 264.47C35.0567 260.766 31.3619 255.415 27.6671 247.595C16.5827 226.193 11.2457 204.379 11.2457 181.742C11.2457 149.639 21.5091 122.886 42.0358 102.307C52.2991 93.2518 64.6151 85.8433 79.8049 80.0811ZM112.237 140.995C107.311 138.526 102.384 137.291 97.4579 137.291C83.9103 137.291 75.6996 143.876 72.4153 157.047C71.5942 159.928 71.5942 161.163 72.0048 161.575C72.4153 161.986 74.8785 161.986 78.9839 161.986C94.5842 161.986 108.953 159.928 121.269 155.812L128.658 153.754L124.964 149.227C121.269 145.523 117.164 143.053 112.237 140.995Z" fill="#8A84B7"/>
<path d="M66.2573 1.88019C73.2364 3.93811 78.5733 8.46552 81.8576 15.4624C84.7313 21.2246 85.5524 26.1636 83.4997 29.8678C81.4471 33.5721 73.6469 43.4501 59.2782 59.5018C46.5517 74.3188 38.341 82.962 35.4672 85.8431C32.5935 88.7242 29.3092 89.959 25.6144 89.5474C20.2775 89.1358 15.3511 86.6663 10.4247 82.1389C5.49825 77.6115 2.21399 73.084 1.39292 67.7335C0.161319 64.0292 0.571844 60.7366 3.03505 57.4439C5.08772 54.1512 12.8879 45.0964 26.025 30.2794C39.5726 14.6393 48.1938 5.58444 52.2991 3.11494C55.5834 0.233859 60.5098 -0.177724 66.2573 1.88019Z" fill="#8A84B7"/>
</svg>
