<svg id="Calque_1" data-name="Calque 1" xmlns="http://www.w3.org/2000/svg" viewBox="0 0 713.63 437.28"><defs><style>.cls-1{fill:#efbf2b;}</style></defs><path class="cls-1" d="M150.16,201.63q5.51-3.6,8.93-3.61h.19c.64,0,1.65.6,3.05,1.81a10.58,10.58,0,0,1,2.85,3.51q1.14,2.29,1.14,12.94a86.52,86.52,0,0,1-.57,11.31q-.57,4.09-3.42,16.65-3.81,16.35-4.38,20.54a8.54,8.54,0,0,1-3.32,5.7,10.25,10.25,0,0,1-6.38,2.1,10.9,10.9,0,0,1-8.18-3.62,9.32,9.32,0,0,1-2.28-6.27v-3.81l-3.23,1.52q-3.62,1.73-9.89,1.72-6.47,0-9.89-1.72a27.82,27.82,0,0,1-12.27-11.6,40,40,0,0,1-5.42-18.45v-3q0-18.26,14.46-25.11,3.6-1.71,13.88-1.71,10.08,0,15.6,1.71l5.89,1.91Zm-14.65,20.73A30.93,30.93,0,0,0,127,221q-8.55,0-10.46,6.85a10.73,10.73,0,0,0-.38,2.28,10.48,10.48,0,0,0,8,9.89h1q4.56,0,10.65-6.08a16.12,16.12,0,0,0,3-3.52,9.44,9.44,0,0,0,.47-3.52v-3.42Z"/><path class="cls-1" d="M201.89,179.57a9.76,9.76,0,0,1,5.7-1.71,10.35,10.35,0,0,1,8.94,4.56c1.14,1.52,1.78,5.46,1.91,11.79l.19,9.52,2.66.38a76.47,76.47,0,0,0,8.75.38q9.51,0,12.74,4.94A9.75,9.75,0,0,1,244.3,215q0,6.27-4.94,9.32-2.1,1.14-7.23,1.14H228l-8.94-.19.57,7a173.86,173.86,0,0,0,2.75,19.5c1.34,6.78,2.44,10.18,3.33,10.18,1.4,0,2.6-1.78,3.62-5.33A32.38,32.38,0,0,0,230,249q0-4.76,1.71-7.23a10.22,10.22,0,0,1,17.5,0q1.51,2.1,1.52,8.56,0,21.32-14.65,30.63-6.66,4.19-12.17,4.18a14,14,0,0,1-11.22-5.52q-10.47-12.74-13.89-50.21l-.57-5.51h-2.66a8.88,8.88,0,0,1-4.85-1.53,9.92,9.92,0,0,1-3.52-3.61,10.16,10.16,0,0,1-1-4.56q0-5,2.28-7.23c2.29-2.54,4.63-3.81,7-3.81.63,0,1-.41,1.14-1.23s.19-3.27.19-7.32c0-4.95.32-8.37.95-10.28A9,9,0,0,1,201.89,179.57Z"/><path class="cls-1" d="M296.22,197.45a15.29,15.29,0,0,1,5.71-.76,33.17,33.17,0,0,1,11.6,1.9,42.57,42.57,0,0,1,8.28,4.94,50.27,50.27,0,0,1,7.7,6.85q7,8.19,7,15.79a12.68,12.68,0,0,1-2.1,7q-6.66,9.89-31.57,14.07-7.23,1.14-7.23,2.09a1.74,1.74,0,0,0,.19.76c.51,1.52,2.44,2.86,5.81,4a29.83,29.83,0,0,0,9.6,1.71q4,0,5.52-1.33c.63-.38,1-1.33,1-2.86q0-1.89,2.18-4.37a12.12,12.12,0,0,1,4.66-3.42,7.72,7.72,0,0,1,3.05-.57,10.75,10.75,0,0,1,6.08,1.9,9.17,9.17,0,0,1,3.81,4.75,12,12,0,0,1,.57,3.81A21.08,21.08,0,0,1,336,262.5a21.86,21.86,0,0,1-5.33,7.41,23.08,23.08,0,0,1-8.27,4.85Q318.28,276,310.3,276a54.47,54.47,0,0,1-12.46-1.14,35.55,35.55,0,0,1-10.17-4.57,35,35,0,0,1-6.38-4.66,24,24,0,0,1-4.08-6.18,52.41,52.41,0,0,1-6.09-24.34q0-17.88,11.41-29.29A34.89,34.89,0,0,1,296.22,197.45Zm12,22.44a12.33,12.33,0,0,0-5.52-1.33q-7.41,0-9.32,7.23-.37,1.52-.09,1.71a8.26,8.26,0,0,0,2.56.19,49.25,49.25,0,0,0,15.6-2.28l2.66-.76-1.33-1.71A14.42,14.42,0,0,0,308.21,219.89Z"/><path class="cls-1" d="M363.17,170.44a16.39,16.39,0,0,1,4.57-1.33,14.32,14.32,0,0,1,4.75,1.33,10.49,10.49,0,0,1,4.38,4.37q1.51,3,1.52,21.31,0,29.67,2.09,47l.76,6.46,2.85-2.47a9.39,9.39,0,0,1,6.28-2.47Q401,244.62,401,256q0,14.07-11.22,19.21a21.51,21.51,0,0,1-8.56,2.09q-15.23,0-20.92-27.77a118.83,118.83,0,0,1-2.38-17.31q-.48-8.17-.47-28.72,0-19.77.19-23.77a13.75,13.75,0,0,1,1.14-5.71A10.36,10.36,0,0,1,363.17,170.44Z"/><path class="cls-1" d="M429.55,208.48a10.9,10.9,0,0,1,4.94-1.14q5.89,0,8.56,4.75a11.61,11.61,0,0,1,1.33,5.9q0,2.1-1.52,28-1.33,19.4-2.09,23.2a9.77,9.77,0,0,1-3.8,6.09c-1.15,1-3.05,1.52-5.71,1.52a10.14,10.14,0,0,1-9.13-5.32,10.42,10.42,0,0,1-1.14-5.33q0-3,.57-12.74c.13-1.91.38-6.37.76-13.41s.7-11.82.95-14.36Q424,215.71,425,213T429.55,208.48ZM433.73,176a7.07,7.07,0,0,0,.86-.1,8.2,8.2,0,0,1,1.05-.09,10.1,10.1,0,0,1,7.7,3.13,11.38,11.38,0,0,1,3,8.09,26.62,26.62,0,0,1-.76,4.94,11.25,11.25,0,0,1-3.9,5.9,9.94,9.94,0,0,1-6.18,2.09,10.62,10.62,0,0,1-8.37-4,9.68,9.68,0,0,1-2.29-6.85,15.42,15.42,0,0,1,2.67-8.75Q430.12,176.34,433.73,176Z"/><path class="cls-1" d="M491,197.45a15.26,15.26,0,0,1,5.71-.76,33.17,33.17,0,0,1,11.6,1.9,42.24,42.24,0,0,1,8.27,4.94,49.91,49.91,0,0,1,7.71,6.85q7,8.19,7,15.79a12.67,12.67,0,0,1-2.09,7q-6.66,9.89-31.57,14.07-7.23,1.14-7.23,2.09a1.61,1.61,0,0,0,.19.76c.51,1.52,2.44,2.86,5.8,4a29.89,29.89,0,0,0,9.61,1.71q4,0,5.51-1.33c.64-.38,1-1.33,1-2.86q0-1.89,2.19-4.37a12.05,12.05,0,0,1,4.66-3.42,7.67,7.67,0,0,1,3-.57,10.76,10.76,0,0,1,6.09,1.9,9.22,9.22,0,0,1,3.81,4.75,12,12,0,0,1,.57,3.81,21,21,0,0,1-2.1,8.75,21.84,21.84,0,0,1-5.32,7.41,23,23,0,0,1-8.28,4.85Q513.05,276,505.06,276a54.41,54.41,0,0,1-12.46-1.14,35.72,35.72,0,0,1-10.18-4.57,34.46,34.46,0,0,1-6.37-4.66,24.24,24.24,0,0,1-4.09-6.18,52.39,52.39,0,0,1-6.08-24.34q0-17.88,11.41-29.29A34.89,34.89,0,0,1,491,197.45Zm12,22.44a12.25,12.25,0,0,0-5.51-1.33q-7.43,0-9.32,7.23c-.26,1-.29,1.58-.1,1.71a8.35,8.35,0,0,0,2.57.19,49.34,49.34,0,0,0,15.6-2.28l2.66-.76-1.33-1.71A14.35,14.35,0,0,0,503,219.89Z"/><path class="cls-1" d="M557.36,198a10.5,10.5,0,0,1,5.7-1.33A11,11,0,0,1,569,198a10.65,10.65,0,0,1,3.14,3.61,9.06,9.06,0,0,1,1.43,4.38c0,.76.12,1.08.38,1a7.7,7.7,0,0,0,2.28-1.71q6.07-5.33,15.4-5.33a21.76,21.76,0,0,1,9.7,1.9q9.71,5.15,10.84,21.3a41.48,41.48,0,0,1,.19,4.19,6.32,6.32,0,0,1-1.71,4.37,10.44,10.44,0,0,1-8.37,4.19h-1.33a9.46,9.46,0,0,1-6.75-3.52,11.77,11.77,0,0,1-2.57-7.7c0-1.65-.12-2.48-.38-2.48s-.38,0-.76.38q-3.42,2.67-4.75,9.7-.57,3-1.33,17.5c-.26,7.49-.64,12.3-1.15,14.46a10.65,10.65,0,0,1-3.61,5.7q-3.61,3.24-6.66,3.24-8.18,0-13.69-20.54a220.66,220.66,0,0,1-5.52-30.82q-.94-9.12-1-12.93Q552.79,200.69,557.36,198Z"/><path class="cls-1" d="M34.22,277.37a6.28,6.28,0,0,0,.76-.09,5,5,0,0,1,.76-.1,12,12,0,0,1,7.7,2.86A8.41,8.41,0,0,1,47,286.69c0,.89.57,1.14,1.71.76l2.85-1.14a36.82,36.82,0,0,1,15.6-3.61,25.64,25.64,0,0,1,17.69,6.46,30,30,0,0,1,8.27,12.18,42.71,42.71,0,0,1,3,15.59,31.47,31.47,0,0,1-2.66,13.7l-1.71,3.8,3.42,4q6.27,7.23,8,13.12a32.34,32.34,0,0,1,1.71,10.27,28.15,28.15,0,0,1-8.37,20.73q-8.94,8.94-23,8.94-11.81,0-24.92-5.89a.92.92,0,0,0-1,.38,11,11,0,0,0-1.23,2.28q-2.67,6.27-9.89,6.27-6.09,0-8.75-5.13-1.14-2.28-1.14-53.45,0-51,1.14-53.25a12.24,12.24,0,0,1,2.85-3.33A8.6,8.6,0,0,1,34.22,277.37ZM54,342.8c-.89-.25-2.86-.89-5.9-1.9h-.38q-.77,0-.76,7.42c0,5.2.35,8.74,1,10.65a10,10,0,0,0,4.47,4.94q11.22,6.66,20,6.66,7.22,0,10.27-4.18a8.16,8.16,0,0,0,1.14-4.57,11.84,11.84,0,0,0-1-4.56,22.52,22.52,0,0,0-8-8.09,27.88,27.88,0,0,0-11.6-4.47Q57.61,343.76,54,342.8Zm19-35.95a7.91,7.91,0,0,0-5.9-2.66h-1q-5.13,0-12.55,4.95c-3.3,2.15-5.21,3.23-5.71,3.23s-.76.82-.76,2.47c0,1.9.31,3.17,1,3.8s4.12,1.69,10.08,3.14S68.07,324,70,324h.76c.64-.25,1.53-1.43,2.67-3.52a14.51,14.51,0,0,0,1.9-5v-2.28A8.9,8.9,0,0,0,73,306.85Z"/><path class="cls-1" d="M140.54,318.07q2.09-1.14,8.18-1.14H154q11.42.19,15.22,1.91a35,35,0,0,1,13.12,9.89,41,41,0,0,1,9.7,26.81q0,15-9.32,24.16-9.13,8.94-26.06,9.13h-.57q-15.21,0-23.3-7.23t-8.08-20.92a52.75,52.75,0,0,1,.57-7.42,82,82,0,0,1,6.37-21.49Q136.73,320.18,140.54,318.07Zm24.15,22.83a18.54,18.54,0,0,0-3.42-2.95,12.46,12.46,0,0,0-4.38-.47h-4.75l-1.9,4.18q-4,9.13-4,15.6t4,9.51a9.85,9.85,0,0,0,6.27,2.09,14.79,14.79,0,0,0,10.18-4.28,13.19,13.19,0,0,0,4.66-10Q171.35,348.13,164.69,340.9Z"/><path class="cls-1" d="M256,307.8a12.37,12.37,0,0,1,4.76-.95,10.64,10.64,0,0,1,6.47,1.71c1.9,1.4,3.16,3.87,3.8,7.42s1.58,13.38,2.85,29.48q1.9,23.21,1.91,31v1.14l-.2.57a8.53,8.53,0,0,1-3,4.56,10.11,10.11,0,0,1-5.13,2.47h-1.33a11.81,11.81,0,0,1-5.81-1.52,9.07,9.07,0,0,1-3.9-3.8c-.88-1.65-1.45-2.47-1.71-2.47a24.16,24.16,0,0,0-4.94,1.71,24.39,24.39,0,0,1-8.94,1.71,18.12,18.12,0,0,1-8.18-1.71q-13.89-6.66-19.21-37.85a81.46,81.46,0,0,1-1.33-12.74q0-4.57,1.9-6.85a10.27,10.27,0,0,1,8.18-4.19,10.48,10.48,0,0,1,4.75,1.14,9.56,9.56,0,0,1,4.38,4.09c.88,1.72,1.58,4.66,2.09,8.85q3.42,24.35,9.13,27.77a2.06,2.06,0,0,0,1,.19q2.28,0,4.09-4.85a23.6,23.6,0,0,0,1.81-7.33,10.6,10.6,0,0,1,1.33-4.56,12.76,12.76,0,0,0,1-5.52c0-3.16-.13-6.21-.38-9.13-.26-2.53-.38-5.64-.38-9.31q0-5.14,1.05-7.33A8.47,8.47,0,0,1,256,307.8Z"/><path class="cls-1" d="M300.68,284.79a16.3,16.3,0,0,1,4.57-1.33,14.32,14.32,0,0,1,4.75,1.33,10.41,10.41,0,0,1,4.37,4.37q1.53,3,1.53,21.31,0,29.67,2.09,47l.76,6.46,2.85-2.47a9.37,9.37,0,0,1,6.28-2.47q10.65,0,10.65,11.41,0,14.07-11.22,19.21a21.51,21.51,0,0,1-8.56,2.09q-15.22,0-20.92-27.77a117.47,117.47,0,0,1-2.38-17.31q-.48-8.18-.48-28.72,0-19.77.19-23.77a13.84,13.84,0,0,1,1.15-5.71A10.36,10.36,0,0,1,300.68,284.79Z"/><path class="cls-1" d="M384,311.8a15.2,15.2,0,0,1,5.7-.76,33.17,33.17,0,0,1,11.6,1.9,42.57,42.57,0,0,1,8.28,4.94,50.27,50.27,0,0,1,7.7,6.85q7,8.19,7,15.79a12.75,12.75,0,0,1-2.09,7q-6.66,9.88-31.58,14.07c-4.82.76-7.22,1.46-7.22,2.09a1.61,1.61,0,0,0,.19.76c.5,1.52,2.44,2.86,5.8,4a29.83,29.83,0,0,0,9.6,1.71c2.67,0,4.5-.44,5.52-1.33.63-.38,1-1.33,1-2.86q0-1.89,2.19-4.37a12,12,0,0,1,4.66-3.42,7.63,7.63,0,0,1,3-.57,10.75,10.75,0,0,1,6.08,1.9,9.17,9.17,0,0,1,3.81,4.75,12,12,0,0,1,.57,3.81,21.08,21.08,0,0,1-2.09,8.75,21.86,21.86,0,0,1-5.33,7.41,23.08,23.08,0,0,1-8.27,4.85q-4.09,1.25-12.08,1.24a54.47,54.47,0,0,1-12.46-1.14,35.55,35.55,0,0,1-10.17-4.57,34.46,34.46,0,0,1-6.37-4.66A23.73,23.73,0,0,1,365,373.8a52.41,52.41,0,0,1-6.09-24.34q0-17.88,11.41-29.29A34.93,34.93,0,0,1,384,311.8Zm12,22.44a12.33,12.33,0,0,0-5.52-1.33q-7.41,0-9.32,7.23-.37,1.51-.09,1.71a8.35,8.35,0,0,0,2.57.19,49.23,49.23,0,0,0,15.59-2.28l2.66-.76-1.33-1.72A14.56,14.56,0,0,0,396,334.24Z"/><path class="cls-1" d="M461.58,293.92a9.79,9.79,0,0,1,5.71-1.71,10.37,10.37,0,0,1,8.94,4.56c1.14,1.52,1.77,5.46,1.9,11.79l.19,9.51,2.66.38a73.89,73.89,0,0,0,8.75.39q9.51,0,12.75,4.94A9.75,9.75,0,0,1,504,329.3q0,6.27-4.95,9.32-2.08,1.14-7.23,1.14h-4.18l-8.94-.19.57,7A176.3,176.3,0,0,0,482,366.1q2,10.17,3.33,10.17c1.39,0,2.6-1.77,3.61-5.32a31.85,31.85,0,0,0,.76-7.61q0-4.75,1.72-7.23a10.21,10.21,0,0,1,17.49,0c1,1.4,1.52,4.25,1.52,8.56q0,21.32-14.64,30.63-6.66,4.18-12.17,4.18A14.06,14.06,0,0,1,472.42,394Q462,381.23,458.54,343.75l-.57-5.51h-2.66a8.85,8.85,0,0,1-4.85-1.53,9.92,9.92,0,0,1-3.52-3.61,10,10,0,0,1-.95-4.56q0-4.95,2.28-7.23,3.42-3.81,7-3.81.94,0,1.14-1.23c.12-.83.19-3.27.19-7.33,0-4.94.31-8.36.95-10.27A8.94,8.94,0,0,1,461.58,293.92Z"/><path class="cls-1" d="M546.6,293.92a9.79,9.79,0,0,1,5.71-1.71,10.34,10.34,0,0,1,8.93,4.56c1.15,1.52,1.78,5.46,1.91,11.79l.19,9.51,2.66.38a73.89,73.89,0,0,0,8.75.39q9.51,0,12.74,4.94A9.67,9.67,0,0,1,589,329.3q0,6.27-4.94,9.32c-1.4.76-3.8,1.14-7.23,1.14h-4.18l-8.94-.19.57,7a171.68,171.68,0,0,0,2.76,19.5q2,10.17,3.32,10.17c1.4,0,2.6-1.77,3.62-5.32a32.38,32.38,0,0,0,.76-7.61q0-4.75,1.71-7.23a10.22,10.22,0,0,1,17.5,0q1.51,2.1,1.52,8.56,0,21.32-14.64,30.63-6.66,4.18-12.18,4.18A14,14,0,0,1,557.44,394Q547,381.23,543.56,343.75l-.57-5.51h-2.67a8.88,8.88,0,0,1-4.85-1.53,8.66,8.66,0,0,1-4.47-8.17q0-4.95,2.29-7.23,3.42-3.81,7-3.81,1,0,1.14-1.23a73.3,73.3,0,0,0,.2-7.33c0-4.94.31-8.36,1-10.27A8.94,8.94,0,0,1,546.6,293.92Z"/><path class="cls-1" d="M640.94,311.8a15.2,15.2,0,0,1,5.7-.76,33.26,33.26,0,0,1,11.61,1.9,42.83,42.83,0,0,1,8.27,4.94,50.27,50.27,0,0,1,7.7,6.85q7,8.19,7,15.79a12.75,12.75,0,0,1-2.09,7q-6.66,9.88-31.58,14.07c-4.82.76-7.22,1.46-7.22,2.09a1.61,1.61,0,0,0,.19.76c.5,1.52,2.44,2.86,5.8,4a29.88,29.88,0,0,0,9.6,1.71c2.67,0,4.5-.44,5.52-1.33.63-.38.95-1.33.95-2.86q0-1.89,2.19-4.37a12,12,0,0,1,4.66-3.42,7.63,7.63,0,0,1,3-.57,10.8,10.8,0,0,1,6.09,1.9,9.2,9.2,0,0,1,3.8,4.75,12,12,0,0,1,.57,3.81,21.08,21.08,0,0,1-2.09,8.75,21.86,21.86,0,0,1-5.33,7.41,23,23,0,0,1-8.27,4.85q-4.1,1.25-12.08,1.24a54.47,54.47,0,0,1-12.46-1.14,35.67,35.67,0,0,1-10.17-4.57A34.46,34.46,0,0,1,626,380a24,24,0,0,1-4.09-6.18,52.41,52.41,0,0,1-6.09-24.34q0-17.88,11.41-29.29A34.93,34.93,0,0,1,640.94,311.8Zm12,22.44a12.29,12.29,0,0,0-5.52-1.33q-7.41,0-9.32,7.23-.37,1.51-.09,1.71a8.35,8.35,0,0,0,2.57.19,49.23,49.23,0,0,0,15.59-2.28l2.67-.76-1.33-1.72A14.61,14.61,0,0,0,652.92,334.24Z"/><path class="cls-1" d="M354.54,131.89c-7.22-1.26-12.54-4.51-15.75-10.57-2.57-4.86-3.38-10.4,1.23-14.07,5.46-4.36,7.84.71,10.62,4.71,4.49,6.44,9.13,6,12.12-1.3,2.24-5.45,5.29-9.57,11.34-6.41,5.9,3.1,3.87,8.61,2,13.54C372.18,127.92,364.29,131.7,354.54,131.89Z"/><path class="cls-1" d="M278.45,132.44c-8.94-1.4-14.18-6.26-13.66-14.61s7.06-13,14.91-12.7c8.28.3,13.2,6.05,12.71,14.56C291.91,128.35,286.34,132.25,278.45,132.44Z"/><path class="cls-1" d="M430.48,127c-8.45-1-11.41-5.9-10.59-14.07.85-8.46,5-14.48,13.66-12.94,8.27,1.46,13,8.18,11.84,16.91C444.32,125.1,438.41,127.87,430.48,127Z"/><path class="cls-1" d="M559.26,165.82c-9.55-24.63-24.75-46-42.36-65.35C484.26,64.64,444.21,40.8,396.35,30.84c-17.53-3.63-35.29-4.95-53.15-5.41h0C248.86,26,162.79,83.62,131,170c-2,5.43-6.21,12,2.78,14.85,7.3,2.29,15.12,4.26,19-6.41a176.91,176.91,0,0,1,16.87-34.67C243.63,28.56,413.82,17,503.35,121a211.42,211.42,0,0,1,33.8,53c4.86,11.06,15.61,10.94,23,8.2C568.63,179.08,561.24,170.92,559.26,165.82Z"/></svg>