<svg width="144" height="143" viewBox="0 0 144 143" fill="none" xmlns="http://www.w3.org/2000/svg">
<g clip-path="url(#clip0_29_51)">
<path d="M70.5641 0.000262611C111.59 -0.812237 144 31.6878 144 71.094C144 110.5 112 143 71.7949 143C32 142.594 0.410294 110.907 3.79917e-05 72.719C-0.410218 32.094 32 0.406513 70.5641 0.000262611ZM100.923 34.5315C99.6924 34.5315 98.8718 34.5315 98.0513 34.9378C94.359 35.344 91.077 35.7503 87.3847 35.7503C76.718 35.7503 66.0513 35.7503 55.7949 35.7503C53.7436 35.7503 51.6923 35.7503 50.0513 35.7503C46.7693 35.7503 43.4872 35.7503 40.2052 35.344C39.7949 35.344 39.3847 35.344 39.3847 36.1565C39.3847 36.969 39.3847 38.1878 39.3847 39.0003C39.3847 39.4065 39.7949 39.8128 40.2052 39.8128C42.2565 40.219 44.3077 40.6253 46.359 41.0315C48.4103 41.4378 49.6411 42.6565 49.6411 44.6878C49.6411 46.719 50.0513 49.1565 50.0513 51.1878C50.0513 54.844 50.0513 58.5003 50.0513 62.1565C50.0513 69.8753 50.0513 78.0003 50.0513 85.719C50.0513 90.1878 50.0513 94.2503 50.0513 98.719C50.0513 100.344 49.2308 101.563 47.5898 102.375C46.7693 102.782 45.9488 102.782 45.5385 103.188C43.8975 103.594 42.2565 104 40.2052 104C39.7949 104 39.3847 104.407 39.7949 104.813C39.7949 105.625 39.7949 106.844 39.7949 107.657C39.7949 108.469 40.2052 108.469 40.6154 108.469C44.3077 108.469 48.4103 108.063 52.1026 108.063C55.3847 108.063 58.6667 108.063 61.9488 108.063C69.7436 108.063 77.9488 108.063 85.7436 108.063C89.8462 108.063 93.5385 108.469 97.6411 108.469C98.8718 108.469 100.103 108.469 101.333 108.469C101.744 108.469 102.154 108.469 102.154 107.657C102.154 106.844 102.154 106.438 102.154 105.625C102.564 102.782 102.974 99.5315 103.385 96.6878C103.795 93.4378 104.205 90.1878 104.615 87.344C104.615 86.9378 104.615 86.5315 103.795 86.5315C102.974 86.5315 102.154 86.5315 101.333 86.5315C100.923 86.5315 100.513 86.5315 100.513 87.344C99.2821 90.1878 98.0513 93.0315 96.8206 95.8753C96 97.9065 94.359 99.9378 92.718 101.157C90.6667 102.375 88.6154 102.782 86.1539 102.782C80.4103 102.782 74.6667 102.782 68.9231 102.782C68.1026 102.782 67.6923 102.782 66.8718 102.782C63.5898 102.375 61.5385 100.344 61.5385 97.094C61.5385 89.7815 61.5385 82.0628 61.5385 74.7503C61.5385 74.344 61.5385 73.9378 62.359 73.9378C64 73.9378 65.6411 73.9378 67.2821 73.9378C70.5641 73.9378 73.8462 73.9378 76.718 74.344C79.1795 74.344 80.8205 75.5628 81.2308 78.0003C81.6411 80.0315 82.0513 82.0628 82.4616 83.6878C82.4616 84.094 82.8718 84.5003 83.2821 84.5003C84.5129 84.5003 85.3334 84.5003 86.5641 84.5003C86.9744 84.5003 87.3847 84.5003 87.3847 83.6878C87.3847 81.2503 87.3847 78.4065 86.9744 75.969C86.9744 73.5315 86.9744 71.5003 86.9744 69.0628C86.9744 65.8128 87.3847 62.1565 87.3847 58.9065C87.3847 58.5003 87.3847 58.094 86.5641 58.094C85.3334 58.094 84.1026 58.094 83.2821 58.094C82.8718 58.094 82.8718 58.5003 82.4616 58.5003C81.6411 60.9378 81.2308 63.3753 80.8206 65.8128C80.4103 67.4378 79.5898 68.2503 77.9488 68.6565C76.3077 69.0628 74.2565 69.0628 72.6154 69.0628C69.3334 69.0628 66.0513 69.0628 62.7693 69.0628C61.5385 69.0628 61.5385 69.0628 61.5385 67.4378C61.5385 58.9065 61.5385 50.3753 61.5385 41.844C61.5385 40.6253 61.9488 40.219 63.1795 40.219C70.9744 40.219 78.7693 40.219 86.5641 40.219C88.6154 40.219 90.2564 41.0315 91.4872 42.6565C92.718 44.2815 93.5385 45.9065 93.9488 47.9378C94.359 49.969 95.1795 52.4065 95.5898 54.4378C95.5898 54.844 96 55.2503 96.4103 55.2503C97.6411 55.2503 98.4616 55.2503 99.6923 55.2503C100.103 55.2503 100.103 55.2503 100.103 54.844C100.103 53.6253 100.103 52.4065 100.103 50.7815C100.103 47.5315 100.513 44.2815 100.513 41.0315C100.923 39.0003 100.923 36.969 100.923 34.5315Z" fill="#625E99"/>
</g>
<defs>
<clipPath id="clip0_29_51">
<rect width="144" height="143" fill="white"/>
</clipPath>
</defs>
</svg>
