<svg width="144" height="144" viewBox="0 0 144 144" fill="none" xmlns="http://www.w3.org/2000/svg">
<path d="M88.678 37.4238H54.9153C45.1525 37.4238 37.4237 45.1526 37.4237 54.9154V88.6781C37.4237 98.4408 45.1525 106.17 54.9153 106.17H88.678C98.4407 106.17 106.17 98.4408 106.17 88.6781V54.9154C106.17 45.5594 98.4407 37.4238 88.678 37.4238ZM72.4068 92.7459C61.017 92.7459 51.661 83.3899 51.661 72.0001C51.661 60.6103 61.017 51.2543 72.4068 51.2543C83.7966 51.2543 93.1525 60.6103 93.1525 72.0001C93.1525 83.3899 83.7966 92.7459 72.4068 92.7459ZM94.3729 54.5086C91.5254 54.5086 89.4915 52.4747 89.4915 49.6272C89.4915 46.7798 91.5254 44.7459 94.3729 44.7459C97.2203 44.7459 99.2542 46.7798 99.2542 49.6272C99.2542 52.4747 97.2203 54.5086 94.3729 54.5086Z" fill="#625E99"/>
<path d="M72.4068 58.5762C65.0847 58.5762 58.983 64.6779 58.983 71.9999C58.983 79.3219 65.0847 85.4236 72.4068 85.4236C79.7288 85.4236 85.8305 79.3219 85.8305 71.9999C85.4237 64.6779 79.7288 58.5762 72.4068 58.5762Z" fill="#625E99"/>
<path d="M72 0C32.1356 0 0 32.1356 0 72C0 111.864 32.1356 144 72 144C111.864 144 144 111.864 144 72C144 32.1356 111.864 0 72 0ZM114.305 88.678C114.305 102.508 102.915 113.898 89.0847 113.898H55.322C41.4915 113.898 30.1017 102.508 30.1017 88.678V54.9152C30.1017 41.0847 41.4915 29.6949 55.322 29.6949H89.0847C102.915 29.6949 114.305 41.0847 114.305 54.9152V88.678Z" fill="#625E99"/>
</svg>
