<svg width="15" height="27" viewBox="0 0 15 27" fill="none" xmlns="http://www.w3.org/2000/svg">
<g clip-path="url(#clip0_157_1251)">
<path d="M5.62157 8.77289C5.86837 8.65932 6.30713 8.60254 6.91042 8.60254C7.8702 8.60254 8.74771 8.7445 9.51554 9.0568C10.064 9.28393 10.6673 9.6814 11.3803 10.1924C12.0658 10.7319 12.6417 11.2429 13.1079 11.7824C14.1499 13.06 14.6709 14.2808 14.6709 15.4448C14.6709 16.041 14.5064 16.5805 14.2048 17.0631C13.2176 18.5962 10.8592 19.6751 7.1298 20.3281C6.03291 20.5268 5.48446 20.6688 5.48446 20.8107C5.48446 20.8675 5.51188 20.9243 5.53931 20.9811C5.64899 21.3218 6.08775 21.6341 6.82815 21.918C7.56856 22.1735 8.30896 22.3155 8.96709 22.3155C9.57038 22.3155 9.98172 22.2019 10.2011 22.0032C10.3382 21.918 10.4205 21.6909 10.4205 21.3502C10.4205 21.0663 10.585 20.7256 10.9141 20.3281C11.2431 19.959 11.5996 19.6751 11.9561 19.5331C12.1481 19.448 12.3949 19.3912 12.6417 19.3912C13.1353 19.3912 13.574 19.5331 14.0128 19.8454C14.4516 20.1294 14.7258 20.4984 14.8629 20.9527C14.9452 21.2082 15 21.5205 15 21.8328C15 22.4858 14.8355 23.1672 14.5338 23.8486C14.2322 24.5584 13.8208 25.1262 13.3547 25.5805C12.7239 26.1483 12.1207 26.5174 11.4899 26.7161C10.8867 26.9148 9.98172 27 8.77514 27C7.6234 27 6.69104 26.9148 5.97806 26.7445C5.2925 26.5741 4.52468 26.2051 3.70201 25.694C3.04388 25.2965 2.5777 24.9275 2.27605 24.6152C1.97441 24.3029 1.67276 23.8202 1.37112 23.1956C0.466179 21.3786 0 19.4764 0 17.5458C0 14.7634 0.850092 12.4921 2.55027 10.7319C3.3181 9.90853 4.33272 9.25554 5.62157 8.77289ZM8.30896 13.9969C7.89762 13.7981 7.48629 13.6846 7.07495 13.6846C5.97806 13.6846 5.26508 14.2524 4.99086 15.3596C4.93601 15.5868 4.93601 15.7287 4.96344 15.7571C5.01828 15.7855 5.21024 15.8139 5.53931 15.8139C6.85558 15.8139 8.00731 15.6435 9.02194 15.2745L9.62523 15.1041L9.32358 14.6782C9.04936 14.3943 8.69287 14.1672 8.30896 13.9969Z" fill="white"/>
<path d="M9.92688 0C10.3931 0 10.7495 0.227129 10.9689 0.681388C11.1609 1.05047 11.2157 1.41956 11.0786 1.73186C10.9415 2.07256 10.3931 3.00946 9.4607 4.54259C8.58318 5.96215 8.06216 6.81388 7.84278 7.09779C7.6234 7.3817 7.40403 7.55205 7.18465 7.60883C6.82816 7.69401 6.49909 7.60883 6.1426 7.41009C5.81353 7.18297 5.59415 6.89905 5.51189 6.52997C5.42962 6.27445 5.45704 5.99054 5.62158 5.70662C5.75869 5.42271 6.27971 4.54259 7.15723 3.12303C8.06216 1.64669 8.66545 0.73817 8.91225 0.454259C9.2139 0.113565 9.54297 0 9.92688 0Z" fill="white"/>
</g>
<defs>
<clipPath id="clip0_157_1251">
<rect width="15" height="27" fill="white"/>
</clipPath>
</defs>
</svg>
