<svg width="249" height="196" viewBox="0 0 249 196" fill="none" xmlns="http://www.w3.org/2000/svg">
<g clip-path="url(#clip0_29_22)">
<path d="M60.8825 4.98922C62.0716 4.03892 63.7364 3.32619 65.639 3.08862C69.4441 2.85104 72.0602 3.80134 73.9628 6.65225C74.914 7.84013 75.6275 10.4535 75.8653 14.4923C76.1032 18.0559 76.341 22.3323 76.341 27.3213C76.341 31.8353 76.5788 37.2995 77.2923 43.4765C78.0057 50.1286 78.7192 54.8801 79.4327 57.731C82.5244 67.7092 88.2321 72.2232 96.5559 71.748L99.1719 71.5104L101.55 62.9577C102.977 57.731 103.691 53.4547 103.691 49.891C103.928 46.3274 103.691 38.2498 103.215 25.6583C102.739 15.6801 102.739 9.74074 102.977 7.60255C103.215 5.46437 104.404 3.56377 106.307 1.90074C107.496 0.950434 108.923 0.237706 110.825 0.000130692C114.393 -0.237445 117.246 0.950434 119.625 4.03892C120.338 4.98922 120.814 6.65225 121.052 8.79043C121.052 10.9286 121.289 15.205 121.527 21.3819C123.192 58.6813 120.338 80.3007 112.49 86.0025C111.063 86.9529 108.447 88.1407 105.117 89.3286C102.026 90.5165 98.6963 91.2292 95.1289 91.4668C90.6103 91.9419 86.8052 91.4668 83.7135 90.5165C75.3897 87.6656 69.2063 80.3007 65.1633 68.4219C63.2607 63.4329 62.0716 58.4438 61.1203 53.6922C60.1691 48.9407 59.4556 41.3383 58.2665 30.885C57.3152 19.9565 57.0774 13.5419 57.0774 11.1662C57.7908 8.55286 58.7421 6.65225 60.8825 4.98922Z" fill="#625E99"/>
<path d="M136.272 4.75163C137.937 3.80132 139.602 3.32617 141.266 3.32617C145.072 3.32617 147.688 4.75163 149.352 7.84011C150.066 9.26557 150.779 12.5916 151.017 17.5807L151.255 25.1831L153.395 21.6195C156.011 16.868 159.103 13.7795 162.195 12.1165C164.097 11.4037 165.524 10.9286 166.951 10.9286C167.189 10.9286 167.427 10.9286 167.903 10.9286C168.378 10.9286 168.854 10.9286 169.092 10.9286C173.848 11.1662 178.129 13.3044 181.934 16.868C185.739 20.4316 188.593 25.4207 190.496 31.5977C192.398 37.5371 193.587 47.5153 193.825 61.0571C193.825 64.1456 194.063 67.7092 194.063 71.2728C194.063 74.5989 193.587 76.9747 192.874 78.6377C191.209 82.2013 188.355 83.8643 184.312 83.8643C181.458 83.8643 178.842 82.4389 176.464 79.3504C175.751 78.4001 175.275 76.4995 175.275 73.6486V71.2728V69.3722C175.275 56.068 174.562 46.3274 173.135 40.388C172.659 38.2498 171.946 36.1116 170.994 33.9734C170.043 31.8353 169.33 30.885 168.854 30.885C167.189 30.885 165.524 37.0619 163.384 49.4159C161.719 58.6813 160.292 65.0959 158.865 68.6595C157.438 72.2231 155.298 74.8365 152.444 76.2619C150.779 77.2122 149.115 77.6874 147.45 77.6874C145.072 77.6874 143.169 76.9747 141.742 75.5492C138.413 72.4607 135.797 66.0462 134.132 56.3056C132.229 46.565 131.516 34.6862 131.516 20.4316C131.516 14.9674 131.754 11.1662 132.229 9.50314C133.181 7.36496 134.37 5.93951 136.272 4.75163Z" fill="#625E99"/>
<path d="M4.99427 64.6205C7.13467 63.9078 8.32378 63.4326 9.03725 63.4326C9.98854 63.4326 11.4155 63.9078 13.3181 64.6205C14.9828 65.5708 16.4097 66.7587 17.1232 68.4217C18.0745 70.3223 18.5501 76.4993 18.5501 87.4278C18.5501 105.008 19.2636 119.025 20.4527 129.479L21.1662 135.181L23.7822 133.042C25.447 131.617 27.3496 130.904 29.49 130.904C35.9112 130.904 39.0029 134.23 39.0029 141.12C39.0029 149.435 35.6734 155.137 29.0143 158.225C26.1605 159.413 23.5444 160.126 21.404 160.126C12.3668 160.126 6.18338 151.811 2.61605 135.418C1.42693 129.954 0.713467 124.727 0.475645 119.976C0.237822 114.987 0 106.434 0 94.0799C0 82.2011 0 75.3114 0.237822 72.9356C0.237822 70.5599 0.713467 68.8969 1.18911 67.9466C2.1404 66.5211 3.32951 65.3332 4.99427 64.6205Z" fill="#8A84B7"/>
<path d="M35.1977 63.9081C36.6247 63.1953 38.0516 62.9578 39.7163 62.9578C43.2837 62.9578 45.6619 64.3832 47.3267 67.2341C48.0401 68.6596 48.5158 70.3226 48.5158 72.4608C48.5158 73.6487 48.0401 81.9638 47.0888 97.4062C46.3754 109.047 45.6619 115.937 45.1863 118.075C44.7106 120.451 43.5215 122.114 41.8567 123.54C40.9055 124.49 39.2407 124.965 36.8625 124.965C33.2951 124.965 30.6791 123.302 28.7765 120.214C28.063 119.026 27.8252 117.6 27.8252 115.462C27.8252 113.561 28.063 109.76 28.3009 104.058C28.3009 102.395 28.5387 98.3565 29.0143 92.1796C29.2522 86.0026 29.7278 81.7263 29.9656 79.3505C30.4413 73.4111 30.9169 69.6099 31.3926 67.9469C31.8682 66.2838 33.0573 64.8584 35.1977 63.9081ZM39.0029 34.9238C39.0029 34.9238 39.4785 34.9238 39.7163 34.9238C40.192 34.9238 40.4298 34.9238 40.6676 34.9238C43.5215 34.9238 45.8997 35.8741 47.5645 37.7747C49.2292 39.6753 50.1805 42.0511 50.1805 44.902C50.1805 45.8523 49.9427 47.2778 49.4671 49.4159C48.7536 51.7917 47.5645 53.4547 45.8997 54.6426C44.235 55.8305 42.3324 56.5432 40.4298 56.5432C37.5759 56.5432 34.9599 55.3553 33.0573 52.9796C31.6304 51.5541 30.9169 49.416 30.9169 46.8026C30.9169 43.9517 31.6304 41.3384 33.2951 38.9626C34.9599 36.3493 36.8625 35.1614 39.0029 34.9238Z" fill="#8A84B7"/>
<path d="M63.4986 91.9417C63.9742 91.7041 64.9255 91.7041 66.3524 91.7041C68.9685 91.7041 70.8711 92.1793 72.0602 92.892C73.9627 94.0799 75.1519 95.7429 75.3897 97.8811C75.6275 100.019 75.8653 106.909 75.8653 118.55C75.8653 131.854 76.1032 138.507 76.5788 138.507L76.8166 138.269C78.957 135.656 83.4756 131.617 90.6103 126.628C93.9398 124.252 96.5559 123.302 98.4585 123.302C101.312 123.302 103.453 124.014 105.117 125.677C106.782 127.34 107.496 129.479 107.496 132.092V133.042C107.258 134.943 106.782 136.368 106.069 137.319C105.355 138.269 103.215 139.932 99.8854 142.545C98.6963 143.496 96.3181 145.159 93.2264 147.772L89.659 150.86L92.9885 154.187C95.3668 156.562 97.745 159.888 100.123 164.64C102.264 168.916 104.404 172.005 106.307 174.143C108.447 176.519 109.636 178.894 109.636 181.27C109.636 182.696 109.16 184.359 108.447 186.259C107.971 187.447 107.02 188.397 105.117 189.348C103.453 190.298 101.55 190.536 99.8854 190.536C98.4585 190.536 97.0315 190.298 95.8424 189.585C92.2751 187.447 88.9456 183.171 85.616 176.756C82.7622 171.054 80.1461 167.491 78.2436 166.54L76.1032 165.353L76.341 171.054C76.341 173.668 76.8166 177.469 77.2923 182.22C77.2923 183.171 77.5301 184.596 77.5301 186.022C77.5301 189.585 76.341 192.199 74.2006 194.099C72.5358 195.525 70.6332 196.237 68.4928 196.237C65.639 196.237 63.2607 195.05 61.596 192.911C60.4069 191.723 59.6934 190.298 59.4556 188.635C59.2178 186.972 58.7421 182.696 58.2665 175.806C57.7908 170.342 57.553 157.513 57.553 137.319C57.553 112.848 57.7908 99.7817 58.5043 97.6435C58.7421 96.4556 59.4556 95.2677 60.6447 94.0799C61.596 93.1296 62.5473 92.1793 63.4986 91.9417Z" fill="#8A84B7"/>
<path d="M140.791 90.2786C141.98 89.8035 143.645 89.5659 146.261 89.5659C150.304 89.5659 154.109 90.2786 157.438 91.4665C159.817 92.4168 162.433 94.0799 165.287 96.218C168.378 98.3562 170.756 100.494 172.659 102.87C177.178 108.097 179.318 113.086 179.318 118.075C179.318 120.451 178.605 122.827 177.415 124.727C173.135 131.142 163.146 135.656 147.212 138.269C142.693 138.982 140.315 139.694 140.315 140.17C140.315 140.407 140.315 140.645 140.553 140.882C141.029 142.308 142.931 143.733 146.023 144.683C149.352 145.871 152.206 146.347 155.298 146.347C157.914 146.347 159.579 145.871 160.53 145.159C161.244 144.683 161.481 143.971 161.481 142.308C161.481 141.12 162.195 139.694 163.622 138.031C165.049 136.368 166.476 135.418 168.14 134.705C169.092 134.23 170.043 134.23 170.994 134.23C173.135 134.23 175.037 134.943 176.94 136.131C178.842 137.319 180.032 138.982 180.507 140.645C180.983 141.833 180.983 143.02 180.983 144.208C180.983 146.822 180.269 149.673 179.08 152.523C177.653 155.374 175.989 157.75 174.086 159.651C171.47 162.027 168.854 163.452 166.238 164.402C163.622 165.115 159.817 165.59 154.585 165.59C149.59 165.59 145.547 165.115 142.693 164.402C139.602 163.69 136.51 162.264 132.943 160.126C130.089 158.463 128.186 157.037 126.759 155.612C125.57 154.424 124.143 152.286 122.716 149.673C118.911 142.07 116.771 134.23 116.771 126.39C116.771 114.987 120.338 105.483 127.711 98.3562C131.04 94.7926 135.321 92.1792 140.791 90.2786ZM152.206 111.66C150.542 110.71 148.639 110.473 146.974 110.473C142.218 110.473 139.126 112.848 137.937 117.362C137.699 118.313 137.699 118.788 137.937 119.025C138.175 119.263 138.888 119.263 140.315 119.263C146.023 119.263 151.017 118.55 155.298 117.125L157.914 116.412L156.725 114.749C155.536 113.323 154.109 112.373 152.206 111.66Z" fill="#8A84B7"/>
<path d="M214.278 87.1905C216.656 86.9529 219.034 86.7153 221.65 86.7153C224.504 86.7153 227.596 86.9529 230.688 87.6656C236.633 88.8535 241.39 90.7541 244.481 93.605C247.573 96.4559 249.238 99.782 249.238 104.058C249.238 106.909 248.287 109.998 246.622 113.324C244.244 117.838 239.725 123.54 232.828 130.192C228.785 133.993 226.407 137.081 225.456 139.22C224.504 141.358 224.029 145.397 223.553 151.574C223.315 156.325 222.84 159.414 222.364 161.077C221.65 162.74 220.461 163.927 218.797 164.878C217.37 165.59 215.943 165.828 214.278 165.828C210.711 165.828 207.857 164.403 206.192 161.314C205.479 159.889 205.241 158.226 205.241 156.325C205.241 154.662 205.241 152.999 205.479 151.811C205.954 141.833 207.143 134.468 208.808 130.192C210.235 126.39 213.327 122.827 218.083 119.026C220.461 116.887 223.077 114.749 225.931 112.136C228.547 109.523 229.974 107.86 229.974 107.384C229.974 106.909 229.023 106.434 226.883 105.959C224.98 105.484 222.84 105.246 220.461 105.246H218.559C213.089 105.484 208.808 107.147 205.716 110.235C204.289 111.661 203.1 112.611 201.673 113.086C200.246 113.561 198.819 114.037 197.868 114.037C195.49 114.037 193.35 113.086 191.685 111.423C190.02 109.523 189.069 107.384 189.069 104.771C189.069 103.821 189.069 103.108 189.307 102.633C189.782 99.782 192.874 96.6935 198.106 93.605C202.862 89.8038 208.332 87.9032 214.278 87.1905ZM208.808 173.668C209.522 172.718 211.186 172.243 213.327 172.243C217.132 172.243 220.224 173.668 222.84 176.757C224.266 178.42 224.98 179.845 224.98 181.27C224.98 184.597 221.413 186.735 214.278 187.21C213.327 187.21 212.375 187.447 211.186 187.447C209.997 187.447 208.808 186.735 207.857 185.547C206.668 184.359 206.192 182.458 206.192 180.32C206.192 177.707 206.905 175.569 208.808 173.668Z" fill="#8A84B7"/>
</g>
<defs>
<clipPath id="clip0_29_22">
<rect width="249" height="196" fill="white"/>
</clipPath>
</defs>
</svg>
