<svg width="435" height="236" viewBox="0 0 435 236" fill="none" xmlns="http://www.w3.org/2000/svg">
<g clip-path="url(#clip0_29_2)">
<path d="M83.5528 61.2595C84.4882 60.1212 85.9114 59.3839 87.5116 58.9284C90.7121 58.0174 93.465 58.6456 95.4595 60.6938C96.4495 61.6438 97.4072 63.7934 98.3617 67.4387C99.2727 70.6396 100.093 74.4475 100.824 78.8624C101.526 82.981 102.581 87.6632 104.168 93.1908C105.77 98.8665 107.227 103.061 108.376 105.64C112.785 114.032 118.493 117.363 125.783 115.454L128.109 114.778L128.823 106.782C129.248 101.955 129.154 97.9266 128.687 94.6823C128.22 91.4379 126.77 84.252 124.485 73.11C122.579 64.3237 121.614 59.0345 121.411 56.9607C121.223 55.035 121.938 53.1706 123.408 51.3819C124.343 50.2437 125.47 49.5353 127.07 49.0798C130.271 48.1688 133.038 48.9451 135.52 51.3943C136.348 52.2106 137.085 53.634 137.57 55.5307C138.039 57.2793 138.846 60.9391 140.137 66.4956C147.556 99.5673 148.282 119.236 142.478 125.636C141.247 126.803 139.289 128.191 136.443 129.665C133.893 131.111 131.017 132.289 127.965 133.186C124.038 134.317 120.484 134.665 117.449 134.214C109.707 133.026 103.026 127.398 97.407 117.33C94.8991 113.089 92.9981 108.938 91.3933 104.758C89.9511 100.712 87.804 94.0427 85.2481 84.7217C82.6777 75.2526 81.358 69.3998 81.1408 67.1779C81.3824 65.0607 81.9492 63.2108 83.5528 61.2595Z" fill="#625E99"/>
<path d="M153.479 53.0785C154.873 52.0449 156.31 51.4558 157.792 51.311C161.198 50.978 163.698 52.0795 165.454 54.7492C166.325 56.01 167.059 58.9291 167.804 63.4921L168.781 70.4252L170.24 66.9927C172.338 62.4508 174.729 59.3758 177.398 57.6194C178.955 56.7195 180.407 56.2785 181.592 56.1627C181.74 56.1482 182.036 56.1192 182.495 56.2239C182.939 56.1805 183.25 56.2997 183.546 56.2707C187.87 56.1471 191.895 57.5482 195.62 60.4741C199.345 63.3999 202.445 67.5832 204.625 73.0528C206.938 78.3598 208.843 87.1462 210.341 99.4119C210.765 102.212 211.069 105.323 211.387 108.581C211.677 111.544 211.598 113.795 211.017 115.497C209.84 118.752 207.333 120.642 203.778 120.99C201.112 121.25 198.612 120.149 196.278 117.685C195.451 116.869 194.995 115.268 194.749 112.75L194.474 109.936L194.315 108.306C193.142 96.3078 191.695 87.6261 189.826 82.2756C189.194 80.3934 188.413 78.5257 187.484 76.6724C186.407 74.8336 185.728 74.0027 185.432 74.0317C183.951 74.1764 182.872 79.9646 182.18 91.2479C181.525 99.8361 180.756 105.743 179.875 108.97C178.847 112.211 177.153 114.769 174.78 116.497C173.385 117.53 171.933 117.971 170.452 118.116C168.231 118.333 166.543 117.9 165.243 116.831C162.005 114.306 159.056 108.612 156.573 100.032C154.089 91.4516 152.144 80.725 150.884 67.8379C150.392 62.8015 150.369 59.5137 150.654 57.8409C150.911 55.8718 151.817 54.4372 153.479 53.0785Z" fill="#625E99"/>
<path d="M234.741 47.6774C235.749 47.2798 237.512 46.9579 239.91 47.0225C243.79 46.9423 247.284 47.4981 250.391 48.6899C252.565 49.5241 255.109 51.07 257.844 53.0458C260.579 55.0216 263.032 57.1745 264.716 59.1035C268.926 63.9261 271.033 68.655 271.185 73.276C271.254 75.5124 270.569 77.6731 269.409 79.5809C265.502 85.496 256.059 89.8585 241.202 92.3576C236.935 93.0737 234.757 93.7353 234.667 94.3423C234.696 94.6385 234.711 94.7867 234.888 95.0684C235.314 96.3726 237.074 97.5465 240.166 98.5901C243.259 99.6338 245.997 100.114 248.84 100.135C251.224 100.051 252.839 99.7441 253.803 98.9021C254.367 98.5479 254.591 97.7783 254.594 96.2826C254.626 95.0831 255.251 93.8256 256.602 92.3477C257.953 90.8698 259.347 89.8362 260.785 89.2471C261.644 88.8639 262.533 88.7771 263.57 88.6757C265.51 88.6357 267.359 89.2026 268.971 90.3909C270.73 91.5648 271.764 92.9593 272.382 94.6934C272.779 95.7013 272.895 96.8863 272.863 98.0859C272.813 100.633 272.318 103.224 271.084 105.887C269.849 108.549 268.274 110.797 266.36 112.629C263.882 114.815 261.332 116.261 259.02 117.085C256.546 117.776 253.005 118.271 248.222 118.29C243.588 118.295 239.827 118.064 237.06 117.288C234.307 116.66 231.185 115.32 227.843 113.254C225.152 111.722 223.363 110.252 222.062 109.183C220.895 107.951 219.67 106.127 218.387 103.71C214.716 96.7412 212.807 89.4505 212.823 81.9717C212.818 71.2051 216.154 62.5045 222.951 55.5593C225.595 52.0109 229.687 49.5172 234.741 47.6774ZM245.669 67.6948C244.101 66.9508 242.414 66.5176 240.77 66.5287C236.284 66.5186 233.51 68.7339 232.434 73.0262C232.225 73.944 232.12 74.4028 232.283 74.5365C232.445 74.6701 233.2 74.7459 234.548 74.7637C239.775 74.7014 244.485 73.9418 248.546 72.6477L250.872 71.9717L249.676 70.4436C248.657 69.1973 247.237 68.4388 245.669 67.6948Z" fill="#625E99"/>
<path d="M19.8209 134.336C21.1104 133.761 22.5481 133.172 24.0002 132.731C28.801 131.364 33.6452 130.442 38.9772 129.921C41.9394 129.631 44.0129 129.429 44.8871 129.194C45.3169 129.002 45.8949 128.796 46.4584 128.442C47.7335 127.719 48.7268 127.173 49.601 126.938C52.8015 126.027 55.5399 126.507 57.8306 128.526C58.6435 129.195 60.0133 132.5 61.7629 138.162C63.086 142.519 64.3511 146.283 65.5583 149.455C65.7499 149.885 65.9704 150.611 66.339 151.323C66.7655 152.627 66.8813 153.812 66.672 154.73C66.4449 156.995 69.2726 170.626 75.1261 195.327C76.4459 201.18 77.1041 204.854 77.1152 206.498C77.1264 208.142 76.2344 209.724 74.4393 211.246C73.1932 212.265 72.0662 212.973 70.8958 213.237C67.6953 214.148 64.928 213.372 62.4312 210.775C61.4412 209.825 60.8521 208.387 60.4111 206.934C59.97 205.482 59.2216 202.415 58.3284 197.866C56.3327 189.687 55.2914 185.153 55.0709 184.427L54.4094 182.248L51.3859 183.441L50.0819 183.867C42.525 186.102 34.841 185.507 27.3553 182.35C23.775 180.906 21.246 179.508 20.0644 178.128C18.7202 176.614 17.5565 173.887 16.2334 169.53C15.3514 166.625 14.8235 164.284 14.3535 162.536C12.6941 156.267 11.9491 151.704 11.9847 149.009C11.7774 142.3 14.4389 137.404 19.8209 134.336ZM40.4797 146.822C37.6511 146.949 34.8226 147.076 32.0085 147.351C30.0975 147.687 29.1042 148.233 28.8659 148.854C28.7757 149.461 29.376 152.543 30.6523 157.951L32.5901 165.538L38.6593 166.441C42.9077 167.072 45.1728 167.299 45.4546 167.122C46.9067 166.681 47.7987 165.099 48.2786 162.36C48.6104 159.636 48.4255 156.214 47.4421 152.273L46.285 146.554L40.4797 146.822Z" fill="#8A84B7"/>
<path d="M114.169 151.134C115.31 150.573 116.614 150.147 117.947 150.017C120.169 149.799 121.989 150.07 123.261 150.843C124.858 151.883 126.083 153.708 126.951 156.464C127.67 159.235 129.341 167.147 131.652 180.081C133.905 192.423 135.174 200.823 135.58 204.97C135.609 205.266 135.638 205.563 135.667 205.859L135.562 206.318C135.396 207.68 134.623 208.952 133.406 210.267C132.189 211.582 130.914 212.305 129.447 212.598L128.411 212.7C126.781 212.859 125.109 212.574 123.555 211.978C121.987 211.234 120.864 210.446 120.141 209.171C119.27 207.91 118.768 207.361 118.62 207.376C118.175 207.419 116.886 207.994 114.751 209.1C112.468 210.22 110.142 210.896 107.624 211.142C105.106 211.388 102.841 211.161 100.829 210.461C93.0755 207.63 86.8926 197.915 82.2942 181.466C81.1338 177.243 80.5045 173.865 80.2584 171.347C80.0122 168.829 80.2828 167.008 81.2037 165.721C82.7638 163.326 84.8697 161.923 87.5356 161.663C88.8686 161.533 90.2306 161.699 91.4734 162.175C93.1895 162.905 94.4757 163.826 95.3466 165.087C96.2174 166.347 97.0416 168.659 97.6708 172.037C100.722 184.899 103.979 192.208 107.263 193.681C107.425 193.815 107.722 193.786 108.018 193.757C109.203 193.641 110.257 192.192 110.9 189.587C111.676 186.819 111.932 184.85 111.802 183.517C111.7 182.48 111.881 181.266 112.476 179.712C112.819 178.632 112.971 177.122 112.783 175.196C112.536 172.678 112.142 170.174 111.762 167.819C111.412 165.759 111.017 163.256 110.728 160.293C110.453 157.479 110.561 155.524 111.037 154.281C111.528 153.186 112.626 152.182 114.169 151.134Z" fill="#8A84B7"/>
<path d="M155.531 129.146C156.376 128.614 157.991 128.307 160.065 128.104C163.471 127.771 166.773 127.897 169.54 128.673C171.553 129.374 173.905 130.49 176.596 132.021C179.288 133.553 181.55 135.276 183.353 136.894C187.638 140.962 189.821 144.935 190.226 149.083C190.429 151.157 190.025 153.14 189.147 154.871C186.114 160.551 177.885 165.094 164.787 168.767C160.994 169.736 159.127 170.517 159.17 170.961C159.184 171.109 159.213 171.406 159.376 171.539C159.936 172.681 161.533 173.721 164.434 174.335C167.187 174.963 169.896 175.147 172.266 174.915C174.488 174.698 175.94 174.257 176.608 173.444C177.023 173.104 177.247 172.335 177.117 171.001C177.016 169.965 177.492 168.722 178.547 167.273C179.601 165.824 180.699 164.819 181.974 164.096C182.686 163.728 183.412 163.507 184.449 163.406C186.226 163.232 187.899 163.517 189.481 164.409C191.064 165.301 192.231 166.533 192.968 167.957C193.351 168.816 193.601 169.839 193.716 171.024C193.934 173.246 193.573 175.674 192.782 178.293C191.844 180.927 190.699 182.983 189.066 184.638C187.033 186.781 184.941 188.331 182.778 189.141C180.614 189.951 177.399 190.714 173.104 191.134C168.957 191.539 165.521 191.576 162.945 191.229C160.37 190.883 157.588 189.958 154.437 188.322C151.923 187.073 150.178 186.047 148.892 185.126C147.605 184.205 146.409 182.677 145.141 180.408C141.26 174.357 138.994 167.998 138.327 161.185C137.386 151.556 139.729 143.401 145.194 136.586C147.613 133.808 151.099 131.224 155.531 129.146ZM166.925 146.276C165.371 145.68 163.861 145.529 162.38 145.674C158.381 146.064 156.051 148.236 155.391 152.189C155.33 153.092 155.225 153.551 155.373 153.537C155.536 153.67 156.277 153.598 157.461 153.482C162.201 153.019 166.29 152.021 169.877 150.474L172.041 149.664L170.874 148.432C169.721 147.349 168.464 146.724 166.925 146.276Z" fill="#8A84B7"/>
<path d="M211.043 137.178C212.776 136.56 215.117 136.032 217.931 135.757C221.93 135.366 225.232 135.492 227.837 136.135C230.442 136.777 232.927 137.731 235.146 139.009C237.364 140.288 238.813 141.343 239.521 142.47C240.052 143.315 240.479 144.619 240.653 146.397C240.899 148.915 240.494 150.899 239.425 152.199C237.97 154.136 235.835 155.242 233.169 155.503C230.948 155.72 229.112 155.301 227.678 154.395C225.283 152.834 222.974 152.163 220.456 152.409C219.271 152.525 218.249 152.774 217.256 153.32C216.262 153.865 215.565 154.382 215.461 154.841C215.327 155.004 215.652 155.271 216.465 155.939C217.278 156.608 218.076 157.128 219.186 157.767C221.567 159.179 224.612 161.274 228.189 164.214C231.766 167.155 234.397 169.589 236.066 171.37C241.103 177.009 244.008 182.258 244.501 187.295C244.935 191.739 243.534 195.764 240.475 199.652C236.318 204.544 230.907 207.317 224.094 207.983C222.021 208.185 220.525 208.182 219.474 208.135C214.069 207.916 209.763 206.692 206.674 204.152C203.451 201.775 201.637 198.513 201.231 194.366C201.116 193.181 201.133 191.833 201.299 190.471C201.995 183.823 204.787 180.26 209.527 179.797C211.896 179.565 213.894 180.118 215.683 181.588C217.471 183.058 218.414 185.059 218.661 187.578L218.936 190.392L221.349 190.605C221.66 190.724 222.252 190.666 222.844 190.608C225.51 190.347 226.742 189.18 226.525 186.958C226.438 186.07 226.217 185.343 225.701 184.646C224.83 183.385 223.338 181.886 221.209 180.001C219.081 178.115 216.848 176.688 214.793 175.543C206.909 171.379 201.797 166.495 199.307 160.906C198.689 159.172 198.248 157.72 198.103 156.239C197.726 152.387 198.726 148.85 201.074 145.331C203.258 141.678 206.596 139.108 211.043 137.178Z" fill="#8A84B7"/>
<path d="M256.749 125.981C257.996 124.962 259.433 124.373 261.211 124.199C264.321 123.895 266.806 124.848 268.83 127.193C269.834 128.291 270.745 131.492 271.238 136.528L272.139 144.216L274.389 144.296C276.033 144.284 278.417 144.201 281.528 143.897C286.711 143.39 290.248 144.39 292.138 146.897C293.143 147.996 293.584 149.448 293.757 151.225C294.09 154.632 293.004 157.281 290.497 159.171C289.37 159.879 287.474 160.364 284.808 160.624L281.401 160.957L274.129 161.519L275.124 167.104C276.06 172.097 277.308 177.209 278.88 182.588C280.453 187.968 281.602 190.547 282.342 190.475C283.527 190.359 284.271 188.791 284.885 185.89C285.17 184.217 285.115 182.129 284.884 179.758C284.637 177.24 284.894 175.271 285.652 173.851C287.169 171.011 289.408 169.446 292.37 169.157C295.332 168.867 297.832 169.969 299.87 172.461C300.875 173.559 301.388 175.752 301.736 179.308C302.851 190.713 299.663 199.4 292.305 205.203C288.968 207.773 285.825 209.276 282.863 209.566C279.308 209.913 276.053 208.736 273.394 206.005C267.1 199.741 262.079 186.623 258.17 166.518L257.291 162.118L255.07 162.335C253.737 162.465 252.36 162.151 251.103 161.526C249.683 160.768 248.708 159.966 247.999 158.839C247.454 157.845 247.042 156.689 246.897 155.208C246.636 152.542 247.04 150.558 248.109 149.257C249.684 147.01 251.508 145.784 253.433 145.596C253.878 145.553 254.293 145.213 254.221 144.473C254.311 143.866 254.108 141.792 253.79 138.533C253.399 134.533 253.42 131.69 253.719 130.165C254.167 128.626 255.222 127.177 256.749 125.981Z" fill="#8A84B7"/>
<path d="M301.766 112.309C303.026 111.438 304.479 110.997 305.96 110.852C309.366 110.519 312.014 111.606 313.919 114.261C314.79 115.522 315.408 117.256 315.61 119.33C315.726 120.515 316.093 128.854 316.696 144.198C317.07 155.676 317.143 162.548 316.916 164.813C316.689 167.079 315.678 168.972 314.031 170.479C313.081 171.469 311.495 172.073 309.126 172.304C305.719 172.637 302.746 171.283 300.664 168.346C299.808 167.233 299.367 165.781 299.164 163.707C298.99 161.93 298.777 158.212 298.508 152.406C298.497 150.762 298.254 146.748 298.09 140.483C297.778 134.233 297.669 130.057 297.734 127.658C297.613 121.837 297.696 118.09 298.129 116.403C298.591 115.012 299.794 113.549 301.766 112.309ZM302.66 83.2101C302.808 83.1956 302.956 83.1812 303.386 82.9896C303.83 82.9462 304.112 82.7691 304.26 82.7546C307.074 82.4795 309.382 83.1511 311.348 84.9031C313.299 86.5069 314.434 88.9382 314.709 91.7526C314.796 92.6414 314.645 94.1517 314.388 96.1208C313.865 98.4151 313.002 100.294 311.489 101.638C309.975 102.983 308.256 103.749 306.182 103.951C303.22 104.241 300.735 103.288 298.429 101.12C296.952 99.7693 296.023 97.916 295.762 95.2497C295.487 92.4352 295.981 89.8447 297.379 87.3154C298.82 85.2304 300.615 83.7091 302.66 83.2101Z" fill="#8A84B7"/>
<path d="M330.393 137.475C331.52 136.767 333.564 136.268 336.971 135.935L341.266 135.515C347.353 135.07 351.544 135.109 353.704 135.795C358.025 137.167 361.84 139.486 365.002 142.766C370.808 148.629 374.184 155.626 374.966 163.625C375.762 171.772 373.867 178.388 369.323 183.917C364.899 189.134 358.184 192.333 349.016 193.379L348.571 193.422C340.425 194.219 333.868 192.915 329.197 189.484C324.525 186.052 321.753 180.641 321.029 173.234C320.855 171.457 320.801 169.368 320.894 167.266C321.114 161.861 322.178 155.924 324.384 149.428C326.427 142.798 328.435 138.863 330.393 137.475ZM351.605 154.095C350.142 152.892 349.181 152.238 348.559 152C348.086 151.747 346.887 151.715 344.961 151.903L341.11 152.279L339.962 155.831C338.219 160.936 337.587 165.185 337.935 168.74C338.268 172.147 339.565 174.712 341.946 176.125C343.543 177.165 345.216 177.45 347.141 177.262C350.103 176.972 352.653 175.527 354.954 173.059C357.24 170.442 358.165 167.66 357.875 164.698C357.824 161.114 355.536 157.599 351.605 154.095Z" fill="#8A84B7"/>
<path d="M372.605 99.7015C373.999 98.668 375.437 98.0788 376.918 97.9341C380.324 97.6011 382.824 98.7026 384.581 101.372C385.451 102.633 386.185 105.552 386.93 110.115L387.907 117.048L389.366 113.616C391.464 109.074 393.855 105.999 396.524 104.242C398.081 103.343 399.533 102.902 400.718 102.786C400.866 102.771 401.162 102.742 401.621 102.847C402.065 102.804 402.376 102.923 402.672 102.894C406.996 102.77 411.021 104.171 414.746 107.097C418.471 110.023 421.572 114.206 423.751 119.676C426.064 124.983 427.97 133.769 429.468 146.035C429.891 148.835 430.195 151.946 430.514 155.204C430.803 158.167 430.724 160.418 430.143 162.12C428.966 165.375 426.459 167.265 422.904 167.613C420.238 167.873 417.738 166.772 415.404 164.308C414.577 163.492 414.121 161.891 413.875 159.373L413.586 156.411L413.426 154.781C412.253 142.783 410.807 134.101 408.938 128.751C408.305 126.868 407.525 125.001 406.596 123.147C405.519 121.308 404.84 120.478 404.543 120.507C403.062 120.651 401.983 126.439 401.292 137.723C400.636 146.311 399.868 152.218 398.987 155.445C397.958 158.686 396.264 161.244 393.891 162.971C392.497 164.005 391.045 164.446 389.564 164.591C387.342 164.808 385.655 164.375 384.354 163.306C381.117 160.781 378.168 155.087 375.685 146.507C373.201 137.926 371.256 127.2 369.996 114.313C369.504 109.276 369.481 105.989 369.766 104.316C370.037 102.495 371.077 100.898 372.605 99.7015Z" fill="#8A84B7"/>
<path d="M333.713 9.29083C336.335 8.58584 338.987 8.17712 341.801 7.90204C344.911 7.59801 348.346 7.56128 351.959 7.80633C358.754 8.48799 363.993 10.0696 367.866 12.9809C371.725 15.7442 373.878 19.4218 374.327 24.0137C374.631 27.1244 374.09 30.7664 372.527 34.6578C370.501 39.9403 366.074 46.654 359.11 54.9614C355.087 59.6914 352.74 63.2108 351.934 65.6822C351.129 68.1536 350.986 72.8035 351.193 79.5128C351.404 84.7262 351.292 88.1766 350.74 90.1747C350.173 92.0246 348.985 93.6362 347.161 94.8613C345.752 95.7467 344.166 96.3503 342.389 96.5241C338.39 96.915 335.12 95.5896 332.862 92.3709C331.977 90.962 331.344 89.0797 331.141 87.0059C330.953 85.0802 330.794 83.4508 330.797 81.9551C330.289 70.6394 330.692 62.5246 332.006 57.6108C333.23 53.3039 336.231 48.8233 341.158 44.1545C343.755 41.6575 346.308 38.7161 348.995 35.6121C351.668 32.36 352.99 30.5858 352.917 29.8452C352.874 29.4008 351.779 28.9096 349.514 28.6824C347.249 28.4552 344.85 28.3906 342.332 28.6367L340.259 28.8394C334.23 29.8773 329.664 32.1182 326.428 35.7245C325.091 37.3505 323.712 38.5322 322.155 39.4321C320.584 40.1839 319.131 40.6249 317.947 40.7407C315.132 41.0158 312.809 40.1961 310.696 38.4586C308.568 36.573 307.447 34.2898 307.158 31.3273C307.042 30.1422 306.969 29.4016 307.06 28.7946C307.348 25.626 310.273 21.9005 315.85 17.7663C321.427 13.6321 327.431 10.8021 333.713 9.29083ZM337.052 106.168C337.839 105.044 339.425 104.441 341.943 104.194C346.09 103.789 349.804 105.071 352.936 108.055C354.739 109.673 355.787 111.216 355.946 112.845C356.308 116.548 352.527 119.161 344.749 120.669C343.727 120.919 342.69 121.02 341.357 121.15C340.024 121.28 338.619 120.67 337.452 119.438C335.988 118.235 335.193 116.22 334.947 113.701C334.672 110.887 335.477 108.416 337.052 106.168Z" fill="#8A84B7"/>
</g>
<defs>
<clipPath id="clip0_29_2">
<rect width="416.834" height="194.824" fill="white" transform="translate(0.851135 41.2295) rotate(-5.58289)"/>
</clipPath>
</defs>
</svg>
